{
.appVersion = "3151";
.formatVersion = 3;
customParameters = (
{
name = vendorID;
value = "1BOU";
},
{
name = panose;
value = (
0,
0,
9,
0,
0,
0,
0,
0,
0,
0
);
},
{
name = unicodeRanges;
value = (
0,
1,
2,
3,
5,
13,
31,
33,
35,
38,
45,
60,
63,
67
);
},
{
name = codePageRanges;
value = (
"1252",
"1256"
);
},
{
name = fsType;
value = (
);
},
{
name = glyphOrder;
value = (
.notdef,
uni000D,
space,
exclam,
quotedbl,
numbersign,
dollar,
percent,
ampersand,
quotesingle,
parenleft,
parenright,
asterisk,
plus,
comma,
hyphen,
period,
slash,
zero,
one,
two,
three,
four,
five,
six,
seven,
eight,
nine,
colon,
semicolon,
less,
equal,
greater,
question,
at,
A,
B,
C,
D,
E,
F,
G,
H,
I,
J,
K,
L,
M,
N,
O,
P,
Q,
R,
S,
T,
U,
V,
W,
X,
Y,
Z,
bracketleft,
backslash,
bracketright,
asciicircum,
underscore,
grave,
a,
b,
c,
d,
e,
f,
g,
h,
i,
j,
k,
l,
m,
n,
o,
p,
q,
r,
s,
t,
u,
v,
w,
x,
y,
z,
braceleft,
bar,
braceright,
asciitilde,
exclamdown,
cent,
sterling,
yen,
brokenbar,
section,
dieresis,
copyright,
ordfeminine,
guillemotleft,
uni00AD,
registered,
macron,
degree,
plusminus,
twosuperior,
threesuperior,
acute,
paragraph,
periodcentered,
cedilla,
onesuperior,
ordmasculine,
guillemotright,
onequarter,
onehalf,
threequarters,
questiondown,
Agrave,
Aacute,
Acircumflex,
Atilde,
Adieresis,
Aring,
AE,
Ccedilla,
Egrave,
Eacute,
Ecircumflex,
Edieresis,
Igrave,
Iacute,
Icircumflex,
Idieresis,
Eth,
Ntilde,
Ograve,
Oacute,
Ocircumflex,
Otilde,
Odieresis,
multiply,
Oslash,
Ugrave,
Uacute,
Ucircumflex,
Udieresis,
Yacute,
Thorn,
germandbls,
agrave,
aacute,
acircumflex,
atilde,
adieresis,
aring,
ae,
ccedilla,
egrave,
eacute,
ecircumflex,
edieresis,
igrave,
iacute,
icircumflex,
idieresis,
eth,
ntilde,
ograve,
oacute,
ocircumflex,
otilde,
odieresis,
divide,
oslash,
ugrave,
uacute,
ucircumflex,
udieresis,
yacute,
thorn,
ydieresis,
dotlessi,
Lslash,
lslash,
OE,
oe,
Scaron,
scaron,
Ydieresis,
Zcaron,
zcaron,
florin,
circumflex,
caron,
breve,
dotaccent,
ring,
ogonek,
tilde,
hungarumlaut,
uni03BC,
uni060C,

glyphs = (
{
glyphname = .notdef;
layers = (
{
layerId = m01;
shapes = (
{
closed = 1;
nodes = (
(280,-80,qs),
(280,-68,o),
(264,-51,o),
(252,-51,qs),
(240,-51,o),
(225,-67,o),
(225,-80,qs),
(225,-106,o),
(252,-108,q),
(280,-106,o)
);
},
{
closed = 1;
nodes = (
(267,55,ls),
(267,87,o),
(288,104,qs),
(293,109,o),
(309,122,qs),
(363,165,o),
(405,226,o),
(406,263,qs),
(407,322,o),
(373,357,qs),
(332,399,o),
(256,399,qs),
(199,398,o),
(149,372,qs),
(123,359,o),
(122,349,qs),
(121,344,o),
(123,340,q),
(128,322,l),
(132,324,o),
(136,326,q),
(190,367,o),
(257,367,qs),
(311,367,o),
(372,311,o),
(372,262,qs),
(372,229,o),
(339,178,o),
(299,147,qs),
(264,121,o),
(238,82,o),
(238,59,qs),
(238,22,l),
(267,22,l)
);
},
{
closed = 1;
nodes = (
(486,-248,l),
(486,539,l),
(37,539,l),
(37,-248,l)
);
},
{
closed = 1;
nodes = (
(464,-226,l),
(60,-226,l),
(60,517,l),
(464,517,l)
);
}
);
userData = {
assembly = "NPUSHB[ ]	/* 80 values pushed */
27 24 2 3 1 1 76 8 1 3 1 0 1 3 0 128 0 0 6 1 0 6 126 0 4 9 1 7 2 4 7 103 0 2 0 1 3 2 1 105 0 6 5 5 6 87 0 6 6 5 96 0 5 6 5 80 48 48 10 10 48 51 48 51 50 49 47 46 45 44 10 43 10 43 41 45 36 10 6 25 
CALL[ ]	/* CallFunction */";
};
width = 524;
}
);
note = ".notdef";
},
{
glyphname = exclam;
layers = (
{
layerId = m01;
shapes = (
{
closed = 1;
nodes = (
(59,556,o),
(62,556,qs),
(63,556,ls),
(85,556,o),
(85,528,qs),
(83,124,ls),
(83,121,o),
(81,121,qs),
(63,121,ls),
(60,121,o),
(60,124,qs),
(59,553,ls)
);
},
{
closed = 1;
nodes = (
(57,45,o),
(70,45,qs),
(82,45,o),
(101,26,o),
(101,13,qs),
(101,0,o),
(82,-18,o),
(70,-18,qs),
(57,-18,o),
(39,0,o),
(39,13,qs),
(39,26,o)
);
}
);
userData = {
assembly = "PUSHB[ ]	/* 8 values pushed */
11 3 0 3 2 0 1 76 
MPPEM[ ]	/* MeasurePixelPerEm */
PUSHB[ ]	/* 1 value pushed */
49 
LT[ ]	/* LessThan */
IF[ ]	/* If */
NPUSHB[ ]	/* 16 values pushed */
0 0 0 39 77 0 2 2 1 97 0 1 1 46 1 78 
ELSE[ ]	/* Else */
NPUSHB[ ]	/* 13 values pushed */
0 2 0 1 2 1 101 0 0 0 39 0 78 
EIF[ ]	/* EndIf */
PUSHB[ ]	/* 6 values pushed */
36 38 23 3 9 25 
CALL[ ]	/* CallFunction */";
};
width = 139;
}
);
note = exclam;
unicode = 33;
},
{
glyphname = quotedbl;
layers = (
{
layerId = m01;
shapes = (
{
closed = 1;
nodes = (
(44,556,o),
(47,556,qs),
(51,556,ls),
(73,556,o),
(72,528,qs),
(68,384,ls),
(68,382,o),
(65,382,qs),
(53,382,ls),
(50,382,o),
(50,384,qs),
(44,553,ls)
);
},
{
closed = 1;
nodes = (
(113,556,o),
(116,556,qs),
(120,556,ls),
(143,556,o),
(141,528,qs),
(137,384,ls),
(137,382,o),
(134,382,qs),
(122,382,ls),
(120,382,o),
(120,384,qs),
(113,553,ls)
);
}
);
userData = {
assembly = "NPUSHB[ ]	/* 20 values pushed */
18 15 12 3 0 5 0 73 1 1 0 0 39 0 78 57 55 2 9 24 
CALL[ ]	/* CallFunction */";
};
width = 186;
}
);
note = quotedbl;
unicode = 34;
},
{
glyphname = numbersign;
layers = (
{
layerId = m01;
shapes = (
{
closed = 1;
nodes = (
(33,162,ls),
(29,162,o),
(30,168,qs),
(33,181,ls),
(34,185,o),
(39,185,qs),
(128,185,l),
(173,366,l),
(85,366,ls),
(80,366,o),
(82,372,qs),
(85,384,ls),
(86,388,o),
(91,388,qs),
(179,388,l),
(220,551,ls),
(221,556,o),
(226,556,qs),
(227,556,ls),
(244,556,o),
(237,525,qs),
(204,388,l),
(385,388,l),
(426,551,l),
(426,556,o),
(431,556,qs),
(432,556,ls),
(450,556,o),
(442,525,qs),
(410,388,l),
(498,388,ls),
(502,388,o),
(501,383,qs),
(498,369,l),
(496,366,o),
(492,366,qs),
(403,366,l),
(360,185,l),
(446,185,ls),
(450,185,o),
(450,179,q),
(446,166,ls),
(445,162,o),
(440,162,qs),
(355,162,l),
(317,8,ls),
(315,0,o),
(304,0,qs),
(290,0,ls),
(288,0,o),
(288,4,q),
(328,162,l),
(149,162,l),
(111,8,ls),
(109,0,o),
(98,0,qs),
(85,0,ls),
(81,0,o),
(82,4,qs),
(122,162,l)
);
},
{
closed = 1;
nodes = (
(379,366,l),
(198,366,l),
(154,185,l),
(334,185,l)
);
}
);
userData = {
assembly = "NPUSHB[ ]	/* 82 values pushed */
26 1 5 6 18 1 1 4 8 1 0 1 3 76 10 8 2 6 14 11 2 5 4 6 5 104 16 15 12 3 4 13 3 2 1 0 4 1 103 9 1 7 7 39 77 2 1 0 0 40 0 78 60 60 60 63 60 63 62 61 59 57 53 52 51 49 45 44 40 39 20 18 21 17 21 18 20 18 34 17 9 31 
CALL[ ]	/* CallFunction */";
};
width = 531;
}
);
note = numbersign;
unicode = 35;
},
{
glyphname = dollar;
layers = (
{
layerId = m01;
shapes = (
{
closed = 1;
nodes = (
(120,313,o),
(52,375,o),
(52,424,qs),
(52,480,o),
(91,519,qs),
(135,563,o),
(209,567,q),
(209,618,ls),
(209,621,o),
(212,621,qs),
(232,621,ls),
(235,621,o),
(235,618,qs),
(235,567,l),
(298,564,o),
(362,527,qs),
(378,517,o),
(386,506,o),
(383,498,qs),
(382,495,l),
(381,494,l),
(379,488,o),
(376,488,qs),
(373,488,o),
(369,491,qs),
(367,492,o),
(366,493,qs),
(299,541,o),
(235,544,q),
(235,296,l),
(326,263,o),
(393,201,o),
(393,150,qs),
(393,86,o),
(356,44,qs),
(313,-4,o),
(235,-10,q),
(235,-62,ls),
(235,-64,o),
(232,-64,qs),
(212,-64,ls),
(209,-64,o),
(209,-62,qs),
(209,-11,l),
(131,-9,o),
(81,31,qs),
(34,67,o),
(34,103,qs),
(34,119,o),
(43,119,qs),
(50,119,o),
(53,109,qs),
(67,66,o),
(151,13,o),
(209,12,q),
(209,280,l)
);
},
{
closed = 1;
nodes = (
(154,541,o),
(119,513,qs),
(78,481,o),
(78,426,qs),
(78,383,o),
(113,354,qs),
(140,331,o),
(209,305,q),
(209,544,l)
);
},
{
closed = 1;
nodes = (
(293,18,o),
(327,49,qs),
(367,85,o),
(367,149,qs),
(367,192,o),
(331,222,qs),
(303,246,o),
(235,271,q),
(235,13,l)
);
}
);
userData = {
assembly = "NPUSHB[ ]	/* 24 values pushed */
65 56 55 25 4 1 3 73 1 0 1 2 76 45 42 2 4 74 18 15 12 3 2 73 
MPPEM[ ]	/* MeasurePixelPerEm */
PUSHB[ ]	/* 1 value pushed */
45 
LT[ ]	/* LessThan */
IF[ ]	/* If */
NPUSHB[ ]	/* 31 values pushed */
0 1 3 0 3 1 0 128 6 1 3 3 4 97 5 1 4 4 39 77 0 0 0 2 97 0 2 2 46 2 78 
ELSE[ ]	/* Else */
NPUSHB[ ]	/* 29 values pushed */
0 1 3 0 3 1 0 128 5 1 4 6 1 3 1 4 3 105 0 0 0 2 97 0 2 2 46 2 78 
EIF[ ]	/* EndIf */
NPUSHB[ ]	/* 10 values pushed */
30 23 29 31 20 35 16 7 9 29 
CALL[ ]	/* CallFunction */";
};
width = 433;
}
);
note = dollar;
unicode = 36;
},
{
glyphname = percent;
layers = (
{
layerId = m01;
shapes = (
{
closed = 1;
nodes = (
(78,262,qs),
(43,307,o),
(43,394,qs),
(43,470,o),
(70,515,qs),
(101,567,o),
(161,567,qs),
(214,567,o),
(245,527,qs),
(280,482,o),
(280,394,qs),
(280,318,o),
(253,274,qs),
(222,223,o),
(161,223,qs),
(109,223,o)
);
},
{
closed = 1;
nodes = (
(181,0,o),
(184,4,q),
(454,551,ls),
(456,556,o),
(459,556,qs),
(460,556,ls),
(469,556,o),
(474,537,o),
(467,525,q),
(213,8,ls),
(209,0,o),
(200,0,qs),
(186,0,ls)
);
},
{
closed = 1;
nodes = (
(255,393,qs),
(255,544,o),
(161,544,qs),
(68,544,o),
(68,393,qs),
(68,244,o),
(161,244,qs),
(255,244,o)
);
},
{
closed = 1;
nodes = (
(424,30,qs),
(389,75,o),
(389,163,qs),
(389,239,o),
(415,283,qs),
(447,335,o),
(507,335,qs),
(560,335,o),
(590,295,qs),
(625,250,o),
(625,163,qs),
(625,87,o),
(598,42,qs),
(567,-9,o),
(507,-9,qs),
(454,-9,o)
);
},
{
closed = 1;
nodes = (
(600,162,qs),
(600,313,o),
(507,313,qs),
(414,313,o),
(414,162,qs),
(414,13,o),
(507,13,qs),
(600,13,o)
);
}
);
userData = {
assembly = "MPPEM[ ]	/* MeasurePixelPerEm */
PUSHB[ ]	/* 1 value pushed */
36 
LT[ ]	/* LessThan */
IF[ ]	/* If */
NPUSHB[ ]	/* 52 values pushed */
0 7 0 9 4 7 9 105 12 1 4 10 1 0 8 4 0 105 0 3 3 39 77 0 5 5 1 97 0 1 1 39 77 11 1 2 2 40 77 14 1 8 8 6 97 13 1 6 6 49 6 78 
ELSE[ ]	/* Else */
NPUSHB[ ]	/* 50 values pushed */
0 1 0 5 7 1 5 105 0 7 0 9 4 7 9 105 12 1 4 10 1 0 8 4 0 105 0 3 3 39 77 11 1 2 2 40 77 14 1 8 8 6 97 13 1 6 6 49 6 78 
EIF[ ]	/* EndIf */
NPUSHB[ ]	/* 43 values pushed */
54 53 38 37 30 29 17 16 1 0 58 56 53 60 54 60 46 44 37 52 38 52 34 32 29 36 30 36 22 21 16 28 17 27 9 7 0 15 1 15 15 9 22 
CALL[ ]	/* CallFunction */";
};
width = 668;
}
);
note = percent;
unicode = 37;
},
{
glyphname = ampersand;
layers = (
{
layerId = m01;
shapes = (
{
closed = 1;
nodes = (
(452,273,o),
(463,273,qs),
(473,273,ls),
(479,273,o),
(476,267,qs),
(383,114,l),
(480,5,ls),
(485,0,o),
(477,0,qs),
(465,0,ls),
(455,0,o),
(447,9,qs),
(370,93,l),
(304,-6,o),
(201,-6,qs),
(139,-6,o),
(96,32,qs),
(49,76,o),
(49,145,qs),
(49,254,o),
(181,312,q),
(105,392,o),
(105,449,qs),
(105,499,o),
(136,530,qs),
(171,567,o),
(235,567,qs),
(285,567,o),
(318,539,qs),
(355,508,o),
(355,457,qs),
(355,416,o),
(282,336,o),
(216,305,q),
(367,132,l),
(447,266,ls)
);
},
{
closed = 1;
nodes = (
(331,456,qs),
(331,497,o),
(280,544,o),
(235,544,qs),
(185,544,o),
(130,495,o),
(130,450,qs),
(130,422,o),
(162,365,o),
(202,321,q),
(331,382,o)
);
},
{
closed = 1;
nodes = (
(132,267,o),
(75,197,o),
(75,150,qs),
(75,92,o),
(105,57,qs),
(139,17,o),
(203,17,qs),
(292,17,o),
(355,111,q),
(195,296,l)
);
}
);
userData = {
assembly = "NPUSHB[ ]	/* 13 values pushed */
56 14 1 3 3 4 29 22 2 5 3 2 76 
MPPEM[ ]	/* MeasurePixelPerEm */
PUSHB[ ]	/* 1 value pushed */
10 
LT[ ]	/* LessThan */
IF[ ]	/* If */
NPUSHB[ ]	/* 34 values pushed */
0 3 4 5 4 3 5 128 0 4 4 0 97 0 0 0 39 77 0 2 2 40 77 0 5 5 1 97 0 1 1 49 1 78 
ELSE[ ]	/* Else */
MPPEM[ ]	/* MeasurePixelPerEm */
PUSHB[ ]	/* 1 value pushed */
12 
LT[ ]	/* LessThan */
IF[ ]	/* If */
NPUSHB[ ]	/* 34 values pushed */
0 3 4 5 4 3 5 128 0 4 4 0 97 0 0 0 39 77 0 2 2 40 77 0 5 5 1 97 0 1 1 46 1 78 
ELSE[ ]	/* Else */
MPPEM[ ]	/* MeasurePixelPerEm */
PUSHB[ ]	/* 1 value pushed */
36 
LT[ ]	/* LessThan */
IF[ ]	/* If */
NPUSHB[ ]	/* 34 values pushed */
0 3 4 5 4 3 5 128 0 4 4 0 97 0 0 0 39 77 0 2 2 40 77 0 5 5 1 97 0 1 1 49 1 78 
ELSE[ ]	/* Else */
NPUSHB[ ]	/* 32 values pushed */
0 3 4 5 4 3 5 128 0 0 0 4 3 0 4 105 0 2 2 40 77 0 5 5 1 97 0 1 1 49 1 78 
EIF[ ]	/* EndIf */
EIF[ ]	/* EndIf */
EIF[ ]	/* EndIf */
NPUSHB[ ]	/* 9 values pushed */
37 39 52 51 42 39 6 9 28 
CALL[ ]	/* CallFunction */";
};
width = 510;
}
);
note = ampersand;
unicode = 38;
},
{
glyphname = quotesingle;
layers = (
{
layerId = m01;
shapes = (
{
closed = 1;
nodes = (
(44,556,o),
(47,556,qs),
(51,556,ls),
(73,556,o),
(72,528,qs),
(68,384,ls),
(68,382,o),
(65,382,qs),
(53,382,ls),
(50,382,o),
(50,384,qs),
(44,553,ls)
);
}
);
userData = {
assembly = "NPUSHB[ ]	/* 15 values pushed */
3 0 2 0 73 0 0 0 39 0 78 55 1 9 23 
CALL[ ]	/* CallFunction */";
};
width = 117;
}
);
note = quotesingle;
unicode = 39;
},
{
glyphname = parenleft;
layers = (
{
layerId = m01;
shapes = (
{
closed = 1;
nodes = (
(232,653,q),
(232,654,o),
(233,655,qs),
(247,668,o),
(250,675,qs),
(253,681,o),
(253,690,qs),
(253,691,o),
(253,692,qs),
(253,703,o),
(244,697,qs),
(170,646,o),
(124,549,qs),
(67,429,o),
(68,277,qs),
(67,143,o),
(111,33,qs),
(159,-85,o),
(244,-143,qs),
(253,-150,o),
(253,-138,qs),
(253,-128,o),
(250,-122,qs),
(247,-114,o),
(235,-103,qs),
(232,-100,ls),
(90,34,o),
(94,277,q),
(90,519,o)
);
}
);
userData = {
assembly = "PUSHB[ ]	/* 4 values pushed */
18 8 1 50 
CALL[ ]	/* CallFunction */";
};
width = 307;
}
);
note = parenleft;
unicode = 40;
},
{
glyphname = parenright;
layers = (
{
layerId = m01;
shapes = (
{
closed = 1;
nodes = (
(78,-100,q),
(78,-101,o),
(77,-102,qs),
(63,-114,o),
(59,-122,qs),
(56,-128,o),
(57,-137,qs),
(57,-138,ls),
(57,-150,o),
(65,-143,q),
(139,-92,o),
(186,5,qs),
(243,124,o),
(242,277,qs),
(243,410,o),
(199,520,qs),
(151,638,o),
(65,697,qs),
(57,703,o),
(57,692,qs),
(57,691,ls),
(56,681,o),
(59,675,qs),
(63,668,o),
(75,656,qs),
(77,654,o),
(78,653,qs),
(219,519,o),
(216,277,qs),
(219,34,o)
);
}
);
userData = {
assembly = "PUSHB[ ]	/* 4 values pushed */
20 10 1 50 
CALL[ ]	/* CallFunction */";
};
width = 318;
}
);
note = parenright;
unicode = 41;
},
{
glyphname = asterisk;
layers = (
{
layerId = m01;
shapes = (
{
closed = 1;
nodes = (
(38,455,o),
(39,459,qs),
(46,481,ls),
(47,485,o),
(51,484,q),
(145,447,l),
(140,548,ls),
(140,553,o),
(144,553,qs),
(167,553,ls),
(171,553,o),
(171,548,qs),
(165,447,l),
(260,484,ls),
(263,485,o),
(265,481,q),
(271,459,ls),
(272,455,o),
(269,454,qs),
(171,429,l),
(235,351,l),
(235,350,l),
(237,347,o),
(234,345,qs),
(215,332,ls),
(212,330,o),
(211,331,qs),
(210,332,o),
(210,333,q),
(155,418,l),
(101,333,l),
(100,332,o),
(100,331,q),
(99,330,o),
(96,332,qs),
(77,345,ls),
(73,348,o),
(76,351,qs),
(139,429,l),
(42,454,ls)
);
}
);
userData = {
assembly = "NPUSHB[ ]	/* 28 values pushed */
37 34 33 32 27 26 25 22 19 18 10 9 4 1 14 0 73 0 0 0 39 0 78 30 29 1 9 22 
CALL[ ]	/* CallFunction */";
};
width = 310;
}
);
note = asterisk;
unicode = 42;
},
{
glyphname = plus;
layers = (
{
layerId = m01;
shapes = (
{
closed = 1;
nodes = (
(46,262,o),
(46,266,qs),
(46,282,ls),
(46,285,o),
(49,285,qs),
(184,285,l),
(184,440,ls),
(184,443,o),
(187,443,qs),
(207,443,o),
(207,416,qs),
(207,285,l),
(339,285,ls),
(342,285,o),
(342,282,qs),
(342,266,ls),
(342,262,o),
(339,262,qs),
(207,262,l),
(207,106,ls),
(207,103,o),
(204,103,qs),
(187,103,ls),
(184,103,o),
(184,106,qs),
(184,262,l),
(49,262,ls)
);
}
);
userData = {
assembly = "NPUSHB[ ]	/* 50 values pushed */
24 10 2 0 1 1 76 4 1 2 0 73 0 2 1 2 133 3 1 1 0 0 1 87 3 1 1 1 0 95 5 4 2 0 1 0 79 0 0 0 26 0 26 19 18 51 23 6 9 26 
CALL[ ]	/* CallFunction */";
};
width = 388;
}
);
note = plus;
unicode = 43;
},
{
glyphname = comma;
layers = (
{
layerId = m01;
shapes = (
{
closed = 1;
nodes = (
(55,16,qs),
(55,29,o),
(72,45,o),
(86,45,qs),
(117,45,o),
(117,12,qs),
(117,-13,o),
(85,-73,o),
(61,-94,qs),
(59,-96,o),
(57,-94,qs),
(56,-93,o),
(56,-92,q),
(45,-82,o),
(57,-64,qs),
(60,-60,o),
(60,-59,q),
(62,-57,o),
(64,-53,qs),
(78,-30,o),
(82,-14,q),
(55,-10,o)
);
}
);
userData = {
assembly = "NPUSHB[ ]	/* 9 values pushed */
0 0 0 118 18 16 1 9 22 
CALL[ ]	/* CallFunction */";
};
width = 162;
}
);
note = comma;
unicode = 44;
},
{
glyphname = hyphen;
layers = (
{
layerId = m01;
shapes = (
{
closed = 1;
nodes = (
(46,214,o),
(49,214,qs),
(253,214,ls),
(256,214,o),
(256,212,qs),
(256,195,ls),
(256,192,o),
(253,192,qs),
(49,192,ls),
(46,192,o),
(46,195,qs),
(46,212,ls)
);
}
);
userData = {
assembly = "NPUSHB[ ]	/* 21 values pushed */
0 1 0 0 1 87 0 1 1 0 95 0 0 1 0 79 51 48 2 9 24 
CALL[ ]	/* CallFunction */";
};
width = 301;
}
);
note = hyphen;
unicode = 45;
},
{
glyphname = period;
layers = (
{
layerId = m01;
shapes = (
{
closed = 1;
nodes = (
(111,26,o),
(111,13,qs),
(111,0,o),
(93,-18,o),
(81,-18,qs),
(68,-18,o),
(50,0,o),
(50,13,qs),
(50,26,o),
(68,44,o),
(81,44,qs),
(93,44,o)
);
}
);
userData = {
assembly = "MPPEM[ ]	/* MeasurePixelPerEm */
PUSHB[ ]	/* 1 value pushed */
49 
LT[ ]	/* LessThan */
IF[ ]	/* If */
NPUSHB[ ]	/* 12 values pushed */
2 1 0 0 1 97 0 1 1 46 1 78 
ELSE[ ]	/* Else */
NPUSHB[ ]	/* 18 values pushed */
2 1 0 1 1 0 89 2 1 0 0 1 97 0 1 0 1 81 
EIF[ ]	/* EndIf */
NPUSHB[ ]	/* 11 values pushed */
1 0 7 5 0 11 1 11 3 9 22 
CALL[ ]	/* CallFunction */";
};
width = 161;
}
);
note = period;
unicode = 46;
},
{
glyphname = slash;
layers = (
{
layerId = m01;
shapes = (
{
closed = 1;
nodes = (
(1,0,o),
(3,4,qs),
(234,549,l),
(236,556,o),
(240,556,qs),
(264,556,o),
(250,525,qs),
(32,8,ls),
(28,0,o),
(19,0,qs),
(5,0,ls)
);
}
);
userData = {
assembly = "NPUSHB[ ]	/* 16 values pushed */
0 1 1 39 77 0 0 0 40 0 78 19 16 2 9 24 
CALL[ ]	/* CallFunction */";
};
width = 253;
}
);
note = slash;
unicode = 47;
},
{
glyphname = zero;
layers = (
{
layerId = m01;
shapes = (
{
closed = 1;
nodes = (
(111,51,qs),
(62,120,o),
(62,277,qs),
(62,567,o),
(244,567,qs),
(331,567,o),
(375,504,qs),
(426,434,o),
(426,277,qs),
(426,140,o),
(388,70,qs),
(345,-10,o),
(244,-10,qs),
(155,-10,o)
);
},
{
closed = 1;
nodes = (
(357,67,qs),
(400,130,o),
(400,277,qs),
(400,408,o),
(368,471,qs),
(331,544,o),
(244,544,qs),
(168,544,o),
(130,489,qs),
(88,426,o),
(88,277,qs),
(88,148,o),
(120,85,qs),
(157,13,o),
(244,13,qs),
(320,13,o)
);
}
);
userData = {
assembly = "MPPEM[ ]	/* MeasurePixelPerEm */
PUSHB[ ]	/* 1 value pushed */
36 
LT[ ]	/* LessThan */
IF[ ]	/* If */
NPUSHB[ ]	/* 23 values pushed */
0 3 3 1 97 0 1 1 39 77 5 1 2 2 0 97 4 1 0 0 46 0 78 
ELSE[ ]	/* Else */
NPUSHB[ ]	/* 21 values pushed */
0 1 0 3 2 1 3 105 5 1 2 2 0 97 4 1 0 0 46 0 78 
EIF[ ]	/* EndIf */
NPUSHB[ ]	/* 19 values pushed */
15 14 1 0 23 21 14 29 15 29 9 7 0 13 1 13 6 9 22 
CALL[ ]	/* CallFunction */";
};
width = 487;
}
);
note = zero;
unicode = 48;
},
{
glyphname = one;
layers = (
{
layerId = m01;
shapes = (
{
closed = 1;
nodes = (
(51,497,ls),
(47,496,o),
(47,500,qs),
(47,512,ls),
(47,519,o),
(54,522,qs),
(137,549,l),
(151,556,o),
(158,556,qs),
(164,556,ls),
(182,556,o),
(182,534,qs),
(182,23,l),
(278,23,ls),
(292,23,o),
(292,9,qs),
(292,6,ls),
(292,0,o),
(285,0,qs),
(49,0,ls),
(46,0,o),
(46,3,qs),
(46,20,ls),
(46,23,o),
(49,23,qs),
(155,23,l),
(155,533,l)
);
}
);
userData = {
assembly = "NPUSHB[ ]	/* 31 values pushed */
26 23 2 0 3 1 76 0 3 3 39 77 2 1 0 0 1 95 0 1 1 40 1 78 50 35 67 16 4 9 26 
CALL[ ]	/* CallFunction */";
};
width = 320;
}
);
note = one;
unicode = 49;
},
{
glyphname = two;
layers = (
{
layerId = m01;
shapes = (
{
closed = 1;
nodes = (
(380,23,o),
(380,9,qs),
(380,6,ls),
(380,0,o),
(373,0,qs),
(50,0,ls),
(47,0,o),
(47,3,qs),
(48,88,o),
(102,151,qs),
(135,189,o),
(218,244,qs),
(300,299,o),
(356,369,o),
(356,417,qs),
(356,473,o),
(323,506,qs),
(286,544,o),
(213,544,qs),
(146,544,o),
(83,503,qs),
(82,502,o),
(80,501,qs),
(76,498,o),
(73,498,qs),
(69,498,o),
(68,504,qs),
(67,508,ls),
(64,520,o),
(87,533,qs),
(149,567,o),
(215,567,qs),
(287,567,o),
(331,532,qs),
(382,493,o),
(382,418,qs),
(382,367,o),
(352,326,qs),
(325,289,o),
(250,238,qs),
(164,180,o),
(135,151,qs),
(80,95,o),
(73,23,q),
(366,23,ls)
);
}
);
userData = {
assembly = "MPPEM[ ]	/* MeasurePixelPerEm */
PUSHB[ ]	/* 1 value pushed */
36 
LT[ ]	/* LessThan */
IF[ ]	/* If */
NPUSHB[ ]	/* 30 values pushed */
0 1 2 4 2 1 4 128 0 2 2 0 97 0 0 0 39 77 5 1 4 4 3 95 0 3 3 40 3 78 
ELSE[ ]	/* Else */
NPUSHB[ ]	/* 28 values pushed */
0 1 2 4 2 1 4 128 0 0 0 2 1 0 2 105 5 1 4 4 3 95 0 3 3 40 3 78 
EIF[ ]	/* EndIf */
NPUSHB[ ]	/* 13 values pushed */
0 0 0 44 0 43 74 36 37 43 6 9 26 
CALL[ ]	/* CallFunction */";
};
width = 442;
}
);
note = two;
unicode = 50;
},
{
glyphname = three;
layers = (
{
layerId = m01;
shapes = (
{
closed = 1;
nodes = (
(329,256,qs),
(372,214,o),
(372,152,qs),
(372,83,o),
(332,40,qs),
(286,-10,o),
(199,-10,qs),
(126,-10,o),
(77,30,qs),
(33,68,o),
(33,104,qs),
(33,120,o),
(42,120,qs),
(49,120,o),
(52,111,qs),
(64,67,o),
(143,13,o),
(196,13,qs),
(269,13,o),
(307,48,qs),
(346,84,o),
(346,151,qs),
(346,208,o),
(311,244,qs),
(271,283,o),
(206,283,qs),
(117,283,ls),
(104,283,o),
(104,297,qs),
(104,300,ls),
(104,306,o),
(111,306,qs),
(210,306,ls),
(239,306,o),
(273,324,qs),
(334,356,o),
(334,424,qs),
(334,477,o),
(302,508,qs),
(266,544,o),
(195,544,qs),
(123,544,o),
(60,503,qs),
(59,502,o),
(57,501,qs),
(53,498,o),
(50,498,qs),
(47,498,o),
(45,504,qs),
(44,508,ls),
(41,520,o),
(64,533,qs),
(126,567,o),
(197,567,qs),
(268,567,o),
(311,534,qs),
(359,496,o),
(359,426,qs),
(359,378,o),
(306,311,o),
(257,296,q),
(298,287,o)
);
}
);
userData = {
assembly = "MPPEM[ ]	/* MeasurePixelPerEm */
PUSHB[ ]	/* 1 value pushed */
36 
LT[ ]	/* LessThan */
IF[ ]	/* If */
NPUSHB[ ]	/* 37 values pushed */
0 5 3 4 3 5 4 128 0 2 0 3 5 2 3 103 0 1 1 0 97 0 0 0 39 77 0 4 4 6 97 0 6 6 46 6 78 
ELSE[ ]	/* Else */
NPUSHB[ ]	/* 35 values pushed */
0 5 3 4 3 5 4 128 0 0 0 1 2 0 1 105 0 2 0 3 5 2 3 103 0 4 4 6 97 0 6 6 46 6 78 
EIF[ ]	/* EndIf */
NPUSHB[ ]	/* 10 values pushed */
36 35 38 51 54 43 38 7 9 29 
CALL[ ]	/* CallFunction */";
};
width = 424;
}
);
note = three;
unicode = 51;
},
{
glyphname = four;
layers = (
{
layerId = m01;
shapes = (
{
closed = 1;
nodes = (
(27,149,o),
(27,152,qs),
(27,162,ls),
(27,173,o),
(33,182,qs),
(274,544,ls),
(282,556,o),
(291,556,qs),
(299,556,ls),
(318,556,o),
(318,529,qs),
(318,172,l),
(375,172,ls),
(389,172,o),
(389,158,qs),
(389,155,ls),
(389,149,o),
(382,149,qs),
(318,149,l),
(318,6,ls),
(318,0,o),
(314,0,qs),
(298,0,ls),
(293,0,o),
(293,6,qs),
(293,149,l),
(30,149,ls)
);
},
{
closed = 1;
nodes = (
(293,532,l),
(53,172,l),
(293,172,l)
);
}
);
userData = {
assembly = "NPUSHB[ ]	/* 53 values pushed */
28 1 2 3 6 1 2 0 1 2 76 7 5 2 2 6 4 2 1 0 2 1 103 0 3 3 39 77 0 0 0 40 0 78 27 27 0 0 27 29 27 29 0 26 0 24 50 35 35 19 8 9 26 
CALL[ ]	/* CallFunction */";
};
width = 424;
}
);
note = four;
unicode = 52;
},
{
glyphname = five;
layers = (
{
layerId = m01;
shapes = (
{
closed = 1;
nodes = (
(154,344,o),
(212,344,qs),
(283,344,o),
(327,304,qs),
(377,257,o),
(377,172,qs),
(377,94,o),
(335,46,qs),
(288,-10,o),
(202,-10,qs),
(130,-10,o),
(82,31,qs),
(38,68,o),
(38,106,qs),
(38,120,o),
(47,120,qs),
(54,120,o),
(57,111,qs),
(69,67,o),
(148,13,o),
(199,13,qs),
(266,13,o),
(305,49,qs),
(351,90,o),
(351,168,qs),
(351,235,o),
(319,275,qs),
(282,321,o),
(211,321,qs),
(153,321,o),
(82,294,qs),
(73,290,o),
(73,301,qs),
(73,553,ls),
(73,556,o),
(76,556,qs),
(330,556,ls),
(344,556,o),
(344,542,qs),
(344,539,ls),
(344,533,o),
(337,533,qs),
(99,533,l),
(99,324,l)
);
}
);
userData = {
assembly = "PUSHB[ ]	/* 6 values pushed */
43 1 2 6 1 76 
MPPEM[ ]	/* MeasurePixelPerEm */
PUSHB[ ]	/* 1 value pushed */
25 
LT[ ]	/* LessThan */
IF[ ]	/* If */
NPUSHB[ ]	/* 39 values pushed */
0 4 2 3 2 4 3 128 0 0 0 1 95 0 1 1 39 77 0 2 2 6 97 0 6 6 42 77 0 3 3 5 97 0 5 5 46 5 78 
ELSE[ ]	/* Else */
NPUSHB[ ]	/* 37 values pushed */
0 4 2 3 2 4 3 128 0 6 0 2 4 6 2 105 0 0 0 1 95 0 1 1 39 77 0 3 3 5 97 0 5 5 46 5 78 
EIF[ ]	/* EndIf */
NPUSHB[ ]	/* 10 values pushed */
38 36 35 38 38 35 32 7 9 29 
CALL[ ]	/* CallFunction */";
};
width = 431;
}
);
note = five;
unicode = 53;
},
{
glyphname = six;
layers = (
{
layerId = m01;
shapes = (
{
closed = 1;
nodes = (
(170,348,o),
(232,348,qs),
(295,348,o),
(338,305,qs),
(388,257,o),
(388,176,qs),
(388,97,o),
(348,47,qs),
(302,-10,o),
(220,-10,qs),
(150,-10,o),
(105,33,qs),
(54,82,o),
(54,167,qs),
(54,206,o),
(81,280,o),
(118,344,qs),
(247,558,ls),
(252,567,o),
(257,567,qs),
(266,567,o),
(267,556,qs),
(268,543,o),
(257,526,qs),
(133,319,l)
);
},
{
closed = 1;
nodes = (
(319,49,qs),
(362,92,o),
(362,169,qs),
(362,237,o),
(330,278,qs),
(294,325,o),
(225,325,qs),
(160,325,o),
(120,282,qs),
(80,238,o),
(80,169,qs),
(80,102,o),
(113,60,qs),
(151,12,o),
(221,12,qs),
(281,12,o)
);
}
);
userData = {
assembly = "PUSHB[ ]	/* 6 values pushed */
24 1 3 4 1 76 
MPPEM[ ]	/* MeasurePixelPerEm */
PUSHB[ ]	/* 1 value pushed */
34 
LT[ ]	/* LessThan */
IF[ ]	/* If */
NPUSHB[ ]	/* 27 values pushed */
0 0 0 39 77 0 4 4 2 97 0 2 2 42 77 5 1 3 3 1 97 0 1 1 46 1 78 
ELSE[ ]	/* Else */
MPPEM[ ]	/* MeasurePixelPerEm */
PUSHB[ ]	/* 1 value pushed */
36 
LT[ ]	/* LessThan */
IF[ ]	/* If */
NPUSHB[ ]	/* 25 values pushed */
0 2 0 4 3 2 4 105 0 0 0 39 77 5 1 3 3 1 97 0 1 1 46 1 78 
ELSE[ ]	/* Else */
NPUSHB[ ]	/* 25 values pushed */
0 0 2 0 133 0 2 0 4 3 2 4 105 5 1 3 3 1 97 0 1 1 46 1 78 
EIF[ ]	/* EndIf */
EIF[ ]	/* EndIf */
NPUSHB[ ]	/* 14 values pushed */
26 25 34 32 25 40 26 40 38 41 19 6 9 25 
CALL[ ]	/* CallFunction */";
};
width = 433;
}
);
note = six;
unicode = 54;
},
{
glyphname = seven;
layers = (
{
layerId = m01;
shapes = (
{
closed = 1;
nodes = (
(35,533,o),
(35,536,qs),
(35,553,ls),
(35,556,o),
(38,556,qs),
(352,556,ls),
(372,556,o),
(372,539,qs),
(372,538,ls),
(372,528,o),
(361,503,qs),
(131,8,ls),
(128,0,o),
(118,0,qs),
(104,0,ls),
(99,0,o),
(103,5,q),
(350,533,l),
(38,533,ls)
);
}
);
userData = {
assembly = "NPUSHB[ ]	/* 28 values pushed */
3 1 2 2 1 95 0 1 1 39 77 0 0 0 40 0 78 0 0 0 18 0 16 38 50 4 9 24 
CALL[ ]	/* CallFunction */";
};
width = 422;
}
);
note = seven;
unicode = 55;
},
{
glyphname = eight;
layers = (
{
layerId = m01;
shapes = (
{
closed = 1;
nodes = (
(65,424,qs),
(65,482,o),
(102,522,qs),
(145,567,o),
(216,567,qs),
(278,567,o),
(319,532,qs),
(367,491,o),
(367,424,qs),
(367,332,o),
(274,297,q),
(325,280,o),
(386,201,o),
(386,151,qs),
(386,86,o),
(346,42,qs),
(298,-11,o),
(216,-11,qs),
(144,-11,o),
(98,30,qs),
(46,76,o),
(46,151,qs),
(46,201,o),
(107,280,o),
(158,297,q),
(65,332,o)
);
},
{
closed = 1;
nodes = (
(123,343,qs),
(160,308,o),
(216,308,qs),
(265,308,o),
(300,335,qs),
(343,368,o),
(343,422,qs),
(343,472,o),
(315,504,qs),
(280,544,o),
(216,544,qs),
(160,544,o),
(126,513,qs),
(89,480,o),
(89,422,qs),
(89,375,o)
);
},
{
closed = 1;
nodes = (
(106,55,qs),
(146,12,o),
(216,12,qs),
(277,12,o),
(316,46,qs),
(360,84,o),
(360,153,qs),
(360,206,o),
(324,243,qs),
(283,285,o),
(216,285,qs),
(158,285,o),
(118,252,qs),
(72,214,o),
(72,153,qs),
(72,93,o)
);
}
);
userData = {
assembly = "PUSHB[ ]	/* 6 values pushed */
14 1 4 3 1 76 
MPPEM[ ]	/* MeasurePixelPerEm */
PUSHB[ ]	/* 1 value pushed */
36 
LT[ ]	/* LessThan */
IF[ ]	/* If */
NPUSHB[ ]	/* 29 values pushed */
0 3 0 4 5 3 4 105 0 2 2 1 97 0 1 1 39 77 0 5 5 0 97 0 0 0 46 0 78 
ELSE[ ]	/* Else */
NPUSHB[ ]	/* 27 values pushed */
0 1 0 2 3 1 2 105 0 3 0 4 5 3 4 105 0 5 5 0 97 0 0 0 46 0 78 
EIF[ ]	/* EndIf */
NPUSHB[ ]	/* 9 values pushed */
38 38 38 40 43 38 6 9 28 
CALL[ ]	/* CallFunction */";
};
width = 431;
}
);
note = eight;
unicode = 56;
},
{
glyphname = nine;
layers = (
{
layerId = m01;
shapes = (
{
closed = 1;
nodes = (
(264,209,o),
(205,209,qs),
(142,209,o),
(98,252,qs),
(46,302,o),
(46,384,qs),
(46,461,o),
(87,510,qs),
(135,567,o),
(217,567,qs),
(286,567,o),
(330,524,qs),
(380,475,o),
(380,389,qs),
(380,350,o),
(353,275,o),
(315,213,qs),
(187,-1,ls),
(182,-10,o),
(177,-10,qs),
(167,-10,o),
(167,14,o),
(177,31,qs),
(300,238,l)
);
},
{
closed = 1;
nodes = (
(315,274,qs),
(354,318,o),
(354,388,qs),
(354,455,o),
(323,497,qs),
(286,544,o),
(216,544,qs),
(156,544,o),
(117,507,qs),
(72,464,o),
(72,388,qs),
(72,318,o),
(104,278,qs),
(141,232,o),
(212,232,qs),
(277,232,o)
);
}
);
userData = {
assembly = "PUSHB[ ]	/* 6 values pushed */
23 1 3 4 1 76 
MPPEM[ ]	/* MeasurePixelPerEm */
PUSHB[ ]	/* 1 value pushed */
36 
LT[ ]	/* LessThan */
IF[ ]	/* If */
NPUSHB[ ]	/* 25 values pushed */
5 1 3 0 2 0 3 2 105 0 4 4 1 97 0 1 1 39 77 0 0 0 46 0 78 
ELSE[ ]	/* Else */
NPUSHB[ ]	/* 23 values pushed */
0 1 0 4 3 1 4 105 5 1 3 0 2 0 3 2 105 0 0 0 46 0 78 
EIF[ ]	/* EndIf */
NPUSHB[ ]	/* 14 values pushed */
25 24 33 31 24 39 25 39 38 41 18 6 9 25 
CALL[ ]	/* CallFunction */";
};
width = 433;
}
);
note = nine;
unicode = 57;
},
{
glyphname = colon;
layers = (
{
layerId = m01;
shapes = (
{
closed = 1;
nodes = (
(114,221,o),
(114,208,qs),
(114,196,o),
(96,177,o),
(84,177,qs),
(71,177,o),
(53,196,o),
(53,208,qs),
(53,221,o),
(71,240,o),
(84,240,qs),
(96,240,o)
);
},
{
closed = 1;
nodes = (
(114,26,o),
(114,13,qs),
(114,0,o),
(96,-18,o),
(84,-18,qs),
(71,-18,o),
(53,0,o),
(53,13,qs),
(53,26,o),
(71,44,o),
(84,44,qs),
(96,44,o)
);
}
);
userData = {
assembly = "MPPEM[ ]	/* MeasurePixelPerEm */
PUSHB[ ]	/* 1 value pushed */
49 
LT[ ]	/* LessThan */
IF[ ]	/* If */
NPUSHB[ ]	/* 21 values pushed */
4 1 0 0 1 2 0 1 105 5 1 2 2 3 97 0 3 3 46 3 78 
ELSE[ ]	/* Else */
NPUSHB[ ]	/* 27 values pushed */
4 1 0 0 1 2 0 1 105 5 1 2 3 3 2 89 5 1 2 2 3 97 0 3 2 3 81 
EIF[ ]	/* EndIf */
NPUSHB[ ]	/* 19 values pushed */
13 12 1 0 19 17 12 23 13 23 7 5 0 11 1 11 6 9 22 
CALL[ ]	/* CallFunction */";
};
width = 167;
}
);
note = colon;
unicode = 58;
},
{
glyphname = semicolon;
layers = (
{
layerId = m01;
shapes = (
{
closed = 1;
nodes = (
(58,196,o),
(58,209,qs),
(58,221,o),
(76,239,o),
(89,239,qs),
(101,239,o),
(119,221,o),
(119,209,qs),
(119,196,o),
(101,177,o),
(89,177,qs),
(76,177,o)
);
},
{
closed = 1;
nodes = (
(58,16,qs),
(58,45,o),
(89,45,qs),
(119,45,o),
(119,12,qs),
(119,-13,o),
(88,-73,o),
(64,-94,qs),
(62,-96,o),
(59,-93,q),
(59,-92,l),
(48,-82,o),
(60,-64,qs),
(62,-61,o),
(63,-59,qs),
(64,-58,o),
(65,-55,q),
(80,-31,o),
(84,-14,q),
(58,-10,o)
);
}
);
userData = {
assembly = "NPUSHB[ ]	/* 35 values pushed */
0 2 0 2 134 0 1 0 0 1 89 0 1 1 0 97 3 1 0 1 0 81 1 0 29 27 7 5 0 11 1 11 4 9 22 
CALL[ ]	/* CallFunction */";
};
width = 167;
}
);
note = semicolon;
unicode = 59;
},
{
glyphname = less;
layers = (
{
layerId = m01;
shapes = (
{
closed = 1;
nodes = (
(397,135,o),
(397,118,qs),
(397,117,ls),
(397,110,o),
(392,112,qs),
(52,259,ls),
(46,262,o),
(46,268,qs),
(46,272,ls),
(46,279,o),
(52,282,qs),
(392,424,l),
(397,427,o),
(397,421,qs),
(397,411,ls),
(397,403,o),
(387,398,qs),
(78,271,l),
(374,144,ls)
);
}
);
userData = {
assembly = "PUSHB[ ]	/* 4 values pushed */
14 5 1 50 
CALL[ ]	/* CallFunction */";
};
width = 450;
}
);
note = less;
unicode = 60;
},
{
glyphname = equal;
layers = (
{
layerId = m01;
shapes = (
{
closed = 1;
nodes = (
(46,344,o),
(46,347,qs),
(46,364,ls),
(46,367,o),
(49,367,qs),
(328,367,ls),
(342,367,o),
(342,353,qs),
(342,350,ls),
(342,344,o),
(335,344,qs),
(49,344,ls)
);
},
{
closed = 1;
nodes = (
(46,172,o),
(46,175,qs),
(46,192,ls),
(46,195,o),
(49,195,qs),
(328,195,ls),
(342,195,o),
(342,181,qs),
(342,178,ls),
(342,172,o),
(335,172,qs),
(49,172,ls)
);
}
);
userData = {
assembly = "NPUSHB[ ]	/* 39 values pushed */
0 3 5 1 2 3 2 99 4 1 0 0 1 95 0 1 1 42 0 78 13 12 1 0 18 16 12 23 13 21 6 4 0 11 1 9 6 9 22 
CALL[ ]	/* CallFunction */";
};
width = 388;
}
);
note = equal;
unicode = 61;
},
{
glyphname = greater;
layers = (
{
layerId = m01;
shapes = (
{
closed = 1;
nodes = (
(54,403,o),
(54,411,qs),
(54,421,ls),
(54,426,o),
(59,424,qs),
(398,282,l),
(405,280,o),
(405,272,qs),
(405,268,ls),
(405,261,o),
(398,259,q),
(59,112,l),
(54,111,o),
(54,117,qs),
(54,118,ls),
(54,135,o),
(77,144,qs),
(373,271,l),
(63,398,l)
);
}
);
userData = {
assembly = "PUSHB[ ]	/* 4 values pushed */
14 5 1 50 
CALL[ ]	/* CallFunction */";
};
width = 450;
}
);
note = greater;
unicode = 62;
},
{
glyphname = question;
layers = (
{
layerId = m01;
shapes = (
{
closed = 1;
nodes = (
(162,227,o),
(216,271,qs),
(264,310,o),
(276,323,qs),
(317,366,o),
(317,419,qs),
(317,474,o),
(284,507,qs),
(247,544,o),
(177,544,qs),
(103,544,o),
(43,501,q),
(42,501,o),
(41,500,qs),
(36,496,o),
(33,496,qs),
(31,496,o),
(29,499,qs),
(28,501,o),
(27,503,qs),
(26,505,ls),
(19,518,o),
(47,534,qs),
(107,567,o),
(179,567,qs),
(248,567,o),
(291,533,qs),
(342,493,o),
(342,419,qs),
(342,372,o),
(313,332,qs),
(294,306,o),
(247,267,qs),
(220,244,o),
(211,237,qs),
(187,215,o),
(187,184,qs),
(187,124,ls),
(187,121,o),
(184,121,qs),
(164,121,ls),
(162,121,o),
(162,124,qs),
(162,190,ls)
);
},
{
closed = 1;
nodes = (
(162,45,o),
(174,45,qs),
(187,45,o),
(205,26,o),
(205,13,qs),
(205,0,o),
(187,-18,o),
(174,-18,qs),
(161,-18,o),
(143,0,o),
(143,13,qs),
(143,26,o)
);
}
);
userData = {
assembly = "PUSHB[ ]	/* 8 values pushed */
27 3 0 3 3 1 1 76 
MPPEM[ ]	/* MeasurePixelPerEm */
PUSHB[ ]	/* 1 value pushed */
36 
LT[ ]	/* LessThan */
IF[ ]	/* If */
NPUSHB[ ]	/* 21 values pushed */
0 1 1 0 97 0 0 0 39 77 0 3 3 2 97 0 2 2 46 2 78 
ELSE[ ]	/* Else */
MPPEM[ ]	/* MeasurePixelPerEm */
PUSHB[ ]	/* 1 value pushed */
49 
LT[ ]	/* LessThan */
IF[ ]	/* If */
NPUSHB[ ]	/* 19 values pushed */
0 0 0 1 3 0 1 105 0 3 3 2 97 0 2 2 46 2 78 
ELSE[ ]	/* Else */
NPUSHB[ ]	/* 24 values pushed */
0 0 0 1 3 0 1 105 0 3 2 2 3 89 0 3 3 2 97 0 2 3 2 81 
EIF[ ]	/* EndIf */
EIF[ ]	/* EndIf */
NPUSHB[ ]	/* 11 values pushed */
54 52 48 46 34 32 19 17 4 9 22 
CALL[ ]	/* CallFunction */";
};
width = 383;
}
);
note = question;
unicode = 63;
},
{
glyphname = at;
layers = (
{
layerId = m01;
shapes = (
{
closed = 1;
nodes = (
(516,406,o),
(538,406,qs),
(540,406,ls),
(542,406,o),
(542,403,qs),
(517,140,ls),
(515,127,o),
(515,113,qs),
(515,59,o),
(561,59,qs),
(611,59,o),
(643,106,qs),
(683,164,o),
(683,274,qs),
(683,383,o),
(618,457,qs),
(539,546,o),
(403,546,qs),
(269,546,o),
(180,461,qs),
(80,366,o),
(80,214,qs),
(80,81,o),
(152,-4,qs),
(236,-102,o),
(381,-102,qs),
(453,-102,o),
(570,-56,o),
(600,-15,qs),
(605,-9,o),
(610,-9,qs),
(617,-9,o),
(617,-17,qs),
(617,-41,o),
(566,-75,qs),
(491,-124,o),
(380,-124,qs),
(242,-124,o),
(155,-43,qs),
(54,51,o),
(54,217,qs),
(54,355,o),
(139,453,qs),
(239,568,o),
(403,568,qs),
(530,568,o),
(614,496,qs),
(708,413,o),
(708,277,qs),
(708,176,o),
(674,112,qs),
(634,38,o),
(562,38,qs),
(525,38,o),
(488,85,o),
(492,127,q),
(473,85,o),
(395,37,o),
(347,37,qs),
(284,37,o),
(245,76,qs),
(200,120,o),
(200,199,qs),
(200,279,o),
(241,338,qs),
(292,412,o),
(382,412,qs),
(429,412,o),
(497,369,o),
(509,330,q),
(514,378,ls)
);
},
{
closed = 1;
nodes = (
(462,113,qs),
(501,166,o),
(501,253,qs),
(501,389,o),
(380,389,qs),
(311,389,o),
(268,336,qs),
(226,282,o),
(226,200,qs),
(226,140,o),
(255,102,qs),
(288,59,o),
(349,59,qs),
(422,59,o)
);
}
);
userData = {
assembly = "PUSHB[ ]	/* 6 values pushed */
14 1 8 11 1 76 
MPPEM[ ]	/* MeasurePixelPerEm */
PUSHB[ ]	/* 1 value pushed */
34 
LT[ ]	/* LessThan */
IF[ ]	/* If */
NPUSHB[ ]	/* 53 values pushed */
0 9 0 11 0 9 11 128 0 5 1 6 1 5 6 128 0 0 0 11 8 0 11 105 12 10 2 8 2 1 1 5 8 1 105 0 6 0 4 6 4 101 0 7 7 3 97 0 3 3 39 7 78 
ELSE[ ]	/* Else */
NPUSHB[ ]	/* 59 values pushed */
0 9 0 11 0 9 11 128 0 5 1 6 1 5 6 128 0 3 0 7 0 3 7 105 0 0 0 11 8 0 11 105 12 10 2 8 2 1 1 5 8 1 105 0 6 4 4 6 89 0 6 6 4 97 0 4 6 4 81 
EIF[ ]	/* EndIf */
NPUSHB[ ]	/* 22 values pushed */
72 71 80 78 71 84 72 84 69 68 38 38 36 20 38 38 36 38 34 13 9 31 
CALL[ ]	/* CallFunction */";
};
width = 762;
}
);
note = at;
unicode = 64;
},
{
glyphname = A;
kernLeft = A;
kernRight = A;
layers = (
{
layerId = m01;
shapes = (
{
closed = 1;
nodes = (
(39,0,o),
(30,0,qs),
(16,0,ls),
(12,0,o),
(14,4,qs),
(220,552,ls),
(221,556,o),
(224,556,qs),
(226,556,ls),
(241,556,o),
(246,542,qs),
(460,4,l),
(463,0,o),
(458,0,qs),
(441,0,ls),
(434,0,o),
(430,8,q),
(362,182,l),
(107,182,l),
(43,8,l)
);
},
{
closed = 1;
nodes = (
(231,513,l),
(116,205,l),
(353,205,l)
);
}
);
userData = {
assembly = "NPUSHB[ ]	/* 40 values pushed */
21 1 4 2 1 76 5 1 4 0 0 1 4 0 103 0 2 2 39 77 3 1 1 1 40 1 78 20 20 20 22 20 22 23 20 34 16 6 9 26 
CALL[ ]	/* CallFunction */";
};
width = 472;
}
);
note = A;
unicode = 65;
},
{
glyphname = B;
layers = (
{
layerId = m01;
shapes = (
{
closed = 1;
nodes = (
(421,206,o),
(421,157,qs),
(421,87,o),
(383,46,qs),
(340,0,o),
(256,0,qs),
(85,0,ls),
(82,0,o),
(82,3,qs),
(82,553,ls),
(82,556,o),
(85,556,qs),
(231,556,ls),
(302,556,o),
(341,524,qs),
(386,489,o),
(386,419,qs),
(386,327,o),
(311,295,q),
(359,284,o)
);
},
{
closed = 1;
nodes = (
(303,305,o),
(331,333,qs),
(363,365,o),
(363,417,qs),
(363,533,o),
(233,533,qs),
(108,533,l),
(108,305,l),
(260,305,ls)
);
},
{
closed = 1;
nodes = (
(395,23,o),
(395,156,qs),
(395,209,o),
(362,243,qs),
(324,282,o),
(259,282,qs),
(108,282,l),
(108,23,l),
(253,23,ls)
);
}
);
userData = {
assembly = "NPUSHB[ ]	/* 51 values pushed */
6 1 3 0 4 5 3 4 103 0 2 2 0 95 0 0 0 39 77 7 1 5 5 1 95 0 1 1 40 1 78 29 29 20 20 29 37 29 36 32 30 20 28 20 27 39 67 37 8 9 25 
CALL[ ]	/* CallFunction */";
};
width = 462;
}
);
note = B;
unicode = 66;
},
{
glyphname = C;
kernLeft = C;
kernRight = C;
layers = (
{
layerId = m01;
shapes = (
{
closed = 1;
nodes = (
(136,56,qs),
(63,134,o),
(63,278,qs),
(63,402,o),
(120,479,qs),
(186,567,o),
(307,567,qs),
(380,567,o),
(448,527,qs),
(464,517,o),
(472,506,o),
(469,498,qs),
(468,495,ls),
(465,488,o),
(462,488,qs),
(459,488,o),
(454,491,qs),
(453,492,o),
(452,493,qs),
(382,544,o),
(305,544,qs),
(212,544,o),
(155,481,qs),
(89,409,o),
(89,277,qs),
(89,163,o),
(140,93,qs),
(197,12,o),
(303,12,qs),
(359,12,o),
(441,63,o),
(461,109,qs),
(464,118,o),
(470,118,qs),
(479,118,o),
(479,106,qs),
(479,77,o),
(444,42,qs),
(391,-11,o),
(301,-11,qs),
(200,-11,o)
);
}
);
userData = {
assembly = "MPPEM[ ]	/* MeasurePixelPerEm */
PUSHB[ ]	/* 1 value pushed */
36 
LT[ ]	/* LessThan */
IF[ ]	/* If */
NPUSHB[ ]	/* 30 values pushed */
0 1 3 2 3 1 2 128 0 3 3 4 97 0 4 4 39 77 0 2 2 0 97 5 1 0 0 46 0 78 
ELSE[ ]	/* Else */
NPUSHB[ ]	/* 28 values pushed */
0 1 3 2 3 1 2 128 0 4 0 3 1 4 3 105 0 2 2 0 97 5 1 0 0 46 0 78 
EIF[ ]	/* EndIf */
NPUSHB[ ]	/* 17 values pushed */
1 0 34 32 20 18 12 10 6 5 0 40 1 40 6 9 22 
CALL[ ]	/* CallFunction */";
};
width = 505;
}
);
note = C;
unicode = 67;
},
{
glyphname = D;
layers = (
{
layerId = m01;
shapes = (
{
closed = 1;
nodes = (
(82,0,o),
(82,3,qs),
(82,553,ls),
(82,556,o),
(85,556,qs),
(224,556,ls),
(483,556,o),
(483,286,qs),
(483,0,o),
(223,0,qs),
(85,0,ls)
);
},
{
closed = 1;
nodes = (
(457,23,o),
(457,284,qs),
(457,403,o),
(407,463,qs),
(351,533,o),
(224,533,qs),
(108,533,l),
(108,23,l),
(224,23,ls)
);
}
);
userData = {
assembly = "NPUSHB[ ]	/* 42 values pushed */
0 2 2 1 95 0 1 1 39 77 5 1 3 3 0 95 4 1 0 0 40 0 78 11 11 1 0 11 19 11 18 14 12 5 3 0 10 1 8 6 9 22 
CALL[ ]	/* CallFunction */";
};
width = 547;
}
);
note = D;
unicode = 68;
},
{
glyphname = E;
kernRight = E;
layers = (
{
layerId = m01;
shapes = (
{
closed = 1;
nodes = (
(371,23,o),
(371,9,qs),
(371,6,ls),
(371,0,o),
(365,0,qs),
(85,0,ls),
(82,0,o),
(82,3,qs),
(82,553,ls),
(82,556,o),
(85,556,qs),
(348,556,ls),
(361,556,o),
(361,542,qs),
(361,539,ls),
(361,533,o),
(355,533,qs),
(108,533,l),
(108,285,l),
(328,285,ls),
(341,285,o),
(341,271,qs),
(341,268,ls),
(341,262,o),
(335,262,qs),
(108,262,l),
(108,23,l),
(358,23,ls)
);
}
);
userData = {
assembly = "NPUSHB[ ]	/* 58 values pushed */
12 1 2 3 4 1 0 1 24 1 4 5 3 76 0 1 0 0 5 1 0 103 0 2 2 3 95 0 3 3 39 77 6 1 5 5 4 95 0 4 4 40 4 78 0 0 0 27 0 26 51 36 17 36 17 7 9 27 
CALL[ ]	/* CallFunction */";
};
width = 408;
}
);
note = E;
unicode = 69;
},
{
glyphname = F;
layers = (
{
layerId = m01;
shapes = (
{
closed = 1;
nodes = (
(108,0,o),
(105,0,qs),
(85,0,ls),
(82,0,o),
(82,3,qs),
(82,553,ls),
(82,556,o),
(85,556,qs),
(348,556,ls),
(361,556,o),
(361,542,qs),
(361,539,ls),
(361,533,o),
(355,533,qs),
(108,533,l),
(108,285,l),
(328,285,ls),
(341,285,o),
(341,271,qs),
(341,268,ls),
(341,262,o),
(335,262,qs),
(108,262,l),
(108,3,ls)
);
}
);
userData = {
assembly = "NPUSHB[ ]	/* 40 values pushed */
11 1 2 3 3 1 0 1 2 76 21 18 2 0 73 0 1 0 0 1 0 99 0 2 2 3 95 0 3 3 39 2 78 36 17 36 16 4 9 26 
CALL[ ]	/* CallFunction */";
};
width = 392;
}
);
note = F;
unicode = 70;
},
{
glyphname = G;
layers = (
{
layerId = m01;
shapes = (
{
closed = 1;
nodes = (
(291,248,ls),
(277,248,o),
(277,262,qs),
(277,266,ls),
(277,271,o),
(284,271,qs),
(482,271,ls),
(486,271,o),
(486,268,qs),
(486,97,ls),
(486,70,o),
(470,57,qs),
(395,-10,o),
(302,-10,qs),
(198,-10,o),
(135,57,qs),
(63,134,o),
(63,278,qs),
(63,401,o),
(121,478,qs),
(188,567,o),
(307,567,qs),
(384,567,o),
(454,527,qs),
(480,512,o),
(475,498,qs),
(474,495,ls),
(471,488,o),
(468,488,qs),
(465,488,o),
(461,491,qs),
(459,492,o),
(458,493,qs),
(387,544,o),
(305,544,qs),
(212,544,o),
(155,481,qs),
(89,409,o),
(89,277,qs),
(89,162,o),
(139,92,qs),
(196,13,o),
(303,13,qs),
(398,13,o),
(460,81,q),
(460,248,l)
);
}
);
userData = {
assembly = "NPUSHB[ ]	/* 10 values pushed */
36 1 5 4 0 1 0 5 2 76 
MPPEM[ ]	/* MeasurePixelPerEm */
PUSHB[ ]	/* 1 value pushed */
36 
LT[ ]	/* LessThan */
IF[ ]	/* If */
NPUSHB[ ]	/* 29 values pushed */
0 4 0 5 0 4 5 103 0 1 1 2 97 0 2 2 39 77 0 0 0 3 97 0 3 3 46 3 78 
ELSE[ ]	/* Else */
NPUSHB[ ]	/* 27 values pushed */
0 2 0 1 4 2 1 105 0 4 0 5 0 4 5 103 0 0 0 3 97 0 3 3 46 3 78 
EIF[ ]	/* EndIf */
NPUSHB[ ]	/* 9 values pushed */
35 38 38 43 38 33 6 9 28 
CALL[ ]	/* CallFunction */";
};
width = 548;
}
);
note = G;
unicode = 71;
},
{
glyphname = H;
layers = (
{
layerId = m01;
shapes = (
{
closed = 1;
nodes = (
(108,0,o),
(105,0,qs),
(85,0,ls),
(82,0,o),
(82,3,qs),
(82,553,ls),
(82,556,o),
(85,556,qs),
(87,556,ls),
(108,556,o),
(108,528,qs),
(108,287,l),
(408,287,l),
(408,553,ls),
(408,556,o),
(411,556,qs),
(413,556,ls),
(434,556,o),
(434,528,qs),
(434,3,ls),
(434,0,o),
(431,0,qs),
(411,0,ls),
(408,0,o),
(408,3,qs),
(408,264,l),
(108,264,l),
(108,3,ls)
);
}
);
userData = {
assembly = "NPUSHB[ ]	/* 35 values pushed */
21 13 2 2 1 1 76 25 22 5 2 4 0 73 0 2 0 0 2 0 99 3 1 1 1 39 1 78 18 20 24 16 4 9 26 
CALL[ ]	/* CallFunction */";
};
width = 517;
}
);
note = H;
unicode = 72;
},
{
glyphname = I;
kernRight = I;
layers = (
{
layerId = m01;
shapes = (
{
closed = 1;
nodes = (
(82,556,o),
(85,556,qs),
(87,556,ls),
(108,556,o),
(108,528,qs),
(108,3,ls),
(108,0,o),
(105,0,qs),
(85,0,ls),
(82,0,o),
(82,3,qs),
(82,553,ls)
);
}
);
userData = {
assembly = "NPUSHB[ ]	/* 16 values pushed */
11 3 0 3 0 73 0 0 0 39 0 78 23 1 9 23 
CALL[ ]	/* CallFunction */";
};
width = 191;
}
);
note = I;
unicode = 73;
},
{
glyphname = J;
layers = (
{
layerId = m01;
shapes = (
{
closed = 1;
nodes = (
(16,79,qs),
(21,79,o),
(25,72,q),
(39,39,o),
(70,13,o),
(93,13,qs),
(123,13,o),
(159,52,o),
(159,83,qs),
(159,553,ls),
(159,556,o),
(162,556,qs),
(164,556,ls),
(185,556,o),
(185,528,qs),
(185,87,ls),
(185,44,o),
(134,-11,o),
(95,-11,qs),
(58,-11,o),
(9,35,o),
(9,69,qs),
(9,79,o)
);
}
);
userData = {
assembly = "NPUSHB[ ]	/* 37 values pushed */
12 1 3 1 1 76 0 3 1 2 1 3 2 128 0 1 1 39 77 0 2 2 0 97 0 0 0 46 0 78 35 38 20 34 4 9 26 
CALL[ ]	/* CallFunction */";
};
width = 264;
}
);
note = J;
unicode = 74;
},
{
glyphname = K;
layers = (
{
layerId = m01;
shapes = (
{
closed = 1;
nodes = (
(108,0,o),
(105,0,qs),
(85,0,ls),
(82,0,o),
(82,3,qs),
(82,553,ls),
(82,556,o),
(85,556,qs),
(87,556,ls),
(108,556,o),
(108,528,qs),
(108,222,l),
(389,547,ls),
(397,556,o),
(407,556,qs),
(421,556,ls),
(428,556,o),
(423,551,qs),
(235,333,l),
(443,4,ls),
(446,0,o),
(440,0,qs),
(425,0,ls),
(415,0,o),
(408,10,qs),
(218,312,l),
(108,186,l),
(108,3,ls)
);
}
);
userData = {
assembly = "NPUSHB[ ]	/* 33 values pushed */
22 21 15 8 1 0 6 0 1 1 76 25 1 0 73 2 1 1 1 39 77 0 0 0 40 0 78 20 53 35 3 9 25 
CALL[ ]	/* CallFunction */";
};
width = 459;
}
);
note = K;
unicode = 75;
},
{
glyphname = L;
layers = (
{
layerId = m01;
shapes = (
{
closed = 1;
nodes = (
(331,23,o),
(331,9,qs),
(331,6,ls),
(331,0,o),
(324,0,qs),
(85,0,ls),
(82,0,o),
(82,3,qs),
(82,553,ls),
(82,556,o),
(85,556,qs),
(87,556,ls),
(108,556,o),
(108,528,qs),
(108,23,l),
(317,23,ls)
);
}
);
userData = {
assembly = "NPUSHB[ ]	/* 34 values pushed */
6 1 2 0 1 76 0 0 0 39 77 3 1 2 2 1 95 0 1 1 40 1 78 0 0 0 15 0 14 68 18 4 9 24 
CALL[ ]	/* CallFunction */";
};
width = 354;
}
);
note = L;
unicode = 76;
},
{
glyphname = M;
layers = (
{
layerId = m01;
shapes = (
{
closed = 1;
nodes = (
(495,556,o),
(497,556,qs),
(501,556,ls),
(513,556,o),
(515,541,q),
(550,3,ls),
(550,0,o),
(547,0,qs),
(527,0,ls),
(525,0,o),
(525,3,qs),
(493,488,l),
(320,3,l),
(318,0,o),
(316,0,qs),
(293,0,ls),
(290,0,o),
(289,3,qs),
(116,487,l),
(85,3,ls),
(85,0,o),
(82,0,qs),
(62,0,ls),
(59,0,o),
(59,3,qs),
(97,553,ls),
(97,556,o),
(100,556,qs),
(104,556,ls),
(116,556,o),
(120,543,qs),
(305,26,l),
(493,553,l)
);
}
);
userData = {
assembly = "NPUSHB[ ]	/* 33 values pushed */
27 21 20 13 7 5 1 0 1 76 24 10 2 1 73 2 1 0 0 39 77 0 1 1 40 1 78 27 27 50 3 9 25 
CALL[ ]	/* CallFunction */";
};
width = 610;
}
);
note = M;
unicode = 77;
},
{
glyphname = N;
kernRight = N;
layers = (
{
layerId = m01;
shapes = (
{
closed = 1;
nodes = (
(408,556,o),
(411,556,qs),
(413,556,ls),
(434,556,o),
(434,528,qs),
(434,7,ls),
(434,0,o),
(428,0,qs),
(420,0,ls),
(410,0,o),
(403,10,qs),
(108,491,l),
(108,3,ls),
(108,0,o),
(105,0,qs),
(85,0,ls),
(82,0,o),
(82,3,qs),
(82,553,ls),
(82,556,o),
(85,556,qs),
(86,556,ls),
(98,556,o),
(111,534,qs),
(408,49,l),
(408,553,ls)
);
}
);
userData = {
assembly = "NPUSHB[ ]	/* 33 values pushed */
25 19 13 7 6 0 6 1 0 1 76 10 1 1 73 2 1 0 0 39 77 0 1 1 40 1 78 20 44 18 3 9 25 
CALL[ ]	/* CallFunction */";
};
width = 517;
}
);
note = N;
unicode = 78;
},
{
glyphname = O;
kernLeft = O;
kernRight = O;
layers = (
{
layerId = m01;
shapes = (
{
closed = 1;
nodes = (
(128,58,qs),
(63,132,o),
(63,277,qs),
(63,403,o),
(114,478,qs),
(174,567,o),
(293,567,qs),
(397,567,o),
(457,498,qs),
(522,422,o),
(522,277,qs),
(522,151,o),
(473,78,qs),
(414,-10,o),
(293,-10,qs),
(188,-10,o)
);
},
{
closed = 1;
nodes = (
(431,67,qs),
(496,135,o),
(496,277,qs),
(496,402,o),
(445,471,qs),
(392,544,o),
(293,544,qs),
(207,544,o),
(155,488,qs),
(89,419,o),
(89,277,qs),
(89,152,o),
(140,84,qs),
(194,13,o),
(293,13,qs),
(379,13,o)
);
}
);
userData = {
assembly = "MPPEM[ ]	/* MeasurePixelPerEm */
PUSHB[ ]	/* 1 value pushed */
36 
LT[ ]	/* LessThan */
IF[ ]	/* If */
NPUSHB[ ]	/* 23 values pushed */
0 3 3 1 97 0 1 1 39 77 5 1 2 2 0 97 4 1 0 0 46 0 78 
ELSE[ ]	/* Else */
NPUSHB[ ]	/* 21 values pushed */
0 1 0 3 2 1 3 105 5 1 2 2 0 97 4 1 0 0 46 0 78 
EIF[ ]	/* EndIf */
NPUSHB[ ]	/* 19 values pushed */
17 16 1 0 25 23 16 31 17 31 9 7 0 15 1 15 6 9 22 
CALL[ ]	/* CallFunction */";
};
width = 586;
}
);
note = O;
unicode = 79;
},
{
glyphname = P;
layers = (
{
layerId = m01;
shapes = (
{
closed = 1;
nodes = (
(108,0,o),
(105,0,qs),
(85,0,ls),
(82,0,o),
(82,3,qs),
(82,553,ls),
(82,556,o),
(85,556,qs),
(263,556,ls),
(335,556,o),
(380,519,qs),
(433,475,o),
(433,393,qs),
(433,318,o),
(395,275,qs),
(351,226,o),
(265,226,qs),
(108,226,l),
(108,3,ls)
);
},
{
closed = 1;
nodes = (
(320,248,o),
(356,274,qs),
(407,310,o),
(407,393,qs),
(407,453,o),
(374,491,qs),
(336,533,o),
(267,533,qs),
(108,533,l),
(108,248,l),
(263,248,ls)
);
}
);
userData = {
assembly = "NPUSHB[ ]	/* 36 values pushed */
16 13 2 0 73 4 1 3 0 0 3 0 99 0 2 2 1 95 0 1 1 39 2 78 19 19 19 29 19 28 42 38 32 5 9 25 
CALL[ ]	/* CallFunction */";
};
width = 475;
}
);
note = P;
unicode = 80;
},
{
glyphname = Q;
layers = (
{
layerId = m01;
shapes = (
{
closed = 1;
nodes = (
(122,66,qs),
(63,140,o),
(63,277,qs),
(63,403,o),
(114,478,qs),
(174,567,o),
(293,567,qs),
(397,567,o),
(457,498,qs),
(522,422,o),
(522,277,qs),
(522,152,o),
(474,79,qs),
(417,-8,o),
(299,-10,q),
(332,-83,o),
(394,-83,qs),
(473,-83,o),
(496,-17,qs),
(500,-8,o),
(506,-8,qs),
(514,-8,o),
(514,-20,qs),
(514,-49,o),
(487,-74,qs),
(452,-106,o),
(394,-106,qs),
(302,-106,o),
(270,-9,q),
(175,-1,o)
);
},
{
closed = 1;
nodes = (
(431,67,qs),
(496,135,o),
(496,277,qs),
(496,402,o),
(445,471,qs),
(392,544,o),
(293,544,qs),
(207,544,o),
(155,488,qs),
(89,419,o),
(89,277,qs),
(89,152,o),
(140,84,qs),
(194,13,o),
(293,13,qs),
(379,13,o)
);
}
);
userData = {
assembly = "MPPEM[ ]	/* MeasurePixelPerEm */
PUSHB[ ]	/* 1 value pushed */
36 
LT[ ]	/* LessThan */
IF[ ]	/* If */
NPUSHB[ ]	/* 37 values pushed */
0 1 5 3 5 1 3 128 0 2 0 0 2 0 101 0 6 6 4 97 0 4 4 39 77 7 1 5 5 3 97 0 3 3 49 3 78 
ELSE[ ]	/* Else */
NPUSHB[ ]	/* 35 values pushed */
0 1 5 3 5 1 3 128 0 4 0 6 5 4 6 105 0 2 0 0 2 0 101 7 1 5 5 3 97 0 3 3 49 3 78 
EIF[ ]	/* EndIf */
NPUSHB[ ]	/* 16 values pushed */
31 30 39 37 30 45 31 45 38 17 35 20 33 8 9 27 
CALL[ ]	/* CallFunction */";
};
width = 586;
}
);
note = Q;
unicode = 81;
},
{
glyphname = R;
layers = (
{
layerId = m01;
shapes = (
{
closed = 1;
nodes = (
(108,0,o),
(105,0,qs),
(85,0,ls),
(82,0,o),
(82,3,qs),
(82,553,ls),
(82,556,o),
(85,556,qs),
(263,556,ls),
(335,556,o),
(380,519,qs),
(433,475,o),
(433,393,qs),
(433,256,o),
(313,231,q),
(444,4,ls),
(446,0,o),
(441,0,qs),
(424,0,ls),
(417,0,o),
(412,8,qs),
(286,227,l),
(279,226,o),
(265,226,qs),
(108,226,l),
(108,3,ls)
);
},
{
closed = 1;
nodes = (
(320,248,o),
(356,274,qs),
(407,310,o),
(407,393,qs),
(407,454,o),
(374,491,qs),
(336,533,o),
(267,533,qs),
(108,533,l),
(108,248,l),
(263,248,ls)
);
}
);
userData = {
assembly = "NPUSHB[ ]	/* 52 values pushed */
10 1 0 4 20 1 1 0 2 76 23 1 1 73 5 1 4 0 0 1 4 0 103 0 3 3 2 95 0 2 2 39 77 0 1 1 40 1 78 26 26 26 36 26 35 42 40 35 32 6 9 26 
CALL[ ]	/* CallFunction */";
};
width = 490;
}
);
note = R;
unicode = 82;
},
{
glyphname = S;
kernLeft = S;
kernRight = S;
layers = (
{
layerId = m01;
shapes = (
{
closed = 1;
nodes = (
(36,119,qs),
(43,119,o),
(46,109,qs),
(59,68,o),
(99,42,qs),
(144,12,o),
(207,12,qs),
(274,12,o),
(315,44,qs),
(360,80,o),
(360,149,qs),
(360,190,o),
(328,219,qs),
(299,245,o),
(219,275,qs),
(130,307,o),
(101,328,qs),
(45,365,o),
(45,424,qs),
(45,483,o),
(88,522,qs),
(136,567,o),
(214,567,qs),
(287,567,o),
(355,527,qs),
(371,517,o),
(379,506,o),
(376,498,qs),
(375,495,ls),
(372,488,o),
(369,488,qs),
(366,488,o),
(362,491,qs),
(360,492,o),
(359,493,qs),
(288,544,o),
(214,544,qs),
(155,544,o),
(116,516,qs),
(71,483,o),
(71,426,qs),
(71,384,o),
(104,356,qs),
(132,331,o),
(213,301,qs),
(300,270,o),
(331,249,qs),
(386,211,o),
(386,150,qs),
(386,82,o),
(344,39,qs),
(296,-11,o),
(209,-11,qs),
(129,-11,o),
(76,29,qs),
(27,66,o),
(27,103,qs),
(27,119,o)
);
}
);
userData = {
assembly = "MPPEM[ ]	/* MeasurePixelPerEm */
PUSHB[ ]	/* 1 value pushed */
36 
LT[ ]	/* LessThan */
IF[ ]	/* If */
NPUSHB[ ]	/* 29 values pushed */
0 4 1 3 1 4 3 128 0 1 1 2 97 0 2 2 39 77 0 3 3 0 97 0 0 0 46 0 78 
ELSE[ ]	/* Else */
NPUSHB[ ]	/* 27 values pushed */
0 4 1 3 1 4 3 128 0 2 0 1 4 2 1 105 0 3 3 0 97 0 0 0 46 0 78 
EIF[ ]	/* EndIf */
PUSHB[ ]	/* 8 values pushed */
36 46 44 46 35 5 9 27 
CALL[ ]	/* CallFunction */";
};
width = 422;
}
);
note = S;
unicode = 83;
},
{
glyphname = T;
layers = (
{
layerId = m01;
shapes = (
{
closed = 1;
nodes = (
(19,533,o),
(19,536,qs),
(19,553,ls),
(19,556,o),
(22,556,qs),
(347,556,ls),
(361,556,o),
(361,542,qs),
(361,539,ls),
(361,533,o),
(354,533,qs),
(203,533,l),
(203,3,ls),
(203,0,o),
(200,0,qs),
(180,0,ls),
(177,0,o),
(177,3,qs),
(177,533,l),
(22,533,ls)
);
}
);
userData = {
assembly = "NPUSHB[ ]	/* 29 values pushed */
4 1 2 0 73 3 2 2 0 0 1 95 0 1 1 39 0 78 0 0 0 19 0 17 35 39 4 9 24 
CALL[ ]	/* CallFunction */";
};
width = 379;
}
);
note = T;
unicode = 84;
},
{
glyphname = U;
kernLeft = U;
kernRight = U;
layers = (
{
layerId = m01;
shapes = (
{
closed = 1;
nodes = (
(78,194,qs),
(78,553,ls),
(78,556,o),
(81,556,qs),
(82,556,ls),
(104,556,o),
(104,528,qs),
(104,191,ls),
(104,13,o),
(255,13,qs),
(323,13,o),
(361,53,qs),
(405,99,o),
(405,192,qs),
(405,553,ls),
(405,556,o),
(407,556,qs),
(410,556,ls),
(431,556,o),
(431,528,qs),
(431,197,ls),
(431,103,o),
(391,50,qs),
(345,-10,o),
(254,-10,qs),
(78,-10,o)
);
}
);
userData = {
assembly = "NPUSHB[ ]	/* 40 values pushed */
23 10 2 2 1 1 76 3 1 1 1 39 77 0 2 2 0 97 4 1 0 0 46 0 78 1 0 20 19 16 14 7 6 0 25 1 25 5 9 22 
CALL[ ]	/* CallFunction */";
};
width = 508;
}
);
note = U;
unicode = 85;
},
{
glyphname = V;
layers = (
{
layerId = m01;
shapes = (
{
closed = 1;
nodes = (
(402,556,o),
(411,556,qs),
(423,556,ls),
(428,556,o),
(427,551,q),
(239,4,l),
(237,0,o),
(233,0,qs),
(222,0,ls),
(218,0,o),
(217,4,qs),
(20,551,ls),
(18,556,o),
(24,556,qs),
(28,556,ls),
(46,556,o),
(54,534,qs),
(228,45,l),
(399,547,ls)
);
}
);
userData = {
assembly = "NPUSHB[ ]	/* 18 values pushed */
2 1 0 0 39 77 0 1 1 40 1 78 37 20 50 3 9 25 
CALL[ ]	/* CallFunction */";
};
width = 444;
}
);
note = V;
unicode = 86;
},
{
glyphname = W;
layers = (
{
layerId = m01;
shapes = (
{
closed = 1;
nodes = (
(371,556,o),
(376,556,qs),
(378,556,ls),
(394,556,o),
(401,534,qs),
(544,46,l),
(703,547,ls),
(706,556,o),
(715,556,qs),
(728,556,ls),
(734,556,o),
(732,551,qs),
(555,4,ls),
(554,0,o),
(549,0,qs),
(538,0,ls),
(534,0,o),
(533,4,qs),
(383,511,l),
(224,4,l),
(222,0,o),
(218,0,qs),
(208,0,ls),
(204,0,o),
(203,4,qs),
(35,551,ls),
(33,556,o),
(39,556,qs),
(42,556,ls),
(61,556,o),
(68,534,qs),
(214,46,l),
(369,548,ls)
);
}
);
userData = {
assembly = "NPUSHB[ ]	/* 29 values pushed */
26 13 2 1 0 1 76 4 3 2 0 0 39 77 2 1 1 1 40 1 78 52 52 22 20 50 5 9 27 
CALL[ ]	/* CallFunction */";
};
width = 761;
}
);
note = W;
unicode = 87;
},
{
glyphname = X;
layers = (
{
layerId = m01;
shapes = (
{
closed = 1;
nodes = (
(40,0,o),
(33,0,qs),
(18,0,ls),
(14,0,o),
(16,4,qs),
(209,299,l),
(42,552,ls),
(40,556,o),
(44,556,qs),
(52,556,ls),
(68,556,o),
(78,541,qs),
(226,317,l),
(384,548,ls),
(389,556,o),
(397,556,qs),
(412,556,ls),
(416,556,o),
(413,552,qs),
(242,300,l),
(436,4,ls),
(438,0,o),
(433,0,qs),
(417,0,ls),
(409,0,o),
(404,8,qs),
(226,280,l),
(46,8,ls)
);
}
);
userData = {
assembly = "NPUSHB[ ]	/* 29 values pushed */
22 21 14 7 4 0 1 1 76 2 1 1 1 39 77 3 1 0 0 40 0 78 23 36 53 34 4 9 26 
CALL[ ]	/* CallFunction */";
};
width = 446;
}
);
note = X;
unicode = 88;
},
{
glyphname = Y;
kernLeft = Y;
kernRight = Y;
layers = (
{
layerId = m01;
shapes = (
{
closed = 1;
nodes = (
(14,556,o),
(19,556,qs),
(23,556,ls),
(41,556,o),
(54,533,qs),
(210,247,l),
(378,547,ls),
(383,556,o),
(392,556,qs),
(404,556,ls),
(410,556,o),
(408,552,qs),
(223,223,l),
(223,3,ls),
(223,0,o),
(220,0,qs),
(200,0,ls),
(197,0,o),
(197,3,qs),
(197,223,l),
(16,552,ls)
);
}
);
userData = {
assembly = "NPUSHB[ ]	/* 20 values pushed */
14 7 4 1 0 5 0 73 1 1 0 0 39 0 78 52 42 2 9 24 
CALL[ ]	/* CallFunction */";
};
width = 421;
}
);
note = Y;
unicode = 89;
},
{
glyphname = Z;
kernLeft = Z;
kernRight = Z;
layers = (
{
layerId = m01;
shapes = (
{
closed = 1;
nodes = (
(387,23,o),
(387,9,qs),
(387,6,ls),
(387,0,o),
(382,0,qs),
(43,0,ls),
(40,0,o),
(40,3,qs),
(40,16,ls),
(40,27,o),
(47,38,qs),
(367,533,l),
(64,533,ls),
(62,533,o),
(62,536,qs),
(62,553,ls),
(62,556,o),
(64,556,qs),
(365,556,ls),
(389,556,o),
(389,536,qs),
(389,532,ls),
(389,524,o),
(377,505,qs),
(64,23,l),
(373,23,ls)
);
}
);
userData = {
assembly = "NPUSHB[ ]	/* 40 values pushed */
22 1 2 3 1 76 0 1 1 0 95 0 0 0 39 77 4 1 3 3 2 95 0 2 2 40 2 78 0 0 0 25 0 24 52 51 37 5 9 25 
CALL[ ]	/* CallFunction */";
};
width = 433;
}
);
note = Z;
unicode = 90;
},
{
glyphname = bracketleft;
layers = (
{
layerId = m01;
shapes = (
{
closed = 1;
nodes = (
(107,-144,o),
(78,-115,o),
(78,-93,qs),
(78,645,ls),
(78,667,o),
(107,696,o),
(129,696,qs),
(224,696,ls),
(226,696,o),
(226,694,qs),
(226,693,ls),
(226,673,o),
(200,673,qs),
(132,673,ls),
(104,673,o),
(104,643,qs),
(104,-91,ls),
(104,-121,o),
(132,-121,qs),
(200,-121,ls),
(226,-121,o),
(226,-142,qs),
(226,-143,ls),
(226,-144,o),
(224,-144,qs),
(129,-144,ls)
);
}
);
userData = {
assembly = "MPPEM[ ]	/* MeasurePixelPerEm */
PUSHB[ ]	/* 1 value pushed */
25 
LT[ ]	/* LessThan */
IF[ ]	/* If */
NPUSHB[ ]	/* 20 values pushed */
0 2 0 1 0 2 1 103 0 0 0 3 95 4 1 3 3 44 3 78 
ELSE[ ]	/* Else */
NPUSHB[ ]	/* 25 values pushed */
0 2 0 1 0 2 1 103 0 0 3 3 0 87 0 0 0 3 95 4 1 3 0 3 79 
EIF[ ]	/* EndIf */
NPUSHB[ ]	/* 12 values pushed */
0 0 0 25 0 24 81 51 52 5 9 25 
CALL[ ]	/* CallFunction */";
};
width = 282;
}
);
note = bracketleft;
unicode = 91;
},
{
glyphname = backslash;
layers = (
{
layerId = m01;
shapes = (
{
closed = 1;
nodes = (
(1,556,o),
(7,556,qs),
(11,556,ls),
(29,556,o),
(37,534,qs),
(261,4,l),
(264,0,o),
(259,0,qs),
(245,0,ls),
(236,0,o),
(233,8,qs),
(3,551,ls)
);
}
);
userData = {
assembly = "NPUSHB[ ]	/* 16 values pushed */
0 1 1 39 77 0 0 0 40 0 78 52 33 2 9 24 
CALL[ ]	/* CallFunction */";
};
width = 261;
}
);
note = backslash;
unicode = 92;
},
{
glyphname = bracketright;
layers = (
{
layerId = m01;
shapes = (
{
closed = 1;
nodes = (
(56,-144,o),
(56,-143,qs),
(56,-142,ls),
(56,-121,o),
(83,-121,qs),
(150,-121,ls),
(178,-121,o),
(178,-91,qs),
(178,643,ls),
(178,673,o),
(150,673,qs),
(83,673,ls),
(56,673,o),
(56,693,qs),
(56,694,ls),
(56,696,o),
(58,696,qs),
(153,696,ls),
(175,696,o),
(204,667,o),
(204,645,qs),
(204,-93,ls),
(204,-115,o),
(175,-144,o),
(153,-144,qs),
(58,-144,ls)
);
}
);
userData = {
assembly = "MPPEM[ ]	/* MeasurePixelPerEm */
PUSHB[ ]	/* 1 value pushed */
23 
LT[ ]	/* LessThan */
IF[ ]	/* If */
NPUSHB[ ]	/* 20 values pushed */
0 1 0 2 3 1 2 103 0 3 3 0 95 4 1 0 0 44 0 78 
ELSE[ ]	/* Else */
NPUSHB[ ]	/* 25 values pushed */
0 1 0 2 3 1 2 103 0 3 0 0 3 87 0 3 3 0 95 4 1 0 3 0 79 
EIF[ ]	/* EndIf */
NPUSHB[ ]	/* 15 values pushed */
1 0 21 18 15 12 8 6 0 25 1 22 5 9 22 
CALL[ ]	/* CallFunction */";
};
width = 282;
}
);
note = bracketright;
unicode = 93;
},
{
glyphname = asciicircum;
layers = (
{
layerId = m01;
shapes = (
{
closed = 1;
nodes = (
(58,273,o),
(51,273,qs),
(38,273,ls),
(33,273,o),
(35,278,qs),
(174,551,ls),
(177,556,o),
(181,556,qs),
(194,556,o),
(205,534,qs),
(335,278,ls),
(338,273,o),
(332,273,qs),
(319,273,ls),
(312,273,o),
(307,282,qs),
(185,517,l),
(63,282,ls)
);
}
);
userData = {
assembly = "PUSHB[ ]	/* 2 values pushed */
6 100 
WCVTP[ ]	/* WriteCVTInPixels */
NPUSHB[ ]	/* 16 values pushed */
0 1 0 1 133 2 1 0 0 118 52 20 34 3 9 25 
CALL[ ]	/* CallFunction */
PUSHB[ ]	/* 2 values pushed */
6 0 
WCVTP[ ]	/* WriteCVTInPixels */";
};
width = 368;
}
);
note = asciicircum;
unicode = 94;
},
{
glyphname = underscore;
layers = (
{
layerId = m01;
shapes = (
{
closed = 1;
nodes = (
(-8,-145,o),
(-5,-145,qs),
(358,-145,ls),
(361,-145,o),
(361,-148,qs),
(361,-165,ls),
(361,-168,o),
(358,-168,qs),
(-5,-168,ls),
(-8,-168,o),
(-8,-165,qs),
(-8,-148,ls)
);
}
);
userData = {
assembly = "PUSHB[ ]	/* 2 values pushed */
6 100 
WCVTP[ ]	/* WriteCVTInPixels */
NPUSHB[ ]	/* 21 values pushed */
0 1 0 0 1 87 0 1 1 0 95 0 0 1 0 79 51 48 2 9 24 
CALL[ ]	/* CallFunction */
PUSHB[ ]	/* 2 values pushed */
6 0 
WCVTP[ ]	/* WriteCVTInPixels */";
};
width = 355;
}
);
note = underscore;
unicode = 95;
},
{
glyphname = grave;
layers = (
{
layerId = m01;
shapes = (
{
closed = 1;
nodes = (
(0,497,o),
(2,502,o),
(5,502,qs),
(28,502,ls),
(38,502,o),
(49,493,q),
(107,436,ls),
(112,431,o),
(103,431,qs),
(94,431,ls),
(81,431,o),
(69,440,qs),
(2,496,l)
);
}
);
userData = {
assembly = "PUSHB[ ]	/* 2 values pushed */
6 100 
WCVTP[ ]	/* WriteCVTInPixels */
NPUSHB[ ]	/* 14 values pushed */
0 1 0 1 133 0 0 0 118 35 49 2 9 24 
CALL[ ]	/* CallFunction */
PUSHB[ ]	/* 2 values pushed */
6 0 
WCVTP[ ]	/* WriteCVTInPixels */";
};
width = 107;
}
);
note = grave;
unicode = 96;
},
{
glyphname = a;
kernLeft = a;
layers = (
{
layerId = m01;
shapes = (
{
closed = 1;
nodes = (
(348,360,o),
(369,360,qs),
(371,360,ls),
(374,360,o),
(374,357,qs),
(374,3,ls),
(374,0,o),
(371,0,qs),
(351,0,ls),
(348,0,o),
(348,3,qs),
(348,74,l),
(332,35,o),
(261,-9,o),
(214,-9,qs),
(146,-9,o),
(101,37,qs),
(50,90,o),
(50,179,qs),
(50,255,o),
(90,307,qs),
(136,367,o),
(213,367,qs),
(258,367,o),
(333,321,o),
(348,284,q),
(348,332,ls)
);
},
{
closed = 1;
nodes = (
(309,51,qs),
(349,94,o),
(349,179,qs),
(349,253,o),
(318,296,qs),
(283,345,o),
(213,345,qs),
(155,345,o),
(118,305,qs),
(76,260,o),
(76,179,qs),
(76,109,o),
(109,64,qs),
(147,13,o),
(214,13,qs),
(274,13,o)
);
}
);
userData = {
assembly = "NPUSHB[ ]	/* 57 values pushed */
21 1 4 2 14 0 2 3 4 18 15 2 1 3 3 76 0 2 2 42 77 0 4 4 0 97 0 0 0 48 77 5 1 3 3 1 97 0 1 1 49 1 78 28 27 36 34 27 42 28 42 28 38 34 6 9 25 
CALL[ ]	/* CallFunction */";
};
width = 441;
}
);
note = a;
unicode = 97;
},
{
glyphname = b;
layers = (
{
layerId = m01;
shapes = (
{
closed = 1;
nodes = (
(94,0,o),
(91,0,qs),
(71,0,ls),
(68,0,o),
(68,3,qs),
(68,553,ls),
(68,556,o),
(71,556,qs),
(73,556,ls),
(94,556,o),
(94,528,qs),
(94,284,l),
(109,322,o),
(183,367,o),
(229,367,qs),
(295,367,o),
(340,320,qs),
(392,267,o),
(392,179,qs),
(392,101,o),
(352,50,qs),
(306,-9,o),
(228,-9,qs),
(180,-9,o),
(109,35,o),
(94,74,q),
(94,3,ls)
);
},
{
closed = 1;
nodes = (
(323,53,qs),
(366,98,o),
(366,179,qs),
(366,250,o),
(333,294,qs),
(296,345,o),
(229,345,qs),
(168,345,o),
(133,307,qs),
(92,264,o),
(92,179,qs),
(92,105,o),
(123,62,qs),
(159,13,o),
(228,13,qs),
(286,13,o)
);
}
);
userData = {
assembly = "NPUSHB[ ]	/* 57 values pushed */
20 1 1 2 14 0 2 3 4 24 21 2 0 3 3 76 0 2 2 39 77 0 4 4 1 97 0 1 1 48 77 5 1 3 3 0 97 0 0 0 49 0 78 28 27 36 34 27 42 28 42 20 38 34 6 9 25 
CALL[ ]	/* CallFunction */";
};
width = 441;
}
);
note = b;
unicode = 98;
},
{
glyphname = c;
kernLeft = c;
kernRight = c;
layers = (
{
layerId = m01;
shapes = (
{
closed = 1;
nodes = (
(98,35,qs),
(49,86,o),
(49,178,qs),
(49,259,o),
(89,309,qs),
(134,367,o),
(214,367,qs),
(261,367,o),
(305,347,qs),
(329,335,o),
(325,323,qs),
(323,319,ls),
(321,314,o),
(318,314,qs),
(315,314,o),
(311,316,qs),
(309,317,o),
(308,318,qs),
(268,345,o),
(214,345,qs),
(154,345,o),
(117,307,qs),
(75,262,o),
(75,178,qs),
(75,106,o),
(107,62,qs),
(143,13,o),
(211,13,qs),
(288,13,o),
(318,82,q),
(324,91,o),
(327,91,qs),
(333,91,o),
(333,81,qs),
(333,56,o),
(309,30,qs),
(273,-9,o),
(209,-9,qs),
(140,-9,o)
);
}
);
userData = {
assembly = "NPUSHB[ ]	/* 47 values pushed */
0 1 3 2 3 1 2 128 0 3 3 4 97 0 4 4 48 77 0 2 2 0 97 5 1 0 0 49 0 78 1 0 32 30 19 17 11 9 7 5 0 38 1 38 6 9 22 
CALL[ ]	/* CallFunction */";
};
width = 359;
}
);
note = c;
unicode = 99;
},
{
glyphname = d;
layers = (
{
layerId = m01;
shapes = (
{
closed = 1;
nodes = (
(347,556,o),
(350,556,qs),
(352,556,ls),
(373,556,o),
(373,528,qs),
(373,3,ls),
(373,0,o),
(370,0,qs),
(350,0,ls),
(347,0,o),
(347,3,qs),
(347,74,l),
(332,35,o),
(261,-9,o),
(213,-9,qs),
(145,-9,o),
(100,37,qs),
(49,90,o),
(49,179,qs),
(49,255,o),
(89,307,qs),
(136,367,o),
(212,367,qs),
(258,367,o),
(332,321,o),
(347,284,q),
(347,553,ls)
);
},
{
closed = 1;
nodes = (
(309,51,qs),
(348,94,o),
(348,179,qs),
(348,253,o),
(318,296,qs),
(282,345,o),
(212,345,qs),
(154,345,o),
(117,305,qs),
(75,260,o),
(75,179,qs),
(75,109,o),
(108,64,qs),
(146,13,o),
(213,13,qs),
(274,13,o)
);
}
);
userData = {
assembly = "NPUSHB[ ]	/* 57 values pushed */
26 1 0 2 14 0 2 3 4 18 15 2 1 3 3 76 0 2 2 39 77 0 4 4 0 97 0 0 0 48 77 5 1 3 3 1 97 0 1 1 49 1 78 28 27 36 34 27 42 28 42 26 38 34 6 9 25 
CALL[ ]	/* CallFunction */";
};
width = 441;
}
);
note = d;
unicode = 100;
},
{
glyphname = e;
kernLeft = e;
kernRight = e;
layers = (
{
layerId = m01;
shapes = (
{
closed = 1;
nodes = (
(77,101,o),
(107,60,qs),
(142,13,o),
(209,13,qs),
(298,13,o),
(326,81,qs),
(330,89,o),
(335,89,qs),
(342,89,o),
(342,78,qs),
(342,55,o),
(316,30,qs),
(277,-9,o),
(208,-9,qs),
(140,-9,o),
(98,35,qs),
(50,86,o),
(50,178,qs),
(50,256,o),
(87,307,qs),
(130,367,o),
(204,367,qs),
(262,367,o),
(301,326,qs),
(345,279,o),
(345,203,qs),
(345,192,o),
(344,183,qs),
(343,172,o),
(331,172,qs),
(76,172,l)
);
},
{
closed = 1;
nodes = (
(321,257,o),
(293,298,qs),
(261,345,o),
(203,345,qs),
(151,345,o),
(118,310,qs),
(80,271,o),
(76,194,q),
(319,194,l)
);
}
);
userData = {
assembly = "NPUSHB[ ]	/* 64 values pushed */
0 3 0 4 0 3 4 128 8 1 6 7 1 0 3 6 0 103 0 5 5 1 97 0 1 1 48 77 0 4 4 2 97 0 2 2 49 2 78 31 31 1 0 31 39 31 39 36 34 27 25 22 21 17 15 9 7 0 30 1 30 9 9 22 
CALL[ ]	/* CallFunction */";
};
width = 391;
}
);
note = e;
unicode = 101;
},
{
glyphname = f;
kernLeft = f;
layers = (
{
layerId = m01;
shapes = (
{
closed = 1;
nodes = (
(18,337,o),
(18,340,qs),
(18,357,ls),
(18,360,o),
(21,360,qs),
(85,360,l),
(85,477,ls),
(85,556,o),
(156,556,qs),
(180,556,o),
(216,523,o),
(216,502,qs),
(216,490,o),
(210,490,qs),
(204,490,o),
(202,496,qs),
(188,533,o),
(155,533,qs),
(111,533,o),
(111,478,qs),
(111,360,l),
(201,360,ls),
(204,360,o),
(204,357,qs),
(204,340,ls),
(204,337,o),
(201,337,qs),
(111,337,l),
(111,3,ls),
(111,0,o),
(108,0,qs),
(89,0,ls),
(85,0,o),
(85,3,qs),
(85,337,l),
(21,337,ls)
);
}
);
userData = {
assembly = "NPUSHB[ ]	/* 59 values pushed */
1 1 0 1 1 76 0 4 3 2 3 4 2 128 0 3 3 5 97 0 5 5 39 77 8 7 2 1 1 2 95 6 1 2 2 42 77 0 0 0 40 0 78 0 0 0 35 0 33 18 35 34 34 51 19 19 9 9 29 
CALL[ ]	/* CallFunction */";
};
width = 242;
}
);
note = f;
unicode = 102;
},
{
glyphname = g;
layers = (
{
layerId = m01;
shapes = (
{
closed = 1;
nodes = (
(347,360,o),
(368,360,qs),
(370,360,ls),
(373,360,o),
(373,357,qs),
(373,-9,ls),
(373,-79,o),
(338,-121,qs),
(296,-170,o),
(213,-170,qs),
(159,-170,o),
(64,-113,o),
(64,-79,qs),
(64,-68,o),
(71,-68,qs),
(76,-68,o),
(80,-74,q),
(97,-109,o),
(166,-148,o),
(211,-148,qs),
(347,-148,o),
(347,-11,qs),
(347,74,l),
(332,35,o),
(261,-9,o),
(213,-9,qs),
(145,-9,o),
(100,37,qs),
(49,90,o),
(49,179,qs),
(49,255,o),
(89,307,qs),
(136,367,o),
(212,367,qs),
(258,367,o),
(332,321,o),
(347,284,q),
(347,332,ls)
);
},
{
closed = 1;
nodes = (
(309,51,qs),
(348,94,o),
(348,179,qs),
(348,253,o),
(318,296,qs),
(282,345,o),
(212,345,qs),
(154,345,o),
(117,305,qs),
(75,260,o),
(75,179,qs),
(75,109,o),
(108,64,qs),
(146,13,o),
(213,13,qs),
(274,13,o)
);
}
);
userData = {
assembly = "NPUSHB[ ]	/* 73 values pushed */
32 1 7 5 14 0 2 6 7 2 76 0 3 1 2 1 3 2 128 0 5 5 42 77 0 7 7 0 97 0 0 0 48 77 8 1 6 6 1 97 0 1 1 49 77 0 2 2 4 97 0 4 4 50 4 78 39 38 47 45 38 53 39 53 23 35 35 36 38 34 9 9 28 
CALL[ ]	/* CallFunction */";
};
width = 441;
}
);
note = g;
unicode = 103;
},
{
glyphname = h;
layers = (
{
layerId = m01;
shapes = (
{
closed = 1;
nodes = (
(135,367,o),
(224,367,qs),
(283,367,o),
(320,333,qs),
(362,295,o),
(362,227,qs),
(362,3,ls),
(362,0,o),
(359,0,qs),
(339,0,ls),
(336,0,o),
(336,3,qs),
(336,224,ls),
(336,277,o),
(310,309,qs),
(280,345,o),
(222,345,qs),
(169,345,o),
(135,316,qs),
(94,281,o),
(94,217,qs),
(94,3,ls),
(94,0,o),
(91,0,qs),
(71,0,ls),
(68,0,o),
(68,3,qs),
(68,553,ls),
(68,556,o),
(71,556,qs),
(73,556,ls),
(94,556,o),
(94,528,qs),
(94,299,l)
);
}
);
userData = {
assembly = "NPUSHB[ ]	/* 36 values pushed */
5 1 2 0 1 76 33 24 21 9 6 5 1 73 0 0 0 39 77 0 1 1 2 97 0 2 2 48 1 78 45 45 17 3 9 25 
CALL[ ]	/* CallFunction */";
};
width = 427;
}
);
note = h;
unicode = 104;
},
{
glyphname = i;
kernLeft = i;
layers = (
{
layerId = m01;
shapes = (
{
closed = 1;
nodes = (
(80,464,qs),
(99,464,o),
(99,445,qs),
(99,426,o),
(80,426,qs),
(61,426,o),
(61,445,qs),
(61,464,o)
);
},
{
closed = 1;
nodes = (
(68,360,o),
(71,360,qs),
(73,360,ls),
(94,360,o),
(94,332,qs),
(94,3,ls),
(94,0,o),
(91,0,qs),
(71,0,ls),
(68,0,o),
(68,3,qs),
(68,357,ls)
);
}
);
userData = {
assembly = "NPUSHB[ ]	/* 26 values pushed */
19 11 8 3 2 73 0 1 0 0 2 1 0 105 0 2 2 42 2 78 24 34 33 3 9 25 
CALL[ ]	/* CallFunction */";
};
width = 161;
}
);
note = i;
unicode = 105;
},
{
glyphname = j;
layers = (
{
layerId = m01;
shapes = (
{
closed = 1;
nodes = (
(79,464,qs),
(98,464,o),
(98,445,qs),
(98,426,o),
(79,426,qs),
(60,426,o),
(60,445,qs),
(60,464,o)
);
},
{
closed = 1;
nodes = (
(24,-147,qs),
(68,-147,o),
(68,-92,qs),
(68,357,ls),
(68,360,o),
(70,360,qs),
(73,360,ls),
(93,360,o),
(93,332,qs),
(93,-93,ls),
(93,-170,o),
(24,-170,qs),
(-1,-170,o),
(-38,-138,o),
(-38,-116,qs),
(-38,-104,o),
(-31,-104,qs),
(-26,-104,o),
(-24,-111,qs),
(-12,-147,o)
);
}
);
userData = {
assembly = "NPUSHB[ ]	/* 47 values pushed */
23 1 2 4 1 76 0 2 4 5 4 2 5 128 0 1 0 0 4 1 0 105 0 4 4 42 77 0 5 5 3 97 0 3 3 50 3 78 37 19 35 34 34 33 6 9 28 
CALL[ ]	/* CallFunction */";
};
width = 161;
}
);
note = j;
unicode = 106;
},
{
glyphname = k;
layers = (
{
layerId = m01;
shapes = (
{
closed = 1;
nodes = (
(94,0,o),
(91,0,qs),
(71,0,ls),
(68,0,o),
(68,3,qs),
(68,553,ls),
(68,556,o),
(71,556,qs),
(73,556,ls),
(94,556,o),
(94,528,qs),
(94,179,l),
(270,351,ls),
(278,360,o),
(290,360,qs),
(301,360,ls),
(303,360,o),
(305,356,o),
(304,355,qs),
(178,231,l),
(322,4,l),
(326,0,o),
(319,0,qs),
(305,0,ls),
(295,0,o),
(289,10,qs),
(160,213,l),
(94,146,l),
(94,3,ls)
);
}
);
userData = {
assembly = "NPUSHB[ ]	/* 40 values pushed */
22 1 1 2 23 16 8 1 0 5 0 1 2 76 26 1 0 73 0 2 2 39 77 0 1 1 42 77 0 0 0 40 0 78 20 38 51 3 9 25 
CALL[ ]	/* CallFunction */";
};
width = 338;
}
);
note = k;
unicode = 107;
},
{
glyphname = l;
kernRight = l;
layers = (
{
layerId = m01;
shapes = (
{
closed = 1;
nodes = (
(67,68,qs),
(67,553,ls),
(67,556,o),
(70,556,qs),
(72,556,ls),
(93,556,o),
(93,528,qs),
(93,69,ls),
(93,16,o),
(137,16,qs),
(169,16,o),
(184,51,qs),
(188,59,o),
(191,59,qs),
(198,59,o),
(198,46,qs),
(198,24,o),
(161,-9,o),
(136,-9,qs),
(67,-9,o)
);
}
);
userData = {
assembly = "NPUSHB[ ]	/* 46 values pushed */
17 1 1 3 1 76 0 1 3 2 3 1 2 128 0 3 3 39 77 0 2 2 0 97 4 1 0 0 49 0 78 1 0 14 13 10 8 5 4 0 19 1 19 5 9 22 
CALL[ ]	/* CallFunction */";
};
width = 201;
}
);
note = l;
unicode = 108;
},
{
glyphname = m;
layers = (
{
layerId = m01;
shapes = (
{
closed = 1;
nodes = (
(135,367,o),
(220,367,qs),
(318,367,o),
(348,284,q),
(387,367,o),
(484,367,qs),
(543,367,o),
(580,333,qs),
(622,295,o),
(622,227,qs),
(622,3,ls),
(622,0,o),
(619,0,qs),
(600,0,ls),
(596,0,o),
(596,3,qs),
(596,224,ls),
(596,277,o),
(570,309,qs),
(540,345,o),
(482,345,qs),
(430,345,o),
(397,316,qs),
(358,281,o),
(358,217,qs),
(358,3,ls),
(358,0,o),
(355,0,qs),
(335,0,ls),
(332,0,o),
(332,3,qs),
(332,224,ls),
(332,277,o),
(306,309,qs),
(276,345,o),
(218,345,qs),
(165,345,o),
(133,316,qs),
(94,281,o),
(94,217,qs),
(94,3,ls),
(94,0,o),
(91,0,qs),
(71,0,ls),
(68,0,o),
(68,3,qs),
(68,357,ls),
(68,360,o),
(71,360,qs),
(73,360,ls),
(94,360,o),
(94,332,qs),
(94,299,l)
);
}
);
userData = {
assembly = "NPUSHB[ ]	/* 51 values pushed */
5 1 1 0 52 48 36 21 6 5 3 1 2 76 24 9 2 3 73 0 0 0 42 77 2 1 1 1 4 97 5 1 4 4 48 77 0 3 3 40 3 78 34 38 22 45 45 17 6 9 28 
CALL[ ]	/* CallFunction */";
};
width = 688;
}
);
note = m;
unicode = 109;
},
{
glyphname = n;
kernLeft = n;
kernRight = n;
layers = (
{
layerId = m01;
shapes = (
{
closed = 1;
nodes = (
(135,367,o),
(224,367,qs),
(283,367,o),
(320,333,qs),
(362,295,o),
(362,227,qs),
(362,3,ls),
(362,0,o),
(359,0,qs),
(339,0,ls),
(336,0,o),
(336,3,qs),
(336,224,ls),
(336,277,o),
(310,309,qs),
(280,345,o),
(222,345,qs),
(169,345,o),
(135,316,qs),
(94,281,o),
(94,217,qs),
(94,3,ls),
(94,0,o),
(91,0,qs),
(71,0,ls),
(68,0,o),
(68,3,qs),
(68,357,ls),
(68,360,o),
(71,360,qs),
(73,360,ls),
(94,360,o),
(94,332,qs),
(94,299,l)
);
}
);
userData = {
assembly = "NPUSHB[ ]	/* 36 values pushed */
5 1 1 0 1 76 33 24 21 9 6 5 1 73 0 0 0 42 77 0 1 1 2 97 0 2 2 48 1 78 45 45 17 3 9 25 
CALL[ ]	/* CallFunction */";
};
width = 427;
}
);
note = n;
unicode = 110;
},
{
glyphname = o;
kernLeft = o;
kernRight = o;
layers = (
{
layerId = m01;
shapes = (
{
closed = 1;
nodes = (
(99,35,qs),
(49,86,o),
(49,178,qs),
(49,258,o),
(88,309,qs),
(132,367,o),
(211,367,qs),
(282,367,o),
(326,322,qs),
(377,271,o),
(377,179,qs),
(377,100,o),
(338,49,qs),
(293,-9,o),
(212,-9,qs),
(143,-9,o)
);
},
{
closed = 1;
nodes = (
(308,52,qs),
(351,97,o),
(351,178,qs),
(351,249,o),
(318,294,qs),
(280,345,o),
(211,345,qs),
(153,345,o),
(117,306,qs),
(75,261,o),
(75,179,qs),
(75,108,o),
(107,63,qs),
(144,13,o),
(211,13,qs),
(271,13,o)
);
}
);
userData = {
assembly = "NPUSHB[ ]	/* 42 values pushed */
0 3 3 1 97 0 1 1 48 77 5 1 2 2 0 97 4 1 0 0 49 0 78 17 16 1 0 25 23 16 31 17 31 9 7 0 15 1 15 6 9 22 
CALL[ ]	/* CallFunction */";
};
width = 427;
}
);
note = o;
unicode = 111;
},
{
glyphname = p;
layers = (
{
layerId = m01;
shapes = (
{
closed = 1;
nodes = (
(94,-160,o),
(91,-160,qs),
(71,-160,ls),
(68,-160,o),
(68,-157,qs),
(68,357,ls),
(68,360,o),
(71,360,qs),
(73,360,ls),
(94,360,o),
(94,332,qs),
(94,284,l),
(109,322,o),
(183,367,o),
(229,367,qs),
(295,367,o),
(340,320,qs),
(392,267,o),
(392,179,qs),
(392,101,o),
(352,50,qs),
(306,-9,o),
(228,-9,qs),
(180,-9,o),
(109,35,o),
(94,74,q),
(94,-157,ls)
);
},
{
closed = 1;
nodes = (
(323,53,qs),
(366,98,o),
(366,179,qs),
(366,250,o),
(333,294,qs),
(296,345,o),
(229,345,qs),
(168,345,o),
(133,307,qs),
(92,264,o),
(92,179,qs),
(92,105,o),
(123,62,qs),
(159,13,o),
(228,13,qs),
(286,13,o)
);
}
);
userData = {
assembly = "NPUSHB[ ]	/* 57 values pushed */
20 1 4 2 14 0 2 3 4 2 76 24 21 2 0 73 0 2 2 42 77 0 4 4 1 97 0 1 1 48 77 5 1 3 3 0 97 0 0 0 49 0 78 28 27 36 34 27 42 28 42 20 38 34 6 9 25 
CALL[ ]	/* CallFunction */";
};
width = 441;
}
);
note = p;
unicode = 112;
},
{
glyphname = q;
layers = (
{
layerId = m01;
shapes = (
{
closed = 1;
nodes = (
(347,360,o),
(368,360,qs),
(370,360,ls),
(373,360,o),
(373,357,qs),
(373,-157,ls),
(373,-160,o),
(370,-160,qs),
(350,-160,ls),
(347,-160,o),
(347,-157,qs),
(347,74,l),
(332,35,o),
(261,-9,o),
(213,-9,qs),
(145,-9,o),
(100,37,qs),
(49,90,o),
(49,179,qs),
(49,255,o),
(89,307,qs),
(136,367,o),
(212,367,qs),
(258,367,o),
(332,321,o),
(347,284,q),
(347,332,ls)
);
},
{
closed = 1;
nodes = (
(309,51,qs),
(348,94,o),
(348,179,qs),
(348,253,o),
(318,296,qs),
(282,345,o),
(212,345,qs),
(154,345,o),
(117,305,qs),
(75,260,o),
(75,179,qs),
(75,109,o),
(108,64,qs),
(146,13,o),
(213,13,qs),
(274,13,o)
);
}
);
userData = {
assembly = "NPUSHB[ ]	/* 57 values pushed */
21 1 4 2 14 0 2 3 4 2 76 18 15 2 1 73 0 2 2 42 77 0 4 4 0 97 0 0 0 48 77 5 1 3 3 1 97 0 1 1 49 1 78 28 27 36 34 27 42 28 42 28 38 34 6 9 25 
CALL[ ]	/* CallFunction */";
};
width = 441;
}
);
note = q;
unicode = 113;
},
{
glyphname = r;
kernLeft = r;
layers = (
{
layerId = m01;
shapes = (
{
closed = 1;
nodes = (
(123,360,o),
(210,360,qs),
(216,360,ls),
(219,360,o),
(219,357,qs),
(219,337,ls),
(219,334,o),
(216,334,qs),
(195,334,ls),
(94,334,o),
(94,200,qs),
(94,3,ls),
(94,0,o),
(91,0,qs),
(71,0,ls),
(68,0,o),
(68,3,qs),
(68,357,ls),
(68,360,o),
(71,360,qs),
(73,360,ls),
(94,360,o),
(94,332,qs),
(94,299,l)
);
}
);
userData = {
assembly = "NPUSHB[ ]	/* 31 values pushed */
18 5 2 1 0 1 76 23 9 6 3 1 73 0 1 1 0 97 2 1 0 0 42 1 78 22 43 17 3 9 25 
CALL[ ]	/* CallFunction */";
};
width = 253;
}
);
note = r;
unicode = 114;
},
{
glyphname = s;
kernLeft = s;
layers = (
{
layerId = m01;
shapes = (
{
closed = 1;
nodes = (
(252,313,o),
(250,313,qs),
(247,313,o),
(241,317,q),
(240,317,o),
(240,318,q),
(203,344,o),
(150,344,qs),
(110,344,o),
(62,307,o),
(62,276,qs),
(62,251,o),
(84,234,qs),
(102,218,o),
(156,198,qs),
(213,177,o),
(234,161,qs),
(271,135,o),
(271,96,qs),
(271,52,o),
(240,23,qs),
(205,-11,o),
(149,-11,qs),
(103,-11,o),
(28,42,o),
(28,74,qs),
(28,87,o),
(35,87,qs),
(39,87,o),
(44,78,q),
(73,12,o),
(149,12,qs),
(192,12,o),
(245,55,o),
(245,92,qs),
(245,118,o),
(223,137,qs),
(204,153,o),
(151,173,qs),
(93,195,o),
(72,209,qs),
(36,234,o),
(36,273,qs),
(36,311,o),
(64,337,qs),
(97,367,o),
(150,367,qs),
(199,367,o),
(236,349,qs),
(258,338,o),
(256,324,qs),
(255,319,l)
);
}
);
userData = {
assembly = "NPUSHB[ ]	/* 37 values pushed */
0 2 4 1 4 2 1 128 0 4 4 0 97 0 0 0 48 77 0 1 1 3 97 0 3 3 46 3 78 45 35 34 45 35 5 9 27 
CALL[ ]	/* CallFunction */";
};
width = 299;
}
);
note = s;
unicode = 115;
},
{
glyphname = t;
layers = (
{
layerId = m01;
shapes = (
{
closed = 1;
nodes = (
(21,337,o),
(21,340,qs),
(21,357,ls),
(21,360,o),
(24,360,qs),
(92,360,l),
(92,488,ls),
(92,491,o),
(94,491,qs),
(97,491,ls),
(117,491,o),
(117,463,qs),
(117,360,l),
(194,360,ls),
(197,360,o),
(197,357,qs),
(197,340,ls),
(197,337,o),
(194,337,qs),
(117,337,l),
(117,3,ls),
(117,0,o),
(114,0,qs),
(94,0,ls),
(92,0,o),
(92,3,qs),
(92,337,l),
(24,337,ls)
);
}
);
userData = {
assembly = "NPUSHB[ ]	/* 43 values pushed */
20 1 1 2 1 76 4 1 2 0 73 0 2 1 2 133 5 4 2 0 0 1 95 3 1 1 1 42 0 78 0 0 0 27 0 25 20 18 51 23 6 9 26 
CALL[ ]	/* CallFunction */";
};
width = 228;
}
);
note = t;
unicode = 116;
},
{
glyphname = u;
kernLeft = u;
kernRight = u;
layers = (
{
layerId = m01;
shapes = (
{
closed = 1;
nodes = (
(67,159,qs),
(67,357,ls),
(67,360,o),
(70,360,qs),
(72,360,ls),
(93,360,o),
(93,332,qs),
(93,156,ls),
(93,13,o),
(208,13,qs),
(323,13,o),
(323,156,qs),
(323,357,ls),
(323,360,o),
(326,360,qs),
(328,360,ls),
(349,360,o),
(349,332,qs),
(349,159,ls),
(349,-9,o),
(208,-9,qs),
(67,-9,o)
);
}
);
userData = {
assembly = "NPUSHB[ ]	/* 40 values pushed */
19 8 2 2 1 1 76 3 1 1 1 42 77 0 2 2 0 97 4 1 0 0 49 0 78 1 0 16 15 12 10 5 4 0 21 1 21 5 9 22 
CALL[ ]	/* CallFunction */";
};
width = 416;
}
);
note = u;
unicode = 117;
},
{
glyphname = v;
layers = (
{
layerId = m01;
shapes = (
{
closed = 1;
nodes = (
(264,360,o),
(272,360,qs),
(286,360,ls),
(290,360,o),
(288,355,qs),
(168,4,ls),
(167,0,o),
(162,0,qs),
(151,0,ls),
(148,0,o),
(146,4,q),
(21,355,ls),
(19,360,o),
(25,360,qs),
(29,360,ls),
(46,360,o),
(55,338,qs),
(157,45,l),
(261,351,ls)
);
}
);
userData = {
assembly = "NPUSHB[ ]	/* 18 values pushed */
2 1 0 0 42 77 0 1 1 40 1 78 52 20 50 3 9 25 
CALL[ ]	/* CallFunction */";
};
width = 307;
}
);
note = v;
unicode = 118;
},
{
glyphname = w;
layers = (
{
layerId = m01;
shapes = (
{
closed = 1;
nodes = (
(243,360,o),
(248,360,qs),
(250,360,ls),
(266,360,o),
(273,338,qs),
(372,46,l),
(470,351,ls),
(473,360,o),
(482,360,qs),
(493,360,ls),
(497,360,o),
(496,355,q),
(382,4,l),
(380,0,o),
(375,0,qs),
(365,0,ls),
(361,0,o),
(360,4,qs),
(255,317,l),
(154,4,l),
(152,0,o),
(148,0,qs),
(137,0,ls),
(134,0,o),
(132,4,q),
(27,355,ls),
(26,360,o),
(30,360,qs),
(33,360,ls),
(51,360,o),
(59,338,q),
(144,46,l),
(242,353,l)
);
}
);
userData = {
assembly = "NPUSHB[ ]	/* 29 values pushed */
26 13 2 1 0 1 76 4 3 2 0 0 42 77 2 1 1 1 40 1 78 52 37 22 20 50 5 9 27 
CALL[ ]	/* CallFunction */";
};
width = 523;
}
);
note = w;
unicode = 119;
},
{
glyphname = x;
layers = (
{
layerId = m01;
shapes = (
{
closed = 1;
nodes = (
(41,0,o),
(34,0,qs),
(19,0,ls),
(14,0,o),
(18,5,qs),
(140,191,l),
(32,355,ls),
(28,360,o),
(34,360,qs),
(41,360,ls),
(57,360,o),
(67,345,qs),
(157,209,l),
(254,352,ls),
(260,360,o),
(268,360,qs),
(282,360,ls),
(287,360,o),
(283,355,qs),
(173,192,l),
(298,4,ls),
(301,0,o),
(297,0,qs),
(279,0,ls),
(272,0,o),
(267,8,qs),
(157,173,l),
(47,8,ls)
);
}
);
userData = {
assembly = "NPUSHB[ ]	/* 28 values pushed */
21 14 7 3 0 1 1 76 2 1 1 1 42 77 3 1 0 0 40 0 78 53 36 53 34 4 9 26 
CALL[ ]	/* CallFunction */";
};
width = 314;
}
);
note = x;
unicode = 120;
},
{
glyphname = y;
kernLeft = y;
kernRight = y;
layers = (
{
layerId = m01;
shapes = (
{
closed = 1;
nodes = (
(17,360,o),
(23,360,qs),
(27,360,ls),
(45,360,o),
(53,338,qs),
(153,35,l),
(260,351,ls),
(263,360,o),
(271,360,qs),
(284,360,ls),
(288,360,o),
(287,355,q),
(162,-11,ls),
(128,-112,o),
(87,-170,o),
(51,-170,qs),
(28,-170,o),
(-7,-143,o),
(-7,-125,qs),
(-7,-116,o),
(-1,-116,qs),
(4,-116,o),
(7,-123,qs),
(21,-148,o),
(48,-148,qs),
(75,-148,o),
(108,-96,o),
(141,-2,q),
(19,355,ls)
);
}
);
userData = {
assembly = "NPUSHB[ ]	/* 39 values pushed */
22 1 1 3 1 76 0 1 3 0 3 1 0 128 4 1 3 3 42 77 0 0 0 2 97 0 2 2 50 2 78 52 37 35 34 34 5 9 27 
CALL[ ]	/* CallFunction */";
};
width = 308;
}
);
note = y;
unicode = 121;
},
{
glyphname = z;
kernLeft = z;
kernRight = z;
layers = (
{
layerId = m01;
shapes = (
{
closed = 1;
nodes = (
(293,23,o),
(293,20,qs),
(293,3,ls),
(293,0,o),
(290,0,qs),
(42,0,ls),
(39,0,o),
(39,3,qs),
(39,21,ls),
(39,28,o),
(45,37,qs),
(262,337,l),
(53,337,ls),
(50,337,o),
(50,340,qs),
(50,357,ls),
(50,360,o),
(53,360,qs),
(262,360,ls),
(288,360,o),
(288,338,qs),
(288,329,o),
(272,308,qs),
(66,23,l),
(290,23,ls)
);
}
);
userData = {
assembly = "NPUSHB[ ]	/* 34 values pushed */
0 1 1 0 95 0 0 0 42 77 4 1 3 3 2 95 0 2 2 40 2 78 0 0 0 24 0 22 52 51 36 5 9 25 
CALL[ ]	/* CallFunction */";
};
width = 334;
}
);
note = z;
unicode = 122;
},
{
glyphname = braceleft;
layers = (
{
layerId = m01;
shapes = (
{
closed = 1;
nodes = (
(140,-144,o),
(111,-115,o),
(111,-93,qs),
(111,236,ls),
(111,264,o),
(74,264,qs),
(67,264,o),
(67,270,qs),
(67,282,ls),
(67,288,o),
(74,288,qs),
(111,288,o),
(111,317,qs),
(111,645,ls),
(111,667,o),
(140,696,o),
(163,696,qs),
(258,696,ls),
(260,696,o),
(260,694,qs),
(260,693,ls),
(260,673,o),
(233,673,qs),
(166,673,ls),
(138,673,o),
(138,643,qs),
(138,316,ls),
(138,287,o),
(119,277,q),
(118,276,l),
(138,265,o),
(138,237,qs),
(138,-91,ls),
(138,-121,o),
(166,-121,qs),
(233,-121,ls),
(260,-121,o),
(260,-142,qs),
(260,-143,ls),
(260,-144,o),
(258,-144,qs),
(163,-144,ls)
);
}
);
userData = {
assembly = "PUSHB[ ]	/* 7 values pushed */
33 11 2 4 3 1 76 
MPPEM[ ]	/* MeasurePixelPerEm */
PUSHB[ ]	/* 1 value pushed */
25 
LT[ ]	/* LessThan */
IF[ ]	/* If */
NPUSHB[ ]	/* 28 values pushed */
0 2 0 1 3 2 1 103 0 3 0 4 0 3 4 105 0 0 0 5 95 6 1 5 5 44 5 78 
ELSE[ ]	/* Else */
NPUSHB[ ]	/* 33 values pushed */
0 2 0 1 3 2 1 103 0 3 0 4 0 3 4 105 0 0 5 5 0 87 0 0 0 5 95 6 1 5 0 5 79 
EIF[ ]	/* EndIf */
NPUSHB[ ]	/* 14 values pushed */
0 0 0 41 0 40 20 36 81 57 52 7 9 27 
CALL[ ]	/* CallFunction */";
};
width = 315;
}
);
note = braceleft;
unicode = 123;
},
{
glyphname = bar;
layers = (
{
layerId = m01;
shapes = (
{
closed = 1;
nodes = (
(78,564,o),
(81,564,qs),
(82,564,ls),
(104,564,o),
(104,537,qs),
(104,-146,ls),
(104,-149,o),
(101,-149,qs),
(81,-149,ls),
(78,-149,o),
(78,-146,qs),
(78,562,ls)
);
}
);
userData = {
assembly = "PUSHB[ ]	/* 5 values pushed */
3 0 2 0 73 
MPPEM[ ]	/* MeasurePixelPerEm */
PUSHB[ ]	/* 1 value pushed */
49 
LT[ ]	/* LessThan */
IF[ ]	/* If */
PUSHB[ ]	/* 6 values pushed */
0 0 0 39 0 78 
ELSE[ ]	/* Else */
PUSHB[ ]	/* 4 values pushed */
0 0 0 118 
EIF[ ]	/* EndIf */
PUSHB[ ]	/* 4 values pushed */
23 1 9 23 
CALL[ ]	/* CallFunction */";
};
width = 181;
}
);
note = bar;
unicode = 124;
},
{
glyphname = braceright;
layers = (
{
layerId = m01;
shapes = (
{
closed = 1;
nodes = (
(56,-144,o),
(56,-143,qs),
(56,-142,ls),
(56,-121,o),
(83,-121,qs),
(150,-121,ls),
(178,-121,o),
(178,-91,qs),
(178,237,ls),
(178,265,o),
(197,275,q),
(198,276,l),
(178,288,o),
(178,316,qs),
(178,643,ls),
(178,673,o),
(150,673,qs),
(83,673,ls),
(56,673,o),
(56,693,qs),
(56,694,ls),
(56,696,o),
(58,696,qs),
(153,696,ls),
(175,696,o),
(204,667,o),
(204,645,qs),
(204,317,ls),
(204,288,o),
(242,288,qs),
(249,288,o),
(249,282,qs),
(249,270,ls),
(249,264,o),
(242,264,qs),
(204,264,o),
(204,236,qs),
(204,-93,ls),
(204,-115,o),
(175,-144,o),
(153,-144,qs),
(58,-144,ls)
);
}
);
userData = {
assembly = "PUSHB[ ]	/* 7 values pushed */
29 9 2 1 2 1 76 
MPPEM[ ]	/* MeasurePixelPerEm */
PUSHB[ ]	/* 1 value pushed */
23 
LT[ ]	/* LessThan */
IF[ ]	/* If */
NPUSHB[ ]	/* 28 values pushed */
0 3 0 4 2 3 4 103 0 2 0 1 5 2 1 105 0 5 5 0 95 6 1 0 0 44 0 78 
ELSE[ ]	/* Else */
NPUSHB[ ]	/* 33 values pushed */
0 3 0 4 2 3 4 103 0 2 0 1 5 2 1 105 0 5 0 0 5 87 0 5 5 0 95 6 1 0 5 0 79 
EIF[ ]	/* EndIf */
NPUSHB[ ]	/* 19 values pushed */
1 0 37 34 25 22 18 16 12 11 7 5 0 41 1 38 7 9 22 
CALL[ ]	/* CallFunction */";
};
width = 315;
}
);
note = braceright;
unicode = 125;
},
{
glyphname = asciitilde;
layers = (
{
layerId = m01;
shapes = (
{
closed = 1;
nodes = (
(318,286,o),
(318,283,qs),
(318,271,ls),
(318,261,o),
(312,257,qs),
(280,236,o),
(243,236,qs),
(222,236,o),
(189,246,qs),
(148,259,o),
(128,259,qs),
(104,259,o),
(77,248,o),
(60,231,q),
(54,223,o),
(54,233,qs),
(54,246,ls),
(54,255,o),
(60,259,qs),
(91,283,o),
(128,283,qs),
(150,283,o),
(183,273,qs),
(224,259,o),
(243,259,qs),
(281,259,o),
(312,285,qs),
(314,287,o)
);
}
);
userData = {
assembly = "PUSHB[ ]	/* 2 values pushed */
6 100 
WCVTP[ ]	/* WriteCVTInPixels */
NPUSHB[ ]	/* 35 values pushed */
25 1 1 74 0 1 0 2 0 1 2 105 0 0 3 3 0 89 0 0 0 3 97 0 3 0 3 81 34 40 34 33 4 9 26 
CALL[ ]	/* CallFunction */
PUSHB[ ]	/* 2 values pushed */
6 0 
WCVTP[ ]	/* WriteCVTInPixels */";
};
width = 372;
}
);
note = asciitilde;
unicode = 126;
},
{
glyphname = exclamdown;
layers = (
{
layerId = m01;
shapes = (
{
closed = 1;
nodes = (
(48,367,o),
(61,367,qs),
(73,367,o),
(92,348,o),
(92,335,qs),
(92,322,o),
(73,304,o),
(61,304,qs),
(48,304,o),
(30,322,o),
(30,335,qs),
(30,348,o)
);
},
{
closed = 1;
nodes = (
(49,228,o),
(52,228,qs),
(73,228,o),
(73,200,qs),
(74,-204,ls),
(74,-207,o),
(72,-207,qs),
(49,-207,ls),
(47,-207,o),
(47,-204,qs),
(49,224,ls)
);
}
);
userData = {
assembly = "NPUSHB[ ]	/* 28 values pushed */
22 15 12 3 2 73 0 2 0 2 134 0 0 0 1 97 0 1 1 48 0 78 25 36 34 3 9 25 
CALL[ ]	/* CallFunction */";
};
width = 126;
}
);
note = exclamdown;
unicode = 161;
},
{
glyphname = cent;
layers = (
{
layerId = m01;
shapes = (
{
closed = 1;
nodes = (
(214,-64,o),
(212,-64,qs),
(194,-64,ls),
(191,-64,o),
(191,-62,qs),
(191,-9,l),
(127,-4,o),
(89,40,qs),
(45,90,o),
(45,178,qs),
(45,253,o),
(80,302,qs),
(120,358,o),
(191,366,q),
(191,419,ls),
(191,422,o),
(194,422,qs),
(212,422,ls),
(214,422,o),
(214,419,qs),
(214,367,l),
(258,365,o),
(300,347,qs),
(324,335,o),
(320,323,qs),
(319,319,ls),
(317,314,o),
(314,314,qs),
(311,314,o),
(306,316,q),
(305,317,o),
(304,318,qs),
(267,343,o),
(214,345,q),
(214,13,l),
(286,16,o),
(314,82,q),
(319,91,o),
(323,91,qs),
(329,91,o),
(329,81,qs),
(329,56,o),
(307,31,qs),
(274,-6,o),
(214,-9,q),
(214,-62,ls)
);
},
{
closed = 1;
nodes = (
(138,338,o),
(107,300,qs),
(71,256,o),
(71,178,qs),
(71,111,o),
(99,68,qs),
(131,20,o),
(191,14,q),
(191,344,l)
);
}
);
userData = {
assembly = "NPUSHB[ ]	/* 20 values pushed */
54 1 3 46 1 2 2 75 31 28 25 3 4 74 43 40 39 3 0 73 
MPPEM[ ]	/* MeasurePixelPerEm */
PUSHB[ ]	/* 1 value pushed */
10 
LT[ ]	/* LessThan */
IF[ ]	/* If */
NPUSHB[ ]	/* 29 values pushed */
0 1 3 2 3 1 2 128 0 3 3 4 97 0 4 4 48 77 0 2 2 0 97 0 0 0 46 0 78 
ELSE[ ]	/* Else */
NPUSHB[ ]	/* 29 values pushed */
0 1 3 2 3 1 2 128 0 3 3 4 97 0 4 4 48 77 0 2 2 0 97 0 0 0 49 0 78 
EIF[ ]	/* EndIf */
PUSHB[ ]	/* 8 values pushed */
27 17 18 36 16 5 9 27 
CALL[ ]	/* CallFunction */";
};
width = 355;
}
);
note = cent;
unicode = 162;
},
{
glyphname = sterling;
layers = (
{
layerId = m01;
shapes = (
{
closed = 1;
nodes = (
(416,23,o),
(416,9,qs),
(416,6,ls),
(416,0,o),
(409,0,qs),
(61,0,ls),
(58,0,o),
(58,3,qs),
(58,20,ls),
(58,23,o),
(61,23,qs),
(130,23,l),
(176,126,o),
(176,190,qs),
(176,226,o),
(151,272,q),
(61,272,ls),
(58,272,o),
(58,276,qs),
(58,292,ls),
(58,295,o),
(61,295,qs),
(139,295,l),
(96,368,o),
(96,417,qs),
(96,480,o),
(135,520,qs),
(180,567,o),
(261,567,qs),
(327,567,o),
(389,533,qs),
(412,520,o),
(409,508,q),
(407,504,l),
(406,498,o),
(403,498,qs),
(400,498,o),
(396,501,qs),
(394,502,o),
(393,503,qs),
(330,544,o),
(262,544,qs),
(203,544,o),
(165,514,qs),
(121,479,o),
(121,417,qs),
(121,389,o),
(138,345,o),
(167,295,q),
(346,295,ls),
(360,295,o),
(360,281,qs),
(360,278,ls),
(360,272,o),
(353,272,qs),
(179,272,l),
(202,228,o),
(202,190,qs),
(202,131,o),
(162,35,qs),
(158,26,o),
(156,23,q),
(402,23,ls)
);
}
);
userData = {
assembly = "PUSHB[ ]	/* 6 values pushed */
43 1 0 1 1 76 
MPPEM[ ]	/* MeasurePixelPerEm */
PUSHB[ ]	/* 1 value pushed */
36 
LT[ ]	/* LessThan */
IF[ ]	/* If */
NPUSHB[ ]	/* 33 values pushed */
4 1 1 5 1 0 6 1 0 103 0 2 2 3 97 0 3 3 39 77 9 8 2 6 6 7 95 0 7 7 40 7 78 
ELSE[ ]	/* Else */
NPUSHB[ ]	/* 31 values pushed */
0 3 0 2 1 3 2 105 4 1 1 5 1 0 6 1 0 103 9 8 2 6 6 7 95 0 7 7 40 7 78 
EIF[ ]	/* EndIf */
NPUSHB[ ]	/* 17 values pushed */
0 0 0 62 0 61 67 20 21 21 43 38 35 38 10 9 30 
CALL[ ]	/* CallFunction */";
};
width = 466;
}
);
note = sterling;
unicode = 163;
},
{
glyphname = yen;
layers = (
{
layerId = m01;
shapes = (
{
closed = 1;
nodes = (
(44,146,o),
(44,149,qs),
(44,166,ls),
(44,169,o),
(47,169,qs),
(197,169,l),
(197,223,l),
(176,261,l),
(47,261,ls),
(44,261,o),
(44,264,qs),
(44,281,ls),
(44,284,o),
(47,284,qs),
(163,284,l),
(16,552,ls),
(14,556,o),
(19,556,qs),
(23,556,ls),
(41,556,o),
(54,533,qs),
(210,247,l),
(378,547,ls),
(383,556,o),
(392,556,qs),
(404,556,ls),
(409,556,o),
(408,552,q),
(258,284,l),
(373,284,ls),
(376,284,o),
(376,281,qs),
(376,264,ls),
(376,261,o),
(373,261,qs),
(244,261,l),
(223,223,l),
(223,169,l),
(373,169,ls),
(376,169,o),
(376,166,qs),
(376,149,ls),
(376,146,o),
(373,146,qs),
(223,146,l),
(223,3,ls),
(223,0,o),
(220,0,qs),
(200,0,ls),
(197,0,o),
(197,3,qs),
(197,146,l),
(47,146,ls)
);
}
);
userData = {
assembly = "NPUSHB[ ]	/* 58 values pushed */
45 30 15 3 1 2 1 76 4 1 2 0 73 6 1 3 7 1 2 1 3 2 103 8 1 1 10 9 2 0 1 0 99 5 1 4 4 39 4 78 0 0 0 52 0 50 18 51 18 52 35 51 18 51 23 11 9 31 
CALL[ ]	/* CallFunction */";
};
width = 421;
}
);
note = yen;
unicode = 165;
},
{
glyphname = brokenbar;
layers = (
{
layerId = m01;
shapes = (
{
closed = 1;
nodes = (
(78,564,o),
(81,564,qs),
(82,564,ls),
(104,564,o),
(104,537,qs),
(104,273,ls),
(104,271,o),
(101,271,qs),
(81,271,ls),
(78,271,o),
(78,273,qs),
(78,562,ls)
);
},
{
closed = 1;
nodes = (
(78,145,o),
(81,145,qs),
(101,145,ls),
(104,145,o),
(104,142,qs),
(104,-146,ls),
(104,-149,o),
(101,-149,qs),
(81,-149,ls),
(78,-149,o),
(78,-146,qs),
(78,142,ls)
);
}
);
userData = {
assembly = "NPUSHB[ ]	/* 9 values pushed */
21 18 15 12 3 0 6 0 73 
MPPEM[ ]	/* MeasurePixelPerEm */
PUSHB[ ]	/* 1 value pushed */
49 
LT[ ]	/* LessThan */
IF[ ]	/* If */
PUSHB[ ]	/* 6 values pushed */
0 0 0 39 0 78 
ELSE[ ]	/* Else */
PUSHB[ ]	/* 4 values pushed */
0 0 0 118 
EIF[ ]	/* EndIf */
PUSHB[ ]	/* 4 values pushed */
23 1 9 23 
CALL[ ]	/* CallFunction */";
};
width = 181;
}
);
note = brokenbar;
unicode = 166;
},
{
glyphname = section;
layers = (
{
layerId = m01;
shapes = (
{
closed = 1;
nodes = (
(314,8,qs),
(314,-33,o),
(285,-62,qs),
(249,-97,o),
(189,-97,qs),
(142,-97,o),
(68,-46,o),
(68,-14,qs),
(68,-2,o),
(75,-2,qs),
(80,-2,o),
(84,-11,qs),
(116,-74,o),
(188,-74,qs),
(234,-74,o),
(289,-30,o),
(289,6,qs),
(289,36,o),
(266,61,qs),
(247,82,o),
(189,116,qs),
(129,152,o),
(106,175,qs),
(67,213,o),
(67,262,qs),
(67,349,o),
(161,393,q),
(127,417,o),
(99,456,o),
(99,482,qs),
(99,517,o),
(126,541,qs),
(157,567,o),
(210,567,qs),
(255,567,o),
(290,549,qs),
(315,538,o),
(310,525,qs),
(309,521,ls),
(308,515,o),
(304,515,qs),
(301,515,o),
(296,519,qs),
(295,520,l),
(256,544,o),
(210,544,qs),
(170,544,o),
(125,511,o),
(125,483,qs),
(125,441,o),
(198,399,qs),
(265,360,o),
(278,350,qs),
(331,310,o),
(331,258,qs),
(331,179,o),
(228,117,q),
(314,65,o)
);
},
{
closed = 1;
nodes = (
(305,222,o),
(305,257,qs),
(305,295,o),
(265,328,qs),
(246,345,o),
(180,381,q),
(93,343,o),
(93,263,qs),
(93,222,o),
(115,195,qs),
(137,169,o),
(207,129,q),
(251,152,o)
);
}
);
userData = {
assembly = "PUSHB[ ]	/* 7 values pushed */
64 30 2 4 1 1 76 
MPPEM[ ]	/* MeasurePixelPerEm */
PUSHB[ ]	/* 1 value pushed */
36 
LT[ ]	/* LessThan */
IF[ ]	/* If */
NPUSHB[ ]	/* 33 values pushed */
0 1 0 4 0 1 4 128 0 4 3 0 4 3 126 0 3 0 5 3 5 101 0 0 0 2 97 0 2 2 39 0 78 
ELSE[ ]	/* Else */
NPUSHB[ ]	/* 39 values pushed */
0 1 0 4 0 1 4 128 0 4 3 0 4 3 126 0 2 0 0 1 2 0 105 0 3 5 5 3 89 0 3 3 5 97 0 5 3 5 81 
EIF[ ]	/* EndIf */
NPUSHB[ ]	/* 12 values pushed */
53 51 48 46 44 42 37 35 42 6 9 25 
CALL[ ]	/* CallFunction */";
};
width = 398;
}
);
note = section;
unicode = 167;
},
{
glyphname = dieresis;
layers = (
{
layerId = m01;
shapes = (
{
closed = 1;
nodes = (
(19,464,qs),
(38,464,o),
(38,445,qs),
(38,426,o),
(19,426,qs),
(0,426,o),
(0,445,qs),
(0,464,o)
);
},
{
closed = 1;
nodes = (
(109,464,qs),
(128,464,o),
(128,445,qs),
(128,426,o),
(109,426,qs),
(91,426,o),
(91,445,qs),
(91,464,o)
);
}
);
userData = {
assembly = "PUSHB[ ]	/* 2 values pushed */
6 100 
WCVTP[ ]	/* WriteCVTInPixels */
NPUSHB[ ]	/* 26 values pushed */
3 1 1 0 0 1 89 3 1 1 1 0 97 2 1 0 1 0 81 34 34 34 33 4 9 26 
CALL[ ]	/* CallFunction */
PUSHB[ ]	/* 2 values pushed */
6 0 
WCVTP[ ]	/* WriteCVTInPixels */";
};
width = 128;
}
);
note = dieresis;
unicode = 168;
},
{
glyphname = copyright;
layers = (
{
layerId = m01;
shapes = (
{
closed = 1;
nodes = (
(90,494,qs),
(152,563,o),
(260,563,qs),
(353,563,o),
(414,509,qs),
(483,447,o),
(483,340,qs),
(483,246,o),
(429,186,qs),
(367,117,o),
(260,117,qs),
(166,117,o),
(106,171,qs),
(37,232,o),
(37,340,qs),
(37,434,o)
);
},
{
closed = 1;
nodes = (
(400,184,qs),
(463,240,o),
(463,340,qs),
(463,426,o),
(414,480,qs),
(358,544,o),
(260,544,qs),
(175,544,o),
(120,495,qs),
(58,438,o),
(58,340,qs),
(58,253,o),
(106,199,qs),
(162,136,o),
(260,136,qs),
(346,136,o)
);
},
{
closed = 1;
nodes = (
(191,247,qs),
(158,280,o),
(158,340,qs),
(158,395,o),
(216,461,o),
(264,461,qs),
(298,461,o),
(324,444,qs),
(335,438,o),
(333,429,qs),
(332,424,ls),
(331,418,o),
(328,418,qs),
(327,418,o),
(324,420,qs),
(322,422,o),
(321,422,q),
(296,441,o),
(264,441,qs),
(223,441,o),
(179,388,o),
(179,340,qs),
(179,292,o),
(223,238,o),
(261,238,qs),
(310,238,o),
(329,272,q),
(332,276,o),
(334,276,qs),
(339,276,o),
(339,268,qs),
(339,255,o),
(323,240,qs),
(299,219,o),
(261,219,qs),
(218,219,o)
);
}
);
userData = {
assembly = "PUSHB[ ]	/* 2 values pushed */
6 100 
WCVTP[ ]	/* WriteCVTInPixels */
NPUSHB[ ]	/* 78 values pushed */
0 5 7 6 7 5 6 128 0 1 0 3 8 1 3 105 0 8 0 7 5 8 7 105 0 6 10 1 4 2 6 4 105 9 1 2 0 0 2 89 9 1 2 2 0 98 0 0 2 0 82 33 32 17 16 62 60 49 47 43 41 39 37 32 67 33 67 25 23 16 31 17 31 38 35 11 9 24 
CALL[ ]	/* CallFunction */
PUSHB[ ]	/* 2 values pushed */
6 0 
WCVTP[ ]	/* WriteCVTInPixels */";
};
width = 520;
}
);
note = copyright;
unicode = 169;
},
{
glyphname = ordfeminine;
layers = (
{
layerId = m01;
shapes = (
{
closed = 1;
nodes = (
(258,548,o),
(275,548,qs),
(278,548,ls),
(280,548,o),
(280,546,qs),
(280,264,ls),
(280,261,o),
(278,261,qs),
(261,261,ls),
(258,261,o),
(258,264,qs),
(258,319,l),
(231,254,o),
(153,254,qs),
(98,254,o),
(62,290,qs),
(22,331,o),
(22,403,qs),
(22,465,o),
(54,506,qs),
(90,553,o),
(151,553,qs),
(188,553,o),
(246,519,o),
(258,490,q),
(258,526,ls)
);
},
{
closed = 1;
nodes = (
(227,303,qs),
(258,337,o),
(258,403,qs),
(258,534,o),
(151,534,qs),
(106,534,o),
(77,503,qs),
(44,468,o),
(44,403,qs),
(44,349,o),
(70,314,qs),
(100,274,o),
(153,274,qs),
(200,274,o)
);
}
);
userData = {
assembly = "NPUSHB[ ]	/* 16 values pushed */
20 1 4 2 13 0 2 3 4 17 14 2 1 3 3 76 
MPPEM[ ]	/* MeasurePixelPerEm */
PUSHB[ ]	/* 1 value pushed */
25 
LT[ ]	/* LessThan */
IF[ ]	/* If */
NPUSHB[ ]	/* 27 values pushed */
0 2 2 55 77 0 4 4 0 97 0 0 0 55 77 5 1 3 3 1 97 0 1 1 56 1 78 
ELSE[ ]	/* Else */
MPPEM[ ]	/* MeasurePixelPerEm */
PUSHB[ ]	/* 1 value pushed */
29 
LT[ ]	/* LessThan */
IF[ ]	/* If */
NPUSHB[ ]	/* 24 values pushed */
5 1 3 0 1 3 1 101 0 2 2 55 77 0 4 4 0 97 0 0 0 55 4 78 
ELSE[ ]	/* Else */
MPPEM[ ]	/* MeasurePixelPerEm */
PUSHB[ ]	/* 1 value pushed */
44 
LT[ ]	/* LessThan */
IF[ ]	/* If */
NPUSHB[ ]	/* 27 values pushed */
0 2 0 4 0 2 4 128 5 1 3 0 1 3 1 101 0 4 4 0 97 0 0 0 55 4 78 
ELSE[ ]	/* Else */
NPUSHB[ ]	/* 34 values pushed */
0 2 0 4 0 2 4 128 0 0 0 4 3 0 4 105 5 1 3 1 1 3 89 5 1 3 3 1 97 0 1 3 1 81 
EIF[ ]	/* EndIf */
EIF[ ]	/* EndIf */
EIF[ ]	/* EndIf */
NPUSHB[ ]	/* 14 values pushed */
27 26 35 33 26 39 27 39 27 38 34 6 10 25 
CALL[ ]	/* CallFunction */";
};
width = 309;
}
);
note = ordfeminine;
unicode = 170;
},
{
glyphname = guillemotleft;
layers = (
{
layerId = m01;
shapes = (
{
closed = 1;
nodes = (
(167,40,o),
(163,40,qs),
(149,40,ls),
(140,40,o),
(135,48,q),
(40,170,ls),
(33,178,o),
(33,184,qs),
(33,190,o),
(40,198,qs),
(135,320,l),
(140,328,o),
(149,328,qs),
(163,328,ls),
(167,328,o),
(164,323,q),
(55,184,l),
(164,45,l)
);
},
{
closed = 1;
nodes = (
(272,40,o),
(267,40,qs),
(252,40,ls),
(245,40,o),
(240,48,q),
(144,170,ls),
(137,178,o),
(137,184,qs),
(137,189,o),
(144,198,qs),
(240,320,l),
(245,328,o),
(252,328,qs),
(267,328,ls),
(272,328,o),
(269,323,q),
(159,184,l),
(269,45,l)
);
}
);
userData = {
assembly = "NPUSHB[ ]	/* 18 values pushed */
2 1 0 1 0 133 3 1 1 1 118 40 53 40 50 4 9 26 
CALL[ ]	/* CallFunction */";
};
width = 300;
}
);
note = guillemotleft;
unicode = 171;
},
{
glyphname = uni00AD;
layers = (
{
layerId = m01;
shapes = (
{
closed = 1;
nodes = (
(46,214,o),
(49,214,qs),
(253,214,ls),
(256,214,o),
(256,212,qs),
(256,195,ls),
(256,192,o),
(253,192,qs),
(49,192,ls),
(46,192,o),
(46,195,qs),
(46,212,ls)
);
}
);
userData = {
assembly = "NPUSHB[ ]	/* 21 values pushed */
0 1 0 0 1 87 0 1 1 0 95 0 0 1 0 79 51 48 2 9 24 
CALL[ ]	/* CallFunction */";
};
width = 301;
}
);
note = uni00AD;
unicode = 173;
},
{
glyphname = registered;
layers = (
{
layerId = m01;
shapes = (
{
closed = 1;
nodes = (
(90,494,qs),
(152,563,o),
(260,563,qs),
(353,563,o),
(414,509,qs),
(483,447,o),
(483,340,qs),
(483,246,o),
(429,186,qs),
(367,117,o),
(260,117,qs),
(166,117,o),
(106,171,qs),
(37,232,o),
(37,340,qs),
(37,434,o)
);
},
{
closed = 1;
nodes = (
(400,184,qs),
(463,240,o),
(463,340,qs),
(463,426,o),
(414,480,qs),
(358,544,o),
(260,544,qs),
(175,544,o),
(120,495,qs),
(58,438,o),
(58,340,qs),
(58,253,o),
(106,199,qs),
(162,136,o),
(260,136,qs),
(346,136,o)
);
},
{
closed = 1;
nodes = (
(209,224,o),
(207,224,qs),
(190,224,ls),
(188,224,o),
(188,228,qs),
(188,456,ls),
(188,458,o),
(190,458,qs),
(269,458,ls),
(305,458,o),
(346,420,o),
(346,387,qs),
(346,335,o),
(296,318,q),
(348,228,l),
(351,224,o),
(346,224,qs),
(331,224,ls),
(326,224,o),
(323,229,qs),
(274,315,l),
(209,315,l),
(209,228,ls)
);
},
{
closed = 1;
nodes = (
(325,335,o),
(325,388,qs),
(325,412,o),
(297,439,o),
(273,439,qs),
(209,439,l),
(209,335,l),
(270,335,ls)
);
}
);
userData = {
assembly = "PUSHB[ ]	/* 2 values pushed */
6 100 
WCVTP[ ]	/* WriteCVTInPixels */
NPUSHB[ ]	/* 93 values pushed */
40 1 4 8 49 1 5 4 2 76 52 1 5 1 75 0 5 4 2 4 5 2 128 0 1 0 3 6 1 3 105 0 6 0 7 8 6 7 103 10 1 8 0 4 5 8 4 103 9 1 2 0 0 2 89 9 1 2 2 0 97 0 0 2 0 81 55 55 17 16 55 62 55 61 58 56 46 44 37 35 33 32 25 23 16 31 17 31 38 35 11 9 24 
CALL[ ]	/* CallFunction */
PUSHB[ ]	/* 2 values pushed */
6 0 
WCVTP[ ]	/* WriteCVTInPixels */";
};
width = 520;
}
);
note = registered;
unicode = 174;
},
{
glyphname = macron;
layers = (
{
layerId = m01;
shapes = (
{
closed = 1;
nodes = (
(0,453,o),
(3,453,qs),
(173,453,ls),
(176,453,o),
(176,450,qs),
(176,433,ls),
(176,431,o),
(173,431,qs),
(3,431,ls),
(0,431,o),
(0,433,qs),
(0,450,ls)
);
}
);
userData = {
assembly = "PUSHB[ ]	/* 2 values pushed */
6 100 
WCVTP[ ]	/* WriteCVTInPixels */
NPUSHB[ ]	/* 21 values pushed */
0 1 0 0 1 87 0 1 1 0 95 0 0 1 0 79 51 48 2 9 24 
CALL[ ]	/* CallFunction */
PUSHB[ ]	/* 2 values pushed */
6 0 
WCVTP[ ]	/* WriteCVTInPixels */";
};
width = 176;
}
);
note = macron;
unicode = 175;
},
{
glyphname = degree;
layers = (
{
layerId = m01;
shapes = (
{
closed = 1;
nodes = (
(29,428,o),
(29,475,qs),
(29,522,o),
(86,579,o),
(132,579,qs),
(178,579,o),
(236,522,o),
(236,475,qs),
(236,428,o),
(179,371,o),
(132,371,qs),
(85,371,o)
);
},
{
closed = 1;
nodes = (
(212,437,o),
(212,475,qs),
(212,514,o),
(169,558,o),
(132,558,qs),
(95,558,o),
(53,514,o),
(53,475,qs),
(53,437,o),
(96,392,o),
(132,392,qs),
(169,392,o)
);
}
);
userData = {
assembly = "PUSHB[ ]	/* 2 values pushed */
6 100 
WCVTP[ ]	/* WriteCVTInPixels */
NPUSHB[ ]	/* 46 values pushed */
0 1 0 3 2 1 3 105 5 1 2 0 0 2 89 5 1 2 2 0 97 4 1 0 2 0 81 13 12 1 0 19 17 12 23 13 23 7 5 0 11 1 11 6 9 22 
CALL[ ]	/* CallFunction */
PUSHB[ ]	/* 2 values pushed */
6 0 
WCVTP[ ]	/* WriteCVTInPixels */";
};
width = 264;
}
);
note = degree;
unicode = 176;
},
{
glyphname = plusminus;
layers = (
{
layerId = m01;
shapes = (
{
closed = 1;
nodes = (
(46,262,o),
(46,266,qs),
(46,282,ls),
(46,285,o),
(49,285,qs),
(184,285,l),
(184,440,ls),
(184,443,o),
(187,443,qs),
(207,443,o),
(207,416,qs),
(207,285,l),
(339,285,ls),
(342,285,o),
(342,282,qs),
(342,266,ls),
(342,262,o),
(339,262,qs),
(207,262,l),
(207,106,ls),
(207,103,o),
(204,103,qs),
(187,103,ls),
(184,103,o),
(184,106,qs),
(184,262,l),
(49,262,ls)
);
},
{
closed = 1;
nodes = (
(46,0,o),
(46,3,qs),
(46,20,ls),
(46,23,o),
(49,23,qs),
(328,23,ls),
(342,23,o),
(342,9,qs),
(342,6,ls),
(342,0,o),
(335,0,qs),
(49,0,ls)
);
}
);
userData = {
assembly = "NPUSHB[ ]	/* 61 values pushed */
24 10 2 0 1 4 1 2 6 0 2 76 0 2 1 2 133 3 1 1 7 4 2 0 6 1 0 103 0 6 6 5 95 8 1 5 5 40 5 78 28 27 0 0 33 31 27 38 28 36 0 26 0 26 19 18 51 23 9 9 26 
CALL[ ]	/* CallFunction */";
};
width = 388;
}
);
note = plusminus;
unicode = 177;
},
{
glyphname = twosuperior;
layers = (
{
layerId = m01;
shapes = (
{
closed = 1;
nodes = (
(231,258,o),
(231,247,qs),
(231,242,ls),
(231,238,o),
(227,238,qs),
(41,238,ls),
(38,238,o),
(38,242,qs),
(38,290,o),
(68,324,qs),
(85,345,o),
(131,375,qs),
(176,405,o),
(207,445,o),
(207,472,qs),
(207,542,o),
(132,542,qs),
(90,542,o),
(56,516,qs),
(55,515,o),
(54,514,q),
(50,512,o),
(48,512,qs),
(46,512,o),
(44,516,qs),
(43,520,ls),
(40,532,o),
(57,542,qs),
(93,562,o),
(135,562,qs),
(180,562,o),
(230,514,o),
(230,472,qs),
(230,444,o),
(212,420,qs),
(197,398,o),
(155,369,qs),
(97,329,o),
(63,289,o),
(62,258,q),
(214,258,ls)
);
}
);
userData = {
assembly = "NPUSHB[ ]	/* 41 values pushed */
37 32 2 2 3 1 76 0 1 1 0 97 0 0 0 55 77 4 1 3 3 2 95 0 2 2 56 2 78 0 0 0 40 0 39 26 43 41 5 10 25 
CALL[ ]	/* CallFunction */";
};
width = 268;
}
);
note = twosuperior;
unicode = 178;
},
{
glyphname = threesuperior;
layers = (
{
layerId = m01;
shapes = (
{
closed = 1;
nodes = (
(240,327,qs),
(240,286,o),
(183,233,o),
(139,233,qs),
(100,233,o),
(41,271,o),
(41,296,qs),
(41,307,o),
(47,307,qs),
(50,307,o),
(53,301,qs),
(77,253,o),
(137,253,qs),
(173,253,o),
(217,292,o),
(217,325,qs),
(217,359,o),
(172,398,o),
(132,398,qs),
(102,398,ls),
(85,398,o),
(85,409,qs),
(85,413,ls),
(85,417,o),
(89,417,qs),
(140,417,ls),
(173,417,o),
(210,449,o),
(210,478,qs),
(210,542,o),
(135,542,qs),
(100,542,o),
(60,515,qs),
(56,512,o),
(53,512,qs),
(51,512,o),
(49,516,qs),
(46,521,ls),
(41,530,o),
(58,539,qs),
(95,562,o),
(135,562,qs),
(180,562,o),
(231,518,o),
(231,480,qs),
(231,426,o),
(177,407,q),
(240,390,o)
);
}
);
userData = {
assembly = "NPUSHB[ ]	/* 57 values pushed */
12 1 2 1 24 1 3 2 2 76 0 5 3 4 3 5 4 128 0 2 0 3 5 2 3 105 0 1 1 0 97 0 0 0 55 77 0 4 4 6 97 0 6 6 58 6 78 35 34 36 52 35 41 36 7 10 29 
CALL[ ]	/* CallFunction */";
};
width = 280;
}
);
note = threesuperior;
unicode = 179;
},
{
glyphname = acute;
layers = (
{
layerId = m01;
shapes = (
{
closed = 1;
nodes = (
(28,431,o),
(15,431,qs),
(6,431,ls),
(3,431,o),
(1,434,o),
(3,436,qs),
(61,493,ls),
(69,502,o),
(82,502,qs),
(104,502,ls),
(107,502,o),
(109,497,o),
(107,496,q),
(40,440,ls)
);
}
);
userData = {
assembly = "PUSHB[ ]	/* 2 values pushed */
6 100 
WCVTP[ ]	/* WriteCVTInPixels */
NPUSHB[ ]	/* 14 values pushed */
0 0 1 0 133 0 1 1 118 37 35 2 9 24 
CALL[ ]	/* CallFunction */
PUSHB[ ]	/* 2 values pushed */
6 0 
WCVTP[ ]	/* WriteCVTInPixels */";
};
width = 107;
}
);
note = acute;
unicode = 180;
},
{
glyphname = paragraph;
layers = (
{
layerId = m01;
shapes = (
{
closed = 1;
nodes = (
(237,0,o),
(233,0,qs),
(214,0,ls),
(211,0,o),
(211,3,qs),
(211,221,l),
(145,221,o),
(99,260,qs),
(45,306,o),
(45,382,qs),
(45,455,o),
(81,499,qs),
(129,556,o),
(231,556,qs),
(303,556,ls),
(322,556,o),
(335,541,o),
(335,520,qs),
(335,3,ls),
(335,0,o),
(332,0,qs),
(312,0,ls),
(309,0,o),
(309,3,qs),
(309,533,l),
(237,533,l),
(237,3,ls)
);
}
);
userData = {
assembly = "NPUSHB[ ]	/* 30 values pushed */
26 24 21 5 2 5 2 73 0 2 0 2 134 0 0 0 1 95 0 1 1 39 0 78 22 57 16 3 9 25 
CALL[ ]	/* CallFunction */";
};
width = 413;
}
);
note = paragraph;
unicode = 182;
},
{
glyphname = periodcentered;
layers = (
{
layerId = m01;
shapes = (
{
closed = 1;
nodes = (
(68,311,o),
(81,311,qs),
(93,311,o),
(112,292,o),
(112,279,qs),
(112,267,o),
(93,248,o),
(81,248,qs),
(68,248,o),
(50,267,o),
(50,279,qs),
(50,292,o)
);
}
);
userData = {
assembly = "NPUSHB[ ]	/* 21 values pushed */
0 1 0 0 1 89 0 1 1 0 97 0 0 1 0 81 36 34 2 9 24 
CALL[ ]	/* CallFunction */";
};
width = 162;
}
);
note = periodcentered;
unicode = 183;
},
{
glyphname = cedilla;
layers = (
{
layerId = m01;
shapes = (
{
closed = 1;
nodes = (
(0,-88,o),
(4,-82,qs),
(52,-9,ls),
(61,5,o),
(74,5,qs),
(83,5,ls),
(89,5,o),
(85,-1,q),
(46,-79,ls),
(41,-88,o),
(25,-88,qs),
(7,-88,ls)
);
}
);
userData = {
assembly = "PUSHB[ ]	/* 2 values pushed */
6 100 
WCVTP[ ]	/* WriteCVTInPixels */
NPUSHB[ ]	/* 21 values pushed */
0 1 0 1 133 2 1 0 0 118 1 0 7 4 0 11 1 10 3 9 22 
CALL[ ]	/* CallFunction */
PUSHB[ ]	/* 2 values pushed */
6 0 
WCVTP[ ]	/* WriteCVTInPixels */";
};
width = 83;
}
);
note = cedilla;
unicode = 184;
},
{
glyphname = onesuperior;
layers = (
{
layerId = m01;
shapes = (
{
closed = 1;
nodes = (
(31,508,o),
(31,512,qs),
(31,527,ls),
(31,531,o),
(35,533,qs),
(76,551,ls),
(87,556,o),
(99,556,qs),
(106,556,ls),
(120,556,o),
(120,537,qs),
(120,242,ls),
(120,238,o),
(117,238,qs),
(100,238,ls),
(97,238,o),
(97,242,qs),
(97,538,l),
(34,510,l)
);
}
);
userData = {
assembly = "NPUSHB[ ]	/* 26 values pushed */
16 15 6 1 0 5 0 1 1 76 0 1 1 55 77 0 0 0 56 0 78 52 19 2 10 24 
CALL[ ]	/* CallFunction */";
};
width = 182;
}
);
note = onesuperior;
unicode = 185;
},
{
glyphname = ordmasculine;
layers = (
{
layerId = m01;
shapes = (
{
closed = 1;
nodes = (
(64,290,qs),
(22,332,o),
(22,403,qs),
(22,466,o),
(54,507,qs),
(91,553,o),
(153,553,qs),
(209,553,o),
(246,518,qs),
(289,476,o),
(289,404,qs),
(289,342,o),
(256,301,qs),
(218,254,o),
(154,254,qs),
(99,254,o)
);
},
{
closed = 1;
nodes = (
(231,305,qs),
(266,340,o),
(266,403,qs),
(266,459,o),
(239,494,qs),
(208,534,o),
(153,534,qs),
(107,534,o),
(78,504,qs),
(44,469,o),
(44,404,qs),
(44,348,o),
(70,313,qs),
(100,274,o),
(153,274,qs),
(201,274,o)
);
}
);
userData = {
assembly = "MPPEM[ ]	/* MeasurePixelPerEm */
PUSHB[ ]	/* 1 value pushed */
25 
LT[ ]	/* LessThan */
IF[ ]	/* If */
NPUSHB[ ]	/* 23 values pushed */
0 3 3 1 97 0 1 1 55 77 5 1 2 2 0 97 4 1 0 0 56 0 78 
ELSE[ ]	/* Else */
MPPEM[ ]	/* MeasurePixelPerEm */
PUSHB[ ]	/* 1 value pushed */
44 
LT[ ]	/* LessThan */
IF[ ]	/* If */
NPUSHB[ ]	/* 20 values pushed */
5 1 2 4 1 0 2 0 101 0 3 3 1 97 0 1 1 55 3 78 
ELSE[ ]	/* Else */
NPUSHB[ ]	/* 27 values pushed */
0 1 0 3 2 1 3 105 5 1 2 0 0 2 89 5 1 2 2 0 97 4 1 0 2 0 81 
EIF[ ]	/* EndIf */
EIF[ ]	/* EndIf */
NPUSHB[ ]	/* 19 values pushed */
17 16 1 0 25 23 16 31 17 31 9 7 0 15 1 15 6 10 22 
CALL[ ]	/* CallFunction */";
};
width = 310;
}
);
note = ordmasculine;
unicode = 186;
},
{
glyphname = guillemotright;
layers = (
{
layerId = m01;
shapes = (
{
closed = 1;
nodes = (
(31,328,o),
(35,328,qs),
(50,328,ls),
(58,328,o),
(63,320,q),
(158,198,ls),
(165,189,o),
(165,184,qs),
(165,179,o),
(158,170,qs),
(63,48,l),
(58,40,o),
(50,40,qs),
(35,40,ls),
(31,40,o),
(34,45,q),
(143,184,l),
(34,323,l)
);
},
{
closed = 1;
nodes = (
(136,328,o),
(139,328,qs),
(154,328,ls),
(162,328,o),
(167,320,q),
(263,198,ls),
(269,189,o),
(269,184,qs),
(269,178,o),
(263,170,qs),
(167,48,l),
(162,40,o),
(154,40,qs),
(139,40,ls),
(136,40,o),
(138,45,q),
(248,184,l),
(138,323,l)
);
}
);
userData = {
assembly = "NPUSHB[ ]	/* 18 values pushed */
3 1 1 0 1 133 2 1 0 0 118 40 53 40 50 4 9 26 
CALL[ ]	/* CallFunction */";
};
width = 300;
}
);
note = guillemotright;
unicode = 187;
},
{
glyphname = onequarter;
layers = (
{
layerId = m01;
shapes = (
{
closed = 1;
nodes = (
(31,508,o),
(31,512,qs),
(31,527,ls),
(31,531,o),
(35,533,qs),
(76,551,ls),
(87,556,o),
(99,556,qs),
(106,556,ls),
(120,556,o),
(120,537,qs),
(120,242,ls),
(120,238,o),
(117,238,qs),
(100,238,ls),
(97,238,o),
(97,242,qs),
(97,538,l),
(34,510,l)
);
},
{
closed = 1;
nodes = (
(86,0,o),
(89,4,q),
(393,549,l),
(396,556,o),
(401,556,qs),
(410,556,o),
(412,538,o),
(405,525,qs),
(118,8,ls),
(113,0,o),
(105,0,qs),
(91,0,ls)
);
},
{
closed = 1;
nodes = (
(272,83,o),
(272,87,qs),
(272,97,ls),
(272,107,o),
(277,116,q),
(406,305,ls),
(414,317,o),
(426,317,qs),
(433,317,ls),
(447,317,o),
(447,298,qs),
(447,103,l),
(474,103,ls),
(492,103,o),
(492,92,qs),
(492,87,ls),
(492,83,o),
(488,83,qs),
(447,83,l),
(447,3,ls),
(447,0,o),
(444,0,qs),
(427,0,ls),
(424,0,o),
(424,3,qs),
(424,83,l),
(275,83,ls)
);
},
{
closed = 1;
nodes = (
(424,296,l),
(292,103,l),
(424,103,l)
);
}
);
userData = {
assembly = "PUSHB[ ]	/* 2 values pushed */
6 100 
WCVTP[ ]	/* WriteCVTInPixels */
NPUSHB[ ]	/* 102 values pushed */
16 15 0 3 6 1 59 6 1 3 0 6 55 41 2 4 5 32 1 2 4 4 76 35 1 2 73 3 1 1 6 1 133 0 6 0 6 133 0 0 5 0 133 9 1 2 4 2 134 11 8 2 5 4 4 5 89 11 8 2 5 5 4 95 10 7 2 4 5 4 79 58 58 31 31 20 19 58 60 58 60 31 57 31 57 50 47 45 43 39 38 25 24 19 30 20 29 52 19 12 9 24 
CALL[ ]	/* CallFunction */
PUSHB[ ]	/* 2 values pushed */
6 0 
WCVTP[ ]	/* WriteCVTInPixels */";
};
width = 529;
}
);
note = onequarter;
unicode = 188;
},
{
glyphname = onehalf;
layers = (
{
layerId = m01;
shapes = (
{
closed = 1;
nodes = (
(31,508,o),
(31,512,qs),
(31,527,ls),
(31,531,o),
(35,533,qs),
(76,551,ls),
(87,556,o),
(99,556,qs),
(106,556,ls),
(120,556,o),
(120,537,qs),
(120,242,ls),
(120,238,o),
(117,238,qs),
(100,238,ls),
(97,238,o),
(97,242,qs),
(97,538,l),
(34,510,l)
);
},
{
closed = 1;
nodes = (
(86,0,o),
(89,4,q),
(393,549,l),
(396,556,o),
(401,556,qs),
(410,556,o),
(412,538,o),
(405,525,qs),
(118,8,ls),
(113,0,o),
(105,0,qs),
(91,0,ls)
);
},
{
closed = 1;
nodes = (
(543,20,o),
(543,8,qs),
(543,4,ls),
(543,0,o),
(539,0,qs),
(353,0,ls),
(350,0,o),
(350,3,qs),
(350,51,o),
(380,86,qs),
(398,107,o),
(443,137,qs),
(489,167,o),
(519,206,o),
(519,233,qs),
(519,303,o),
(445,303,qs),
(403,303,o),
(368,277,qs),
(367,276,ls),
(362,273,o),
(360,273,qs),
(358,273,o),
(356,277,qs),
(355,281,ls),
(352,293,o),
(369,303,qs),
(405,323,o),
(447,323,qs),
(492,323,o),
(542,276,o),
(542,233,qs),
(542,205,o),
(525,181,qs),
(509,159,o),
(468,130,qs),
(409,90,o),
(375,50,o),
(374,20,q),
(526,20,ls)
);
}
);
userData = {
assembly = "PUSHB[ ]	/* 2 values pushed */
6 100 
WCVTP[ ]	/* WriteCVTInPixels */
NPUSHB[ ]	/* 84 values pushed */
16 15 0 3 4 1 6 1 2 0 5 67 1 2 7 3 76 3 1 1 4 1 133 0 0 5 7 5 0 7 128 0 4 0 5 0 4 5 105 9 1 7 2 2 7 87 9 1 7 7 2 97 6 8 2 2 7 2 81 31 31 20 19 31 70 31 69 65 62 54 52 42 40 25 24 19 30 20 29 52 19 10 9 24 
CALL[ ]	/* CallFunction */
PUSHB[ ]	/* 2 values pushed */
6 0 
WCVTP[ ]	/* WriteCVTInPixels */";
};
width = 612;
}
);
note = onehalf;
unicode = 189;
},
{
glyphname = threequarters;
layers = (
{
layerId = m01;
shapes = (
{
closed = 1;
nodes = (
(240,327,qs),
(240,286,o),
(183,233,o),
(139,233,qs),
(100,233,o),
(41,271,o),
(41,296,qs),
(41,307,o),
(47,307,qs),
(50,307,o),
(53,301,qs),
(77,253,o),
(137,253,qs),
(173,253,o),
(217,292,o),
(217,325,qs),
(217,359,o),
(172,398,o),
(132,398,qs),
(102,398,ls),
(85,398,o),
(85,409,qs),
(85,413,ls),
(85,417,o),
(89,417,qs),
(140,417,ls),
(173,417,o),
(210,449,o),
(210,478,qs),
(210,542,o),
(135,542,qs),
(100,542,o),
(60,515,qs),
(56,512,o),
(53,512,qs),
(51,512,o),
(49,516,qs),
(46,521,ls),
(41,530,o),
(58,539,qs),
(95,562,o),
(135,562,qs),
(180,562,o),
(231,518,o),
(231,480,qs),
(231,426,o),
(177,407,q),
(240,390,o)
);
},
{
closed = 1;
nodes = (
(162,0,o),
(164,4,qs),
(469,549,l),
(471,556,o),
(477,556,qs),
(485,556,o),
(488,538,o),
(480,525,qs),
(193,8,ls),
(189,0,o),
(180,0,qs),
(167,0,ls)
);
},
{
closed = 1;
nodes = (
(347,83,o),
(347,87,qs),
(347,97,ls),
(347,107,o),
(352,116,q),
(482,305,ls),
(490,317,o),
(502,317,qs),
(508,317,ls),
(522,317,o),
(522,298,qs),
(522,103,l),
(550,103,ls),
(567,103,o),
(567,92,qs),
(567,87,ls),
(567,83,o),
(563,83,qs),
(522,83,l),
(522,3,ls),
(522,0,o),
(519,0,qs),
(502,0,ls),
(499,0,o),
(499,3,qs),
(499,83,l),
(350,83,ls)
);
},
{
closed = 1;
nodes = (
(499,296,l),
(367,103,l),
(499,103,l)
);
}
);
userData = {
assembly = "PUSHB[ ]	/* 2 values pushed */
6 100 
WCVTP[ ]	/* WriteCVTInPixels */
NPUSHB[ ]	/* 138 values pushed */
12 1 2 1 24 1 3 2 88 1 4 5 84 70 2 9 10 61 1 7 9 5 76 64 1 7 73 0 8 0 1 0 8 1 128 0 11 3 5 3 11 5 128 0 5 4 3 5 4 126 14 1 7 9 7 134 0 0 0 1 2 0 1 105 0 2 0 3 11 2 3 105 0 4 0 6 10 4 6 105 16 13 2 10 9 9 10 89 16 13 2 10 10 9 95 15 12 2 9 10 9 79 87 87 60 60 49 48 87 89 87 89 60 86 60 86 79 76 74 72 68 67 54 53 48 59 49 59 35 34 36 52 35 41 36 17 9 29 
CALL[ ]	/* CallFunction */
PUSHB[ ]	/* 2 values pushed */
6 0 
WCVTP[ ]	/* WriteCVTInPixels */";
};
width = 605;
}
);
note = threequarters;
unicode = 190;
},
{
glyphname = questiondown;
layers = (
{
layerId = m01;
shapes = (
{
closed = 1;
nodes = (
(150,323,o),
(150,336,qs),
(150,349,o),
(169,367,o),
(181,367,qs),
(194,367,o),
(212,349,o),
(212,336,qs),
(212,323,o),
(194,304,o),
(181,304,qs),
(169,304,o)
);
},
{
closed = 1;
nodes = (
(42,16,qs),
(61,42,o),
(108,81,qs),
(136,105,o),
(144,112,qs),
(168,133,o),
(168,165,qs),
(168,224,ls),
(168,228,o),
(171,228,qs),
(172,228,ls),
(194,228,o),
(194,200,qs),
(194,159,ls),
(194,122,o),
(140,78,qs),
(92,39,o),
(79,26,qs),
(39,-17,o),
(39,-71,qs),
(39,-125,o),
(72,-158,qs),
(109,-195,o),
(178,-195,qs),
(252,-195,o),
(312,-153,qs),
(313,-152,o),
(314,-152,q),
(319,-148,o),
(321,-148,qs),
(324,-148,o),
(326,-152,qs),
(331,-161,ls),
(334,-166,o),
(329,-170,qs),
(263,-218,o),
(176,-218,qs),
(107,-218,o),
(64,-184,qs),
(13,-144,o),
(13,-71,qs),
(13,-24,o)
);
}
);
userData = {
assembly = "NPUSHB[ ]	/* 51 values pushed */
45 23 2 3 4 1 76 0 4 0 3 0 4 3 128 0 3 0 2 3 2 101 5 1 0 0 1 97 0 1 1 48 0 78 1 0 42 41 30 28 17 15 7 5 0 11 1 11 6 9 22 
CALL[ ]	/* CallFunction */";
};
width = 309;
}
);
note = questiondown;
unicode = 191;
},
{
glyphname = Agrave;
kernLeft = A;
kernRight = A;
layers = (
{
layerId = m01;
shapes = (
{
closed = 1;
nodes = (
(172,686,o),
(174,691,o),
(176,691,qs),
(199,691,ls),
(210,691,o),
(220,682,qs),
(278,625,ls),
(284,619,o),
(275,619,qs),
(266,619,ls),
(253,619,o),
(241,629,qs),
(174,685,l)
);
},
{
closed = 1;
nodes = (
(39,0,o),
(30,0,qs),
(16,0,ls),
(12,0,o),
(14,4,qs),
(220,552,ls),
(221,556,o),
(224,556,qs),
(226,556,ls),
(241,556,o),
(246,542,qs),
(460,4,l),
(463,0,o),
(458,0,qs),
(441,0,ls),
(434,0,o),
(430,8,q),
(362,182,l),
(107,182,l),
(43,8,l)
);
},
{
closed = 1;
nodes = (
(231,513,l),
(116,205,l),
(353,205,l)
);
}
);
userData = {
assembly = "NPUSHB[ ]	/* 52 values pushed */
34 1 6 4 1 76 0 1 0 1 133 0 0 4 0 133 7 1 6 0 2 3 6 2 103 0 4 4 39 77 5 1 3 3 40 3 78 33 33 33 35 33 35 23 20 34 20 35 49 8 9 28 
CALL[ ]	/* CallFunction */";
};
width = 472;
}
);
note = Agrave;
unicode = 192;
},
{
glyphname = Aacute;
kernLeft = A;
kernRight = A;
layers = (
{
layerId = m01;
shapes = (
{
closed = 1;
nodes = (
(210,619,o),
(197,619,qs),
(188,619,ls),
(179,619,o),
(185,625,qs),
(242,682,ls),
(251,691,o),
(264,691,qs),
(286,691,ls),
(289,691,o),
(291,686,o),
(289,685,q),
(222,629,ls)
);
},
{
closed = 1;
nodes = (
(39,0,o),
(30,0,qs),
(16,0,ls),
(12,0,o),
(14,4,qs),
(220,552,ls),
(221,556,o),
(224,556,qs),
(226,556,ls),
(241,556,o),
(246,542,qs),
(460,4,l),
(463,0,o),
(458,0,qs),
(441,0,ls),
(434,0,o),
(430,8,q),
(362,182,l),
(107,182,l),
(43,8,l)
);
},
{
closed = 1;
nodes = (
(231,513,l),
(116,205,l),
(353,205,l)
);
}
);
userData = {
assembly = "NPUSHB[ ]	/* 52 values pushed */
34 1 6 4 1 76 0 0 1 0 133 0 1 4 1 133 7 1 6 0 2 3 6 2 103 0 4 4 39 77 5 1 3 3 40 3 78 33 33 33 35 33 35 23 20 34 18 51 35 8 9 28 
CALL[ ]	/* CallFunction */";
};
width = 472;
}
);
note = Aacute;
unicode = 193;
},
{
glyphname = Acircumflex;
kernLeft = A;
kernRight = A;
layers = (
{
layerId = m01;
shapes = (
{
closed = 1;
nodes = (
(168,619,o),
(155,619,qs),
(147,619,ls),
(138,619,o),
(145,625,qs),
(202,682,ls),
(211,691,o),
(223,691,qs),
(240,691,ls),
(252,691,o),
(261,682,qs),
(319,625,l),
(324,619,o),
(315,619,qs),
(307,619,ls),
(293,619,o),
(282,629,qs),
(232,675,l),
(180,629,ls)
);
},
{
closed = 1;
nodes = (
(39,0,o),
(30,0,qs),
(16,0,ls),
(12,0,o),
(14,4,qs),
(220,552,ls),
(221,556,o),
(224,556,qs),
(226,556,ls),
(241,556,o),
(246,542,qs),
(460,4,l),
(463,0,o),
(458,0,qs),
(441,0,ls),
(434,0,o),
(430,8,q),
(362,182,l),
(107,182,l),
(43,8,l)
);
},
{
closed = 1;
nodes = (
(231,513,l),
(116,205,l),
(353,205,l)
);
}
);
userData = {
assembly = "NPUSHB[ ]	/* 54 values pushed */
40 1 7 5 1 76 0 1 0 1 133 2 1 0 5 0 133 8 1 7 0 3 4 7 3 103 0 5 5 39 77 6 1 4 4 40 4 78 39 39 39 41 39 41 23 20 34 18 51 51 50 9 9 29 
CALL[ ]	/* CallFunction */";
};
width = 472;
}
);
note = Acircumflex;
unicode = 194;
},
{
glyphname = Atilde;
kernLeft = A;
kernRight = A;
layers = (
{
layerId = m01;
shapes = (
{
closed = 1;
nodes = (
(144,616,o),
(144,621,qs),
(146,664,o),
(185,664,qs),
(197,664,o),
(225,652,qs),
(259,637,o),
(269,637,qs),
(285,637,o),
(289,654,qs),
(290,662,o),
(296,662,qs),
(311,662,ls),
(317,662,o),
(315,656,q),
(308,614,o),
(269,614,qs),
(254,614,o),
(221,629,qs),
(195,641,o),
(185,641,qs),
(173,641,o),
(170,624,qs),
(169,616,o),
(164,616,qs),
(147,616,ls)
);
},
{
closed = 1;
nodes = (
(39,0,o),
(30,0,qs),
(16,0,ls),
(12,0,o),
(14,4,qs),
(220,552,ls),
(221,556,o),
(224,556,qs),
(226,556,ls),
(241,556,o),
(246,542,qs),
(460,4,l),
(463,0,o),
(458,0,qs),
(441,0,ls),
(434,0,o),
(430,8,q),
(362,182,l),
(107,182,l),
(43,8,l)
);
},
{
closed = 1;
nodes = (
(231,513,l),
(116,205,l),
(353,205,l)
);
}
);
userData = {
assembly = "NPUSHB[ ]	/* 78 values pushed */
23 1 1 3 47 1 10 8 2 76 4 1 2 0 0 3 2 0 105 0 3 11 5 2 1 8 3 1 106 12 1 10 0 6 7 10 6 103 0 8 8 39 77 9 1 7 7 40 7 78 46 46 0 0 46 48 46 48 44 43 36 35 31 29 27 26 0 25 0 25 34 35 34 34 35 13 9 27 
CALL[ ]	/* CallFunction */";
};
width = 472;
}
);
note = Atilde;
unicode = 195;
},
{
glyphname = Adieresis;
kernLeft = A;
kernRight = A;
layers = (
{
layerId = m01;
shapes = (
{
closed = 1;
nodes = (
(184,653,qs),
(203,653,o),
(203,634,qs),
(203,615,o),
(184,615,qs),
(165,615,o),
(165,634,qs),
(165,653,o)
);
},
{
closed = 1;
nodes = (
(275,653,qs),
(294,653,o),
(294,634,qs),
(294,615,o),
(275,615,qs),
(256,615,o),
(256,634,qs),
(256,653,o)
);
},
{
closed = 1;
nodes = (
(39,0,o),
(30,0,qs),
(16,0,ls),
(12,0,o),
(14,4,qs),
(220,552,ls),
(221,556,o),
(224,556,qs),
(226,556,ls),
(241,556,o),
(246,542,qs),
(460,4,l),
(463,0,o),
(458,0,qs),
(441,0,ls),
(434,0,o),
(430,8,q),
(362,182,l),
(107,182,l),
(43,8,l)
);
},
{
closed = 1;
nodes = (
(231,513,l),
(116,205,l),
(353,205,l)
);
}
);
userData = {
assembly = "NPUSHB[ ]	/* 54 values pushed */
37 1 8 6 1 76 3 1 1 2 1 0 6 1 0 105 9 1 8 0 4 5 8 4 103 0 6 6 39 77 7 1 5 5 40 5 78 36 36 36 38 36 38 23 20 34 17 34 34 34 33 10 9 30 
CALL[ ]	/* CallFunction */";
};
width = 472;
}
);
note = Adieresis;
unicode = 196;
},
{
glyphname = Aring;
kernLeft = A;
kernRight = A;
layers = (
{
layerId = m01;
shapes = (
{
closed = 1;
nodes = (
(205,708,o),
(227,708,qs),
(250,708,o),
(282,675,o),
(282,652,qs),
(282,631,o),
(249,598,o),
(227,598,qs),
(206,598,o),
(173,631,o),
(173,652,qs),
(173,675,o)
);
},
{
closed = 1;
nodes = (
(261,637,o),
(261,652,qs),
(261,668,o),
(242,688,o),
(227,688,qs),
(213,688,o),
(194,668,o),
(194,652,qs),
(194,637,o),
(213,617,o),
(227,617,qs),
(242,617,o)
);
},
{
closed = 1;
nodes = (
(39,0,o),
(30,0,qs),
(16,0,ls),
(12,0,o),
(14,4,qs),
(220,552,ls),
(221,556,o),
(224,556,qs),
(226,556,ls),
(241,556,o),
(246,542,qs),
(460,4,l),
(463,0,o),
(458,0,qs),
(441,0,ls),
(434,0,o),
(430,8,q),
(362,182,l),
(107,182,l),
(43,8,l)
);
},
{
closed = 1;
nodes = (
(231,513,l),
(116,205,l),
(353,205,l)
);
}
);
userData = {
assembly = "NPUSHB[ ]	/* 71 values pushed */
45 1 8 6 1 76 0 1 0 3 2 1 3 105 9 1 2 0 0 6 2 0 105 10 1 8 0 4 5 8 4 103 0 6 6 39 77 7 1 5 5 40 5 78 44 44 13 12 44 46 44 46 42 41 34 33 29 27 25 24 19 17 12 23 13 23 36 34 11 9 24 
CALL[ ]	/* CallFunction */";
};
width = 472;
}
);
note = Aring;
unicode = 197;
},
{
glyphname = AE;
kernRight = E;
layers = (
{
layerId = m01;
shapes = (
{
closed = 1;
nodes = (
(28,0,o),
(20,0,qs),
(6,0,ls),
(2,0,o),
(4,4,qs),
(306,552,l),
(309,556,o),
(313,556,qs),
(588,556,ls),
(602,556,o),
(602,542,qs),
(602,539,ls),
(602,533,o),
(595,533,qs),
(349,533,l),
(349,285,l),
(568,285,ls),
(582,285,o),
(582,271,qs),
(582,268,ls),
(582,262,o),
(575,262,qs),
(349,262,l),
(349,23,l),
(598,23,ls),
(612,23,o),
(612,9,qs),
(612,6,ls),
(612,0,o),
(605,0,qs),
(326,0,ls),
(323,0,o),
(323,3,qs),
(323,182,l),
(129,182,l),
(32,8,ls)
);
},
{
closed = 1;
nodes = (
(323,533,l),
(142,205,l),
(323,205,l)
);
}
);
userData = {
assembly = "NPUSHB[ ]	/* 61 values pushed */
37 1 5 1 75 0 4 0 3 8 4 3 103 9 1 8 0 0 2 8 0 103 0 5 5 6 95 0 6 6 39 77 0 2 2 1 97 7 1 1 1 40 1 78 36 36 36 38 36 38 22 35 33 35 33 35 65 16 10 9 30 
CALL[ ]	/* CallFunction */";
};
width = 648;
}
);
note = AE;
unicode = 198;
},
{
glyphname = Ccedilla;
kernLeft = C;
kernRight = C;
layers = (
{
layerId = m01;
shapes = (
{
closed = 1;
nodes = (
(277,-88,o),
(261,-88,qs),
(243,-88,ls),
(236,-88,o),
(240,-82,qs),
(287,-11,l),
(191,-6,o),
(132,61,qs),
(63,139,o),
(63,278,qs),
(63,402,o),
(120,479,qs),
(186,567,o),
(307,567,qs),
(380,567,o),
(448,527,qs),
(464,517,o),
(472,506,o),
(469,498,qs),
(468,495,ls),
(465,488,o),
(462,488,qs),
(459,488,o),
(454,491,qs),
(453,492,o),
(452,493,qs),
(382,544,o),
(305,544,qs),
(212,544,o),
(155,481,qs),
(89,409,o),
(89,277,qs),
(89,163,o),
(140,93,qs),
(198,12,o),
(303,12,qs),
(359,12,o),
(441,63,o),
(461,109,qs),
(464,118,o),
(470,118,qs),
(479,118,o),
(479,106,qs),
(479,79,o),
(447,45,qs),
(399,-6,o),
(317,-11,q),
(282,-79,ls)
);
}
);
userData = {
assembly = "MPPEM[ ]	/* MeasurePixelPerEm */
PUSHB[ ]	/* 1 value pushed */
12 
LT[ ]	/* LessThan */
IF[ ]	/* If */
NPUSHB[ ]	/* 36 values pushed */
0 1 3 2 3 1 2 128 0 6 0 0 6 113 0 3 3 4 97 0 4 4 39 77 0 2 2 0 97 5 1 0 0 49 0 78 
ELSE[ ]	/* Else */
MPPEM[ ]	/* MeasurePixelPerEm */
PUSHB[ ]	/* 1 value pushed */
36 
LT[ ]	/* LessThan */
IF[ ]	/* If */
NPUSHB[ ]	/* 35 values pushed */
0 1 3 2 3 1 2 128 0 6 0 6 134 0 3 3 4 97 0 4 4 39 77 0 2 2 0 97 5 1 0 0 49 0 78 
ELSE[ ]	/* Else */
NPUSHB[ ]	/* 33 values pushed */
0 1 3 2 3 1 2 128 0 6 0 6 134 0 4 0 3 1 4 3 105 0 2 2 0 97 5 1 0 0 49 0 78 
EIF[ ]	/* EndIf */
EIF[ ]	/* EndIf */
NPUSHB[ ]	/* 10 values pushed */
50 22 44 38 36 20 16 7 9 29 
CALL[ ]	/* CallFunction */";
};
width = 505;
}
);
note = Ccedilla;
unicode = 199;
},
{
glyphname = Egrave;
kernRight = E;
layers = (
{
layerId = m01;
shapes = (
{
closed = 1;
nodes = (
(150,686,o),
(152,691,o),
(155,691,qs),
(178,691,ls),
(188,691,o),
(199,682,q),
(256,625,ls),
(262,619,o),
(253,619,qs),
(244,619,ls),
(231,619,o),
(219,629,qs),
(152,685,l)
);
},
{
closed = 1;
nodes = (
(371,23,o),
(371,9,qs),
(371,6,ls),
(371,0,o),
(365,0,qs),
(85,0,ls),
(82,0,o),
(82,3,qs),
(82,553,ls),
(82,556,o),
(85,556,qs),
(348,556,ls),
(361,556,o),
(361,542,qs),
(361,539,ls),
(361,533,o),
(355,533,qs),
(108,533,l),
(108,285,l),
(328,285,ls),
(341,285,o),
(341,271,qs),
(341,268,ls),
(341,262,o),
(335,262,qs),
(108,262,l),
(108,23,l),
(358,23,ls)
);
}
);
userData = {
assembly = "NPUSHB[ ]	/* 70 values pushed */
25 1 4 5 17 1 2 3 37 1 6 7 3 76 0 1 0 1 133 0 0 5 0 133 0 3 0 2 7 3 2 103 0 4 4 5 95 0 5 5 39 77 8 1 7 7 6 95 0 6 6 40 6 78 13 13 13 40 13 39 51 36 17 36 21 35 49 9 9 29 
CALL[ ]	/* CallFunction */";
};
width = 408;
}
);
note = Egrave;
unicode = 200;
},
{
glyphname = Eacute;
kernRight = E;
layers = (
{
layerId = m01;
shapes = (
{
closed = 1;
nodes = (
(207,619,o),
(194,619,qs),
(185,619,ls),
(175,619,o),
(182,625,qs),
(239,682,ls),
(248,691,o),
(260,691,qs),
(283,691,ls),
(286,691,o),
(288,686,o),
(286,685,q),
(219,629,ls)
);
},
{
closed = 1;
nodes = (
(371,23,o),
(371,9,qs),
(371,6,ls),
(371,0,o),
(365,0,qs),
(85,0,ls),
(82,0,o),
(82,3,qs),
(82,553,ls),
(82,556,o),
(85,556,qs),
(348,556,ls),
(361,556,o),
(361,542,qs),
(361,539,ls),
(361,533,o),
(355,533,qs),
(108,533,l),
(108,285,l),
(328,285,ls),
(341,285,o),
(341,271,qs),
(341,268,ls),
(341,262,o),
(335,262,qs),
(108,262,l),
(108,23,l),
(358,23,ls)
);
}
);
userData = {
assembly = "NPUSHB[ ]	/* 70 values pushed */
25 1 4 5 17 1 2 3 37 1 6 7 3 76 0 0 1 0 133 0 1 5 1 133 0 3 0 2 7 3 2 103 0 4 4 5 95 0 5 5 39 77 8 1 7 7 6 95 0 6 6 40 6 78 13 13 13 40 13 39 51 36 17 36 19 51 35 9 9 29 
CALL[ ]	/* CallFunction */";
};
width = 408;
}
);
note = Eacute;
unicode = 201;
},
{
glyphname = Ecircumflex;
kernRight = E;
layers = (
{
layerId = m01;
shapes = (
{
closed = 1;
nodes = (
(161,619,o),
(148,619,qs),
(140,619,ls),
(130,619,o),
(137,625,qs),
(194,682,ls),
(203,691,o),
(215,691,qs),
(232,691,ls),
(244,691,o),
(253,682,qs),
(311,625,l),
(316,619,o),
(308,619,qs),
(300,619,ls),
(285,619,o),
(275,629,qs),
(224,675,l),
(173,629,ls)
);
},
{
closed = 1;
nodes = (
(371,23,o),
(371,9,qs),
(371,6,ls),
(371,0,o),
(365,0,qs),
(85,0,ls),
(82,0,o),
(82,3,qs),
(82,553,ls),
(82,556,o),
(85,556,qs),
(348,556,ls),
(361,556,o),
(361,542,qs),
(361,539,ls),
(361,533,o),
(355,533,qs),
(108,533,l),
(108,285,l),
(328,285,ls),
(341,285,o),
(341,271,qs),
(341,268,ls),
(341,262,o),
(335,262,qs),
(108,262,l),
(108,23,l),
(358,23,ls)
);
}
);
userData = {
assembly = "NPUSHB[ ]	/* 72 values pushed */
31 1 5 6 23 1 3 4 43 1 7 8 3 76 0 1 0 1 133 2 1 0 6 0 133 0 4 0 3 8 4 3 103 0 5 5 6 95 0 6 6 39 77 9 1 8 8 7 95 0 7 7 40 7 78 19 19 19 46 19 45 51 36 17 36 19 51 51 50 10 9 30 
CALL[ ]	/* CallFunction */";
};
width = 408;
}
);
note = Ecircumflex;
unicode = 202;
},
{
glyphname = Edieresis;
kernRight = E;
layers = (
{
layerId = m01;
shapes = (
{
closed = 1;
nodes = (
(171,653,qs),
(190,653,o),
(190,634,qs),
(190,615,o),
(171,615,qs),
(153,615,o),
(153,634,qs),
(153,653,o)
);
},
{
closed = 1;
nodes = (
(262,653,qs),
(281,653,o),
(281,634,qs),
(281,615,o),
(262,615,qs),
(243,615,o),
(243,634,qs),
(243,653,o)
);
},
{
closed = 1;
nodes = (
(371,23,o),
(371,9,qs),
(371,6,ls),
(371,0,o),
(365,0,qs),
(85,0,ls),
(82,0,o),
(82,3,qs),
(82,553,ls),
(82,556,o),
(85,556,qs),
(348,556,ls),
(361,556,o),
(361,542,qs),
(361,539,ls),
(361,533,o),
(355,533,qs),
(108,533,l),
(108,285,l),
(328,285,ls),
(341,285,o),
(341,271,qs),
(341,268,ls),
(341,262,o),
(335,262,qs),
(108,262,l),
(108,23,l),
(358,23,ls)
);
}
);
userData = {
assembly = "NPUSHB[ ]	/* 72 values pushed */
28 1 6 7 20 1 4 5 40 1 8 9 3 76 3 1 1 2 1 0 7 1 0 105 0 5 0 4 9 5 4 103 0 6 6 7 95 0 7 7 39 77 10 1 9 9 8 95 0 8 8 40 8 78 16 16 16 43 16 42 51 36 17 36 18 34 34 34 33 11 9 31 
CALL[ ]	/* CallFunction */";
};
width = 408;
}
);
note = Edieresis;
unicode = 203;
},
{
glyphname = Igrave;
kernRight = I;
layers = (
{
layerId = m01;
shapes = (
{
closed = 1;
nodes = (
(34,686,o),
(36,691,o),
(39,691,qs),
(62,691,ls),
(72,691,o),
(83,682,q),
(141,625,l),
(146,619,o),
(137,619,qs),
(128,619,ls),
(115,619,o),
(103,629,qs),
(36,685,l)
);
},
{
closed = 1;
nodes = (
(83,556,o),
(87,556,qs),
(88,556,ls),
(110,556,o),
(110,528,qs),
(110,3,ls),
(110,0,o),
(107,0,qs),
(87,0,ls),
(83,0,o),
(83,3,qs),
(83,553,ls)
);
}
);
userData = {
assembly = "NPUSHB[ ]	/* 35 values pushed */
24 13 2 2 3 1 76 0 1 0 1 133 0 0 3 0 133 0 3 3 39 77 0 2 2 40 2 78 20 22 35 49 4 9 26 
CALL[ ]	/* CallFunction */";
};
width = 191;
}
);
note = Igrave;
unicode = 204;
},
{
glyphname = Iacute;
kernRight = I;
layers = (
{
layerId = m01;
shapes = (
{
closed = 1;
nodes = (
(63,619,o),
(50,619,qs),
(41,619,ls),
(32,619,o),
(38,625,qs),
(96,682,ls),
(104,691,o),
(117,691,qs),
(139,691,ls),
(142,691,o),
(144,686,o),
(142,685,q),
(75,629,ls)
);
},
{
closed = 1;
nodes = (
(87,556,o),
(90,556,qs),
(92,556,ls),
(113,556,o),
(113,528,qs),
(113,3,ls),
(113,0,o),
(110,0,qs),
(90,0,ls),
(87,0,o),
(87,3,qs),
(87,553,ls)
);
}
);
userData = {
assembly = "NPUSHB[ ]	/* 28 values pushed */
24 16 13 3 2 73 0 0 1 0 133 0 1 2 1 133 0 2 2 39 2 78 25 51 35 3 9 25 
CALL[ ]	/* CallFunction */";
};
width = 191;
}
);
note = Iacute;
unicode = 205;
},
{
glyphname = Icircumflex;
kernRight = I;
layers = (
{
layerId = m01;
shapes = (
{
closed = 1;
nodes = (
(36,619,o),
(23,619,qs),
(15,619,ls),
(6,619,o),
(12,625,qs),
(70,682,ls),
(78,691,o),
(91,691,qs),
(107,691,ls),
(120,691,o),
(128,682,qs),
(186,625,ls),
(192,619,o),
(183,619,qs),
(175,619,ls),
(161,619,o),
(150,629,qs),
(100,675,l),
(48,629,ls)
);
},
{
closed = 1;
nodes = (
(87,556,o),
(91,556,qs),
(92,556,ls),
(113,556,o),
(113,528,qs),
(113,3,ls),
(113,0,o),
(111,0,qs),
(91,0,ls),
(87,0,o),
(87,3,qs),
(87,553,ls)
);
}
);
userData = {
assembly = "NPUSHB[ ]	/* 37 values pushed */
30 19 2 3 4 1 76 0 1 0 1 133 2 1 0 4 0 133 0 4 4 39 77 0 3 3 40 3 78 20 20 51 51 50 5 9 27 
CALL[ ]	/* CallFunction */";
};
width = 191;
}
);
note = Icircumflex;
unicode = 206;
},
{
glyphname = Idieresis;
kernRight = I;
layers = (
{
layerId = m01;
shapes = (
{
closed = 1;
nodes = (
(49,653,qs),
(68,653,o),
(68,634,qs),
(68,615,o),
(49,615,qs),
(30,615,o),
(30,634,qs),
(30,653,o)
);
},
{
closed = 1;
nodes = (
(139,653,qs),
(158,653,o),
(158,634,qs),
(158,615,o),
(139,615,qs),
(121,615,o),
(121,634,qs),
(121,653,o)
);
},
{
closed = 1;
nodes = (
(82,556,o),
(86,556,qs),
(87,556,ls),
(108,556,o),
(108,528,qs),
(108,3,ls),
(108,0,o),
(106,0,qs),
(86,0,ls),
(82,0,o),
(82,3,qs),
(82,553,ls)
);
}
);
userData = {
assembly = "NPUSHB[ ]	/* 37 values pushed */
27 16 2 4 5 1 76 3 1 1 2 1 0 5 1 0 105 0 5 5 39 77 0 4 4 40 4 78 20 19 34 34 34 33 6 9 28 
CALL[ ]	/* CallFunction */";
};
width = 191;
}
);
note = Idieresis;
unicode = 207;
},
{
glyphname = Eth;
layers = (
{
layerId = m01;
shapes = (
{
closed = 1;
nodes = (
(24,266,o),
(24,269,qs),
(24,286,ls),
(24,289,o),
(27,289,qs),
(73,289,l),
(73,553,ls),
(73,556,o),
(77,556,qs),
(216,556,ls),
(474,556,o),
(474,286,qs),
(474,0,o),
(214,0,qs),
(77,0,ls),
(73,0,o),
(73,3,qs),
(73,266,l),
(27,266,ls)
);
},
{
closed = 1;
nodes = (
(448,23,o),
(448,284,qs),
(448,403,o),
(399,463,qs),
(342,533,o),
(216,533,qs),
(100,533,l),
(100,289,l),
(292,289,ls),
(306,289,o),
(306,276,qs),
(306,272,ls),
(306,266,o),
(299,266,qs),
(100,266,l),
(100,23,l),
(215,23,ls)
);
}
);
userData = {
assembly = "NPUSHB[ ]	/* 67 values pushed */
11 1 6 1 1 1 0 7 2 76 5 1 2 4 8 2 3 7 2 3 103 0 6 6 1 95 0 1 1 39 77 9 1 7 7 0 95 0 0 0 40 0 78 19 19 0 0 19 35 19 34 30 28 27 25 22 20 0 18 0 16 19 34 35 10 9 25 
CALL[ ]	/* CallFunction */";
};
width = 538;
}
);
note = Eth;
unicode = 208;
},
{
glyphname = Ntilde;
kernRight = N;
layers = (
{
layerId = m01;
shapes = (
{
closed = 1;
nodes = (
(171,616,o),
(171,621,qs),
(174,664,o),
(213,664,qs),
(225,664,o),
(253,652,qs),
(287,637,o),
(296,637,qs),
(313,637,o),
(316,654,qs),
(318,662,o),
(324,662,qs),
(339,662,ls),
(344,662,o),
(343,656,qs),
(336,614,o),
(296,614,qs),
(282,614,o),
(249,629,qs),
(223,641,o),
(213,641,qs),
(201,641,o),
(198,624,qs),
(197,616,o),
(191,616,qs),
(175,616,ls)
);
},
{
closed = 1;
nodes = (
(408,556,o),
(411,556,qs),
(413,556,ls),
(434,556,o),
(434,528,qs),
(434,7,ls),
(434,0,o),
(428,0,qs),
(420,0,ls),
(410,0,o),
(403,10,qs),
(108,491,l),
(108,3,ls),
(108,0,o),
(105,0,qs),
(85,0,ls),
(82,0,o),
(82,3,qs),
(82,553,ls),
(82,556,o),
(85,556,qs),
(86,556,ls),
(98,556,o),
(111,534,qs),
(408,49,l),
(408,553,ls)
);
}
);
userData = {
assembly = "NPUSHB[ ]	/* 70 values pushed */
23 1 1 3 51 45 39 33 32 26 6 7 6 2 76 36 1 7 73 4 1 2 0 0 3 2 0 105 0 3 9 5 2 1 6 3 1 106 8 1 6 6 39 77 0 7 7 40 7 78 0 0 48 47 43 41 29 28 0 25 0 25 34 35 34 34 35 10 9 27 
CALL[ ]	/* CallFunction */";
};
width = 517;
}
);
note = Ntilde;
unicode = 209;
},
{
glyphname = Ograve;
kernLeft = O;
kernRight = O;
layers = (
{
layerId = m01;
shapes = (
{
closed = 1;
nodes = (
(238,686,o),
(240,691,o),
(243,691,qs),
(266,691,ls),
(276,691,o),
(287,682,q),
(345,625,l),
(350,619,o),
(341,619,qs),
(332,619,ls),
(319,619,o),
(307,629,qs),
(240,685,l)
);
},
{
closed = 1;
nodes = (
(128,58,qs),
(63,132,o),
(63,277,qs),
(63,403,o),
(114,478,qs),
(174,567,o),
(293,567,qs),
(397,567,o),
(457,498,qs),
(522,422,o),
(522,277,qs),
(522,151,o),
(473,78,qs),
(414,-10,o),
(293,-10,qs),
(188,-10,o)
);
},
{
closed = 1;
nodes = (
(431,67,qs),
(496,135,o),
(496,277,qs),
(496,402,o),
(445,471,qs),
(392,544,o),
(293,544,qs),
(207,544,o),
(155,488,qs),
(89,419,o),
(89,277,qs),
(89,152,o),
(140,84,qs),
(194,13,o),
(293,13,qs),
(379,13,o)
);
}
);
userData = {
assembly = "MPPEM[ ]	/* MeasurePixelPerEm */
PUSHB[ ]	/* 1 value pushed */
36 
LT[ ]	/* LessThan */
IF[ ]	/* If */
NPUSHB[ ]	/* 33 values pushed */
0 1 0 1 133 0 0 3 0 133 0 5 5 3 97 0 3 3 39 77 7 1 4 4 2 97 6 1 2 2 46 2 78 
ELSE[ ]	/* Else */
NPUSHB[ ]	/* 31 values pushed */
0 1 0 1 133 0 0 3 0 133 0 3 0 5 4 3 5 106 7 1 4 4 2 97 6 1 2 2 46 2 78 
EIF[ ]	/* EndIf */
NPUSHB[ ]	/* 21 values pushed */
30 29 14 13 38 36 29 44 30 44 22 20 13 28 14 28 35 49 8 9 24 
CALL[ ]	/* CallFunction */";
};
width = 586;
}
);
note = Ograve;
unicode = 210;
},
{
glyphname = Oacute;
kernLeft = O;
kernRight = O;
layers = (
{
layerId = m01;
shapes = (
{
closed = 1;
nodes = (
(266,619,o),
(253,619,qs),
(244,619,ls),
(235,619,o),
(241,625,qs),
(299,682,ls),
(307,691,o),
(320,691,qs),
(342,691,ls),
(345,691,o),
(347,686,o),
(345,685,q),
(278,629,ls)
);
},
{
closed = 1;
nodes = (
(128,58,qs),
(63,132,o),
(63,277,qs),
(63,403,o),
(114,478,qs),
(174,567,o),
(293,567,qs),
(397,567,o),
(457,498,qs),
(522,422,o),
(522,277,qs),
(522,151,o),
(473,78,qs),
(414,-10,o),
(293,-10,qs),
(188,-10,o)
);
},
{
closed = 1;
nodes = (
(431,67,qs),
(496,135,o),
(496,277,qs),
(496,402,o),
(445,471,qs),
(392,544,o),
(293,544,qs),
(207,544,o),
(155,488,qs),
(89,419,o),
(89,277,qs),
(89,152,o),
(140,84,qs),
(194,13,o),
(293,13,qs),
(379,13,o)
);
}
);
userData = {
assembly = "MPPEM[ ]	/* MeasurePixelPerEm */
PUSHB[ ]	/* 1 value pushed */
36 
LT[ ]	/* LessThan */
IF[ ]	/* If */
NPUSHB[ ]	/* 33 values pushed */
0 0 1 0 133 0 1 3 1 133 0 5 5 3 97 0 3 3 39 77 7 1 4 4 2 97 6 1 2 2 46 2 78 
ELSE[ ]	/* Else */
NPUSHB[ ]	/* 31 values pushed */
0 0 1 0 133 0 1 3 1 133 0 3 0 5 4 3 5 106 7 1 4 4 2 97 6 1 2 2 46 2 78 
EIF[ ]	/* EndIf */
NPUSHB[ ]	/* 21 values pushed */
30 29 14 13 38 36 29 44 30 44 22 20 13 28 14 28 51 35 8 9 24 
CALL[ ]	/* CallFunction */";
};
width = 586;
}
);
note = Oacute;
unicode = 211;
},
{
glyphname = Ocircumflex;
kernLeft = O;
kernRight = O;
layers = (
{
layerId = m01;
shapes = (
{
closed = 1;
nodes = (
(231,619,o),
(217,619,qs),
(210,619,ls),
(200,619,o),
(207,625,qs),
(264,682,ls),
(273,691,o),
(285,691,qs),
(302,691,ls),
(314,691,o),
(323,682,qs),
(381,625,l),
(386,619,o),
(377,619,qs),
(370,619,ls),
(355,619,o),
(345,629,qs),
(294,675,l),
(242,629,ls)
);
},
{
closed = 1;
nodes = (
(128,58,qs),
(63,132,o),
(63,277,qs),
(63,403,o),
(114,478,qs),
(174,567,o),
(293,567,qs),
(397,567,o),
(457,498,qs),
(522,422,o),
(522,277,qs),
(522,151,o),
(473,78,qs),
(414,-10,o),
(293,-10,qs),
(188,-10,o)
);
},
{
closed = 1;
nodes = (
(431,67,qs),
(496,135,o),
(496,277,qs),
(496,402,o),
(445,471,qs),
(392,544,o),
(293,544,qs),
(207,544,o),
(155,488,qs),
(89,419,o),
(89,277,qs),
(89,152,o),
(140,84,qs),
(194,13,o),
(293,13,qs),
(379,13,o)
);
}
);
userData = {
assembly = "MPPEM[ ]	/* MeasurePixelPerEm */
PUSHB[ ]	/* 1 value pushed */
36 
LT[ ]	/* LessThan */
IF[ ]	/* If */
NPUSHB[ ]	/* 34 values pushed */
0 1 0 1 133 2 1 0 4 0 133 0 6 6 4 97 0 4 4 39 77 8 1 5 5 3 97 7 1 3 3 46 3 78 
ELSE[ ]	/* Else */
NPUSHB[ ]	/* 32 values pushed */
0 1 0 1 133 2 1 0 4 0 133 0 4 0 6 5 4 6 106 8 1 5 5 3 97 7 1 3 3 46 3 78 
EIF[ ]	/* EndIf */
NPUSHB[ ]	/* 22 values pushed */
36 35 20 19 44 42 35 50 36 50 28 26 19 34 20 34 51 51 50 9 9 25 
CALL[ ]	/* CallFunction */";
};
width = 586;
}
);
note = Ocircumflex;
unicode = 212;
},
{
glyphname = Otilde;
kernLeft = O;
kernRight = O;
layers = (
{
layerId = m01;
shapes = (
{
closed = 1;
nodes = (
(206,616,o),
(206,621,qs),
(209,664,o),
(248,664,qs),
(260,664,o),
(288,652,qs),
(322,637,o),
(331,637,qs),
(348,637,o),
(351,654,qs),
(353,662,o),
(359,662,qs),
(374,662,ls),
(379,662,o),
(378,656,qs),
(371,614,o),
(331,614,qs),
(316,614,o),
(284,629,qs),
(258,641,o),
(248,641,qs),
(236,641,o),
(233,624,qs),
(231,616,o),
(226,616,qs),
(210,616,ls)
);
},
{
closed = 1;
nodes = (
(128,58,qs),
(63,132,o),
(63,277,qs),
(63,403,o),
(114,478,qs),
(174,567,o),
(293,567,qs),
(397,567,o),
(457,498,qs),
(522,422,o),
(522,277,qs),
(522,151,o),
(473,78,qs),
(414,-10,o),
(293,-10,qs),
(188,-10,o)
);
},
{
closed = 1;
nodes = (
(431,67,qs),
(496,135,o),
(496,277,qs),
(496,402,o),
(445,471,qs),
(392,544,o),
(293,544,qs),
(207,544,o),
(155,488,qs),
(89,419,o),
(89,277,qs),
(89,152,o),
(140,84,qs),
(194,13,o),
(293,13,qs),
(379,13,o)
);
}
);
userData = {
assembly = "PUSHB[ ]	/* 6 values pushed */
23 1 1 3 1 76 
MPPEM[ ]	/* MeasurePixelPerEm */
PUSHB[ ]	/* 1 value pushed */
36 
LT[ ]	/* LessThan */
IF[ ]	/* If */
NPUSHB[ ]	/* 42 values pushed */
4 1 2 0 0 3 2 0 105 0 3 10 5 2 1 7 3 1 106 0 9 9 7 97 0 7 7 39 77 12 1 8 8 6 97 11 1 6 6 46 6 78 
ELSE[ ]	/* Else */
NPUSHB[ ]	/* 40 values pushed */
4 1 2 0 0 3 2 0 105 0 3 10 5 2 1 7 3 1 106 0 7 0 9 8 7 9 105 12 1 8 8 6 97 11 1 6 6 46 6 78 
EIF[ ]	/* EndIf */
NPUSHB[ ]	/* 30 values pushed */
43 42 27 26 0 0 51 49 42 57 43 57 35 33 26 41 27 41 0 25 0 25 34 35 34 34 35 13 9 27 
CALL[ ]	/* CallFunction */";
};
width = 586;
}
);
note = Otilde;
unicode = 213;
},
{
glyphname = Odieresis;
kernLeft = O;
kernRight = O;
layers = (
{
layerId = m01;
shapes = (
{
closed = 1;
nodes = (
(248,653,qs),
(267,653,o),
(267,634,qs),
(267,615,o),
(248,615,qs),
(229,615,o),
(229,634,qs),
(229,653,o)
);
},
{
closed = 1;
nodes = (
(339,653,qs),
(357,653,o),
(357,634,qs),
(357,615,o),
(339,615,qs),
(320,615,o),
(320,634,qs),
(320,653,o)
);
},
{
closed = 1;
nodes = (
(128,58,qs),
(63,132,o),
(63,277,qs),
(63,403,o),
(114,478,qs),
(174,567,o),
(293,567,qs),
(397,567,o),
(457,498,qs),
(522,422,o),
(522,277,qs),
(522,151,o),
(473,78,qs),
(414,-10,o),
(293,-10,qs),
(188,-10,o)
);
},
{
closed = 1;
nodes = (
(431,67,qs),
(496,135,o),
(496,277,qs),
(496,402,o),
(445,471,qs),
(392,544,o),
(293,544,qs),
(207,544,o),
(155,488,qs),
(89,419,o),
(89,277,qs),
(89,152,o),
(140,84,qs),
(194,13,o),
(293,13,qs),
(379,13,o)
);
}
);
userData = {
assembly = "MPPEM[ ]	/* MeasurePixelPerEm */
PUSHB[ ]	/* 1 value pushed */
36 
LT[ ]	/* LessThan */
IF[ ]	/* If */
NPUSHB[ ]	/* 33 values pushed */
3 1 1 2 1 0 5 1 0 105 0 7 7 5 97 0 5 5 39 77 9 1 6 6 4 97 8 1 4 4 46 4 78 
ELSE[ ]	/* Else */
NPUSHB[ ]	/* 31 values pushed */
3 1 1 2 1 0 5 1 0 105 0 5 0 7 6 5 7 105 9 1 6 6 4 97 8 1 4 4 46 4 78 
EIF[ ]	/* EndIf */
NPUSHB[ ]	/* 23 values pushed */
33 32 17 16 41 39 32 47 33 47 25 23 16 31 17 31 34 34 34 33 10 9 26 
CALL[ ]	/* CallFunction */";
};
width = 586;
}
);
note = Odieresis;
unicode = 214;
},
{
glyphname = multiply;
layers = (
{
layerId = m01;
shapes = (
{
closed = 1;
nodes = (
(77,141,o),
(75,143,qs),
(63,154,ls),
(60,157,o),
(63,159,q),
(179,276,l),
(63,392,l),
(60,394,o),
(63,397,qs),
(77,410,o),
(97,389,qs),
(195,291,l),
(310,406,ls),
(312,408,o),
(315,406,q),
(325,393,l),
(328,392,o),
(325,389,qs),
(211,276,l),
(329,158,l),
(330,156,o),
(329,155,q),
(329,154,l),
(318,142,l),
(315,140,o),
(313,142,qs),
(195,259,l),
(79,143,ls)
);
}
);
userData = {
assembly = "PUSHB[ ]	/* 4 values pushed */
17 2 1 50 
CALL[ ]	/* CallFunction */";
};
width = 388;
}
);
note = multiply;
unicode = 215;
},
{
glyphname = Oslash;
kernLeft = O;
kernRight = O;
layers = (
{
layerId = m01;
shapes = (
{
closed = 1;
nodes = (
(128,58,qs),
(63,132,o),
(63,277,qs),
(63,403,o),
(114,478,qs),
(174,567,o),
(293,567,qs),
(397,567,o),
(457,498,qs),
(522,422,o),
(522,277,qs),
(522,151,o),
(473,78,qs),
(414,-10,o),
(293,-10,qs),
(188,-10,o)
);
},
{
closed = 1;
nodes = (
(369,544,o),
(293,544,qs),
(207,544,o),
(155,488,qs),
(89,419,o),
(89,277,qs),
(89,143,o),
(149,73,q),
(420,499,l)
);
},
{
closed = 1;
nodes = (
(216,13,o),
(293,13,qs),
(379,13,o),
(431,67,qs),
(496,135,o),
(496,277,qs),
(496,412,o),
(436,482,q),
(166,57,l)
);
}
);
userData = {
assembly = "PUSHB[ ]	/* 7 values pushed */
33 24 2 3 2 1 76 
MPPEM[ ]	/* MeasurePixelPerEm */
PUSHB[ ]	/* 1 value pushed */
36 
LT[ ]	/* LessThan */
IF[ ]	/* If */
NPUSHB[ ]	/* 22 values pushed */
0 2 2 1 97 0 1 1 39 77 0 3 3 0 97 4 1 0 0 46 0 78 
ELSE[ ]	/* Else */
NPUSHB[ ]	/* 20 values pushed */
0 1 0 2 3 1 2 105 0 3 3 0 97 4 1 0 0 46 0 78 
EIF[ ]	/* EndIf */
NPUSHB[ ]	/* 15 values pushed */
1 0 32 30 23 21 9 7 0 15 1 15 5 9 22 
CALL[ ]	/* CallFunction */";
};
width = 586;
}
);
note = Oslash;
unicode = 216;
},
{
glyphname = Ugrave;
kernLeft = U;
kernRight = U;
layers = (
{
layerId = m01;
shapes = (
{
closed = 1;
nodes = (
(190,686,o),
(192,691,o),
(195,691,qs),
(217,691,ls),
(228,691,o),
(239,682,q),
(296,625,ls),
(302,619,o),
(293,619,qs),
(284,619,ls),
(271,619,o),
(259,629,qs),
(192,685,l)
);
},
{
closed = 1;
nodes = (
(78,194,qs),
(78,553,ls),
(78,556,o),
(81,556,qs),
(82,556,ls),
(104,556,o),
(104,528,qs),
(104,191,ls),
(104,13,o),
(255,13,qs),
(323,13,o),
(361,53,qs),
(405,99,o),
(405,192,qs),
(405,553,ls),
(405,556,o),
(407,556,qs),
(410,556,ls),
(431,556,o),
(431,528,qs),
(431,197,ls),
(431,103,o),
(391,50,qs),
(345,-10,o),
(254,-10,qs),
(78,-10,o)
);
}
);
userData = {
assembly = "NPUSHB[ ]	/* 52 values pushed */
36 23 2 4 3 1 76 0 1 0 1 133 0 0 3 0 133 5 1 3 3 39 77 0 4 4 2 97 6 1 2 2 46 2 78 14 13 33 32 29 27 20 19 13 38 14 38 35 49 7 9 24 
CALL[ ]	/* CallFunction */";
};
width = 508;
}
);
note = Ugrave;
unicode = 217;
},
{
glyphname = Uacute;
kernLeft = U;
kernRight = U;
layers = (
{
layerId = m01;
shapes = (
{
closed = 1;
nodes = (
(227,619,o),
(214,619,qs),
(205,619,ls),
(196,619,o),
(202,625,qs),
(260,682,ls),
(269,691,o),
(281,691,qs),
(304,691,ls),
(306,691,o),
(308,686,o),
(306,685,q),
(239,629,ls)
);
},
{
closed = 1;
nodes = (
(78,194,qs),
(78,553,ls),
(78,556,o),
(81,556,qs),
(82,556,ls),
(104,556,o),
(104,528,qs),
(104,191,ls),
(104,13,o),
(255,13,qs),
(323,13,o),
(361,53,qs),
(405,99,o),
(405,192,qs),
(405,553,ls),
(405,556,o),
(407,556,qs),
(410,556,ls),
(431,556,o),
(431,528,qs),
(431,197,ls),
(431,103,o),
(391,50,qs),
(345,-10,o),
(254,-10,qs),
(78,-10,o)
);
}
);
userData = {
assembly = "NPUSHB[ ]	/* 52 values pushed */
36 23 2 4 3 1 76 0 0 1 0 133 0 1 3 1 133 5 1 3 3 39 77 0 4 4 2 97 6 1 2 2 46 2 78 14 13 33 32 29 27 20 19 13 38 14 38 51 35 7 9 24 
CALL[ ]	/* CallFunction */";
};
width = 508;
}
);
note = Uacute;
unicode = 218;
},
{
glyphname = Ucircumflex;
kernLeft = U;
kernRight = U;
layers = (
{
layerId = m01;
shapes = (
{
closed = 1;
nodes = (
(191,619,o),
(178,619,qs),
(170,619,ls),
(161,619,o),
(167,625,qs),
(225,682,ls),
(234,691,o),
(246,691,qs),
(262,691,ls),
(275,691,o),
(284,682,qs),
(341,625,ls),
(347,619,o),
(338,619,qs),
(330,619,ls),
(316,619,o),
(305,629,qs),
(255,675,l),
(203,629,ls)
);
},
{
closed = 1;
nodes = (
(78,194,qs),
(78,553,ls),
(78,556,o),
(81,556,qs),
(82,556,ls),
(104,556,o),
(104,528,qs),
(104,191,ls),
(104,13,o),
(255,13,qs),
(323,13,o),
(361,53,qs),
(405,99,o),
(405,192,qs),
(405,553,ls),
(405,556,o),
(407,556,qs),
(410,556,ls),
(431,556,o),
(431,528,qs),
(431,197,ls),
(431,103,o),
(391,50,qs),
(345,-10,o),
(254,-10,qs),
(78,-10,o)
);
}
);
userData = {
assembly = "NPUSHB[ ]	/* 54 values pushed */
42 29 2 5 4 1 76 0 1 0 1 133 2 1 0 4 0 133 6 1 4 4 39 77 0 5 5 3 97 7 1 3 3 46 3 78 20 19 39 38 35 33 26 25 19 44 20 44 51 51 50 8 9 25 
CALL[ ]	/* CallFunction */";
};
width = 508;
}
);
note = Ucircumflex;
unicode = 219;
},
{
glyphname = Udieresis;
kernLeft = U;
kernRight = U;
layers = (
{
layerId = m01;
shapes = (
{
closed = 1;
nodes = (
(205,653,qs),
(224,653,o),
(224,634,qs),
(224,615,o),
(205,615,qs),
(186,615,o),
(186,634,qs),
(186,653,o)
);
},
{
closed = 1;
nodes = (
(296,653,qs),
(315,653,o),
(315,634,qs),
(315,615,o),
(296,615,qs),
(277,615,o),
(277,634,qs),
(277,653,o)
);
},
{
closed = 1;
nodes = (
(78,194,qs),
(78,553,ls),
(78,556,o),
(81,556,qs),
(82,556,ls),
(104,556,o),
(104,528,qs),
(104,191,ls),
(104,13,o),
(255,13,qs),
(323,13,o),
(361,53,qs),
(405,99,o),
(405,192,qs),
(405,553,ls),
(405,556,o),
(407,556,qs),
(410,556,ls),
(431,556,o),
(431,528,qs),
(431,197,ls),
(431,103,o),
(391,50,qs),
(345,-10,o),
(254,-10,qs),
(78,-10,o)
);
}
);
userData = {
assembly = "NPUSHB[ ]	/* 54 values pushed */
39 26 2 6 5 1 76 3 1 1 2 1 0 5 1 0 105 7 1 5 5 39 77 0 6 6 4 97 8 1 4 4 46 4 78 17 16 36 35 32 30 23 22 16 41 17 41 34 34 34 33 9 9 26 
CALL[ ]	/* CallFunction */";
};
width = 508;
}
);
note = Udieresis;
unicode = 220;
},
{
glyphname = Yacute;
kernLeft = Y;
kernRight = Y;
layers = (
{
layerId = m01;
shapes = (
{
closed = 1;
nodes = (
(185,619,o),
(172,619,qs),
(163,619,ls),
(154,619,o),
(161,625,qs),
(218,682,ls),
(227,691,o),
(239,691,qs),
(262,691,ls),
(264,691,o),
(266,686,o),
(264,685,q),
(197,629,ls)
);
},
{
closed = 1;
nodes = (
(14,556,o),
(19,556,qs),
(23,556,ls),
(41,556,o),
(54,533,qs),
(210,247,l),
(378,547,ls),
(383,556,o),
(392,556,qs),
(404,556,ls),
(410,556,o),
(408,552,qs),
(223,223,l),
(223,3,ls),
(223,0,o),
(220,0,qs),
(200,0,ls),
(197,0,o),
(197,3,qs),
(197,223,l),
(16,552,ls)
);
}
);
userData = {
assembly = "NPUSHB[ ]	/* 32 values pushed */
27 20 17 14 13 5 2 73 0 0 1 0 133 0 1 2 1 133 3 1 2 2 39 2 78 52 44 51 35 4 9 26 
CALL[ ]	/* CallFunction */";
};
width = 421;
}
);
note = Yacute;
unicode = 221;
},
{
glyphname = Thorn;
layers = (
{
layerId = m01;
shapes = (
{
closed = 1;
nodes = (
(108,0,o),
(105,0,qs),
(85,0,ls),
(82,0,o),
(82,3,qs),
(82,553,ls),
(82,556,o),
(85,556,qs),
(87,556,ls),
(108,556,o),
(108,528,qs),
(108,444,l),
(263,444,ls),
(335,444,o),
(380,408,qs),
(433,364,o),
(433,281,qs),
(433,207,o),
(395,164,qs),
(351,114,o),
(265,114,qs),
(108,114,l),
(108,3,ls)
);
},
{
closed = 1;
nodes = (
(320,137,o),
(356,162,qs),
(407,198,o),
(407,281,qs),
(407,342,o),
(374,379,qs),
(336,421,o),
(267,421,qs),
(108,421,l),
(108,137,l),
(263,137,ls)
);
}
);
userData = {
assembly = "NPUSHB[ ]	/* 46 values pushed */
16 1 1 2 1 76 20 17 2 0 73 0 1 0 3 4 1 3 103 5 1 4 0 0 4 0 99 0 2 2 39 2 78 23 23 23 33 23 32 43 18 38 32 6 9 26 
CALL[ ]	/* CallFunction */";
};
width = 475;
}
);
note = Thorn;
unicode = 222;
},
{
glyphname = germandbls;
layers = (
{
layerId = m01;
shapes = (
{
closed = 1;
nodes = (
(68,0,o),
(68,3,qs),
(68,418,ls),
(68,567,o),
(190,567,qs),
(237,567,o),
(269,541,qs),
(305,510,o),
(305,460,qs),
(305,430,o),
(279,385,qs),
(247,330,o),
(247,307,qs),
(247,282,o),
(292,244,qs),
(341,201,o),
(373,151,o),
(373,116,qs),
(373,66,o),
(343,31,qs),
(307,-11,o),
(250,-11,qs),
(204,-11,o),
(134,41,o),
(134,74,qs),
(134,87,o),
(140,87,qs),
(145,87,o),
(149,78,qs),
(179,12,o),
(249,12,qs),
(293,12,o),
(347,69,o),
(347,116,qs),
(347,162,o),
(291,212,qs),
(243,254,o),
(222,283,o),
(222,305,qs),
(222,332,o),
(248,378,qs),
(280,433,o),
(280,458,qs),
(280,498,o),
(232,544,o),
(190,544,qs),
(94,544,o),
(94,416,qs),
(94,3,ls),
(94,0,o),
(91,0,qs),
(71,0,ls)
);
}
);
userData = {
assembly = "PUSHB[ ]	/* 7 values pushed */
49 0 2 3 1 1 76 
MPPEM[ ]	/* MeasurePixelPerEm */
PUSHB[ ]	/* 1 value pushed */
36 
LT[ ]	/* LessThan */
IF[ ]	/* If */
NPUSHB[ ]	/* 29 values pushed */
0 2 0 1 0 2 1 128 0 0 0 4 97 0 4 4 39 77 0 1 1 3 97 0 3 3 46 3 78 
ELSE[ ]	/* Else */
NPUSHB[ ]	/* 27 values pushed */
0 2 0 1 0 2 1 128 0 4 0 0 2 4 0 105 0 1 1 3 97 0 3 3 46 3 78 
EIF[ ]	/* EndIf */
PUSHB[ ]	/* 8 values pushed */
47 35 34 45 36 5 9 27 
CALL[ ]	/* CallFunction */";
};
width = 409;
}
);
note = germandbls;
unicode = 223;
},
{
glyphname = agrave;
kernLeft = a;
layers = (
{
layerId = m01;
shapes = (
{
closed = 1;
nodes = (
(166,498,o),
(168,502,o),
(171,502,qs),
(194,502,ls),
(205,502,o),
(215,493,qs),
(273,436,ls),
(278,431,o),
(269,431,qs),
(261,431,ls),
(247,431,o),
(236,440,qs),
(168,496,ls)
);
},
{
closed = 1;
nodes = (
(348,360,o),
(369,360,qs),
(371,360,ls),
(374,360,o),
(374,357,qs),
(374,3,ls),
(374,0,o),
(371,0,qs),
(351,0,ls),
(348,0,o),
(348,3,qs),
(348,74,l),
(332,35,o),
(261,-9,o),
(214,-9,qs),
(146,-9,o),
(101,37,qs),
(50,90,o),
(50,179,qs),
(50,255,o),
(90,307,qs),
(136,367,o),
(213,367,qs),
(258,367,o),
(333,321,o),
(348,284,q),
(348,332,ls)
);
},
{
closed = 1;
nodes = (
(309,51,qs),
(349,94,o),
(349,179,qs),
(349,253,o),
(318,296,qs),
(283,345,o),
(213,345,qs),
(155,345,o),
(118,305,qs),
(76,260,o),
(76,179,qs),
(76,109,o),
(109,64,qs),
(147,13,o),
(214,13,qs),
(274,13,o)
);
}
);
userData = {
assembly = "NPUSHB[ ]	/* 69 values pushed */
34 1 6 4 27 13 2 5 6 31 28 2 3 5 3 76 0 1 0 1 133 0 0 2 0 133 0 4 4 42 77 0 6 6 2 97 0 2 2 48 77 7 1 5 5 3 97 0 3 3 49 3 78 41 40 49 47 40 55 41 55 28 38 38 35 49 8 9 27 
CALL[ ]	/* CallFunction */";
};
width = 441;
}
);
note = agrave;
unicode = 224;
},
{
glyphname = aacute;
kernLeft = a;
layers = (
{
layerId = m01;
shapes = (
{
closed = 1;
nodes = (
(194,431,o),
(181,431,qs),
(172,431,ls),
(163,431,o),
(169,436,qs),
(227,493,ls),
(236,502,o),
(248,502,qs),
(271,502,ls),
(273,502,o),
(275,498,o),
(273,496,qs),
(206,440,ls)
);
},
{
closed = 1;
nodes = (
(348,360,o),
(369,360,qs),
(371,360,ls),
(374,360,o),
(374,357,qs),
(374,3,ls),
(374,0,o),
(371,0,qs),
(351,0,ls),
(348,0,o),
(348,3,qs),
(348,74,l),
(332,35,o),
(261,-9,o),
(214,-9,qs),
(146,-9,o),
(101,37,qs),
(50,90,o),
(50,179,qs),
(50,255,o),
(90,307,qs),
(136,367,o),
(213,367,qs),
(258,367,o),
(333,321,o),
(348,284,q),
(348,332,ls)
);
},
{
closed = 1;
nodes = (
(309,51,qs),
(349,94,o),
(349,179,qs),
(349,253,o),
(318,296,qs),
(283,345,o),
(213,345,qs),
(155,345,o),
(118,305,qs),
(76,260,o),
(76,179,qs),
(76,109,o),
(109,64,qs),
(147,13,o),
(214,13,qs),
(274,13,o)
);
}
);
userData = {
assembly = "NPUSHB[ ]	/* 69 values pushed */
34 1 6 4 27 13 2 5 6 31 28 2 3 5 3 76 0 0 1 0 133 0 1 2 1 133 0 4 4 42 77 0 6 6 2 97 0 2 2 48 77 7 1 5 5 3 97 0 3 3 49 3 78 41 40 49 47 40 55 41 55 28 38 36 51 35 8 9 27 
CALL[ ]	/* CallFunction */";
};
width = 441;
}
);
note = aacute;
unicode = 225;
},
{
glyphname = acircumflex;
kernLeft = a;
layers = (
{
layerId = m01;
shapes = (
{
closed = 1;
nodes = (
(158,431,o),
(145,431,qs),
(137,431,ls),
(128,431,o),
(134,436,qs),
(192,493,ls),
(201,502,o),
(213,502,qs),
(229,502,ls),
(242,502,o),
(251,493,qs),
(308,436,ls),
(314,431,o),
(305,431,qs),
(297,431,ls),
(283,431,o),
(272,440,qs),
(222,486,l),
(170,440,l)
);
},
{
closed = 1;
nodes = (
(348,360,o),
(369,360,qs),
(371,360,ls),
(374,360,o),
(374,357,qs),
(374,3,ls),
(374,0,o),
(371,0,qs),
(351,0,ls),
(348,0,o),
(348,3,qs),
(348,74,l),
(332,35,o),
(261,-9,o),
(214,-9,qs),
(146,-9,o),
(101,37,qs),
(50,90,o),
(50,179,qs),
(50,255,o),
(90,307,qs),
(136,367,o),
(213,367,qs),
(258,367,o),
(333,321,o),
(348,284,q),
(348,332,ls)
);
},
{
closed = 1;
nodes = (
(309,51,qs),
(349,94,o),
(349,179,qs),
(349,253,o),
(318,296,qs),
(283,345,o),
(213,345,qs),
(155,345,o),
(118,305,qs),
(76,260,o),
(76,179,qs),
(76,109,o),
(109,64,qs),
(147,13,o),
(214,13,qs),
(274,13,o)
);
}
);
userData = {
assembly = "NPUSHB[ ]	/* 71 values pushed */
40 1 7 5 33 19 2 6 7 37 34 2 4 6 3 76 0 1 0 1 133 2 1 0 3 0 133 0 5 5 42 77 0 7 7 3 97 0 3 3 48 77 8 1 6 6 4 97 0 4 4 49 4 78 47 46 55 53 46 61 47 61 28 38 36 51 51 50 9 9 28 
CALL[ ]	/* CallFunction */";
};
width = 441;
}
);
note = acircumflex;
unicode = 226;
},
{
glyphname = atilde;
kernLeft = a;
layers = (
{
layerId = m01;
shapes = (
{
closed = 1;
nodes = (
(128,427,o),
(128,432,qs),
(131,475,o),
(170,475,qs),
(182,475,o),
(210,463,qs),
(244,448,o),
(253,448,qs),
(270,448,o),
(273,465,qs),
(275,473,o),
(281,473,qs),
(296,473,ls),
(301,473,o),
(300,467,qs),
(293,426,o),
(253,426,qs),
(238,426,o),
(206,440,qs),
(180,452,o),
(170,452,qs),
(158,452,o),
(155,436,qs),
(153,427,o),
(148,427,qs),
(132,427,ls)
);
},
{
closed = 1;
nodes = (
(348,360,o),
(369,360,qs),
(371,360,ls),
(374,360,o),
(374,357,qs),
(374,3,ls),
(374,0,o),
(371,0,qs),
(351,0,ls),
(348,0,o),
(348,3,qs),
(348,74,l),
(332,35,o),
(261,-9,o),
(214,-9,qs),
(146,-9,o),
(101,37,qs),
(50,90,o),
(50,179,qs),
(50,255,o),
(90,307,qs),
(136,367,o),
(213,367,qs),
(258,367,o),
(333,321,o),
(348,284,q),
(348,332,ls)
);
},
{
closed = 1;
nodes = (
(309,51,qs),
(349,94,o),
(349,179,qs),
(349,253,o),
(318,296,qs),
(283,345,o),
(213,345,qs),
(155,345,o),
(118,305,qs),
(76,260,o),
(76,179,qs),
(76,109,o),
(109,64,qs),
(147,13,o),
(214,13,qs),
(274,13,o)
);
}
);
userData = {
assembly = "NPUSHB[ ]	/* 94 values pushed */
23 1 1 3 47 1 10 8 40 26 2 9 10 44 41 2 7 9 4 76 4 1 2 0 0 3 2 0 105 0 3 11 5 2 1 6 3 1 106 0 8 8 42 77 0 10 10 6 97 0 6 6 48 77 12 1 9 9 7 97 0 7 7 49 7 78 54 53 0 0 62 60 53 68 54 68 51 50 38 36 30 28 0 25 0 25 34 35 34 34 35 13 9 27 
CALL[ ]	/* CallFunction */";
};
width = 441;
}
);
note = atilde;
unicode = 227;
},
{
glyphname = adieresis;
kernLeft = a;
layers = (
{
layerId = m01;
shapes = (
{
closed = 1;
nodes = (
(169,464,qs),
(188,464,o),
(188,445,qs),
(188,426,o),
(169,426,qs),
(150,426,o),
(150,445,qs),
(150,464,o)
);
},
{
closed = 1;
nodes = (
(259,464,qs),
(278,464,o),
(278,445,qs),
(278,426,o),
(259,426,qs),
(241,426,o),
(241,445,qs),
(241,464,o)
);
},
{
closed = 1;
nodes = (
(348,360,o),
(369,360,qs),
(371,360,ls),
(374,360,o),
(374,357,qs),
(374,3,ls),
(374,0,o),
(371,0,qs),
(351,0,ls),
(348,0,o),
(348,3,qs),
(348,74,l),
(332,35,o),
(261,-9,o),
(214,-9,qs),
(146,-9,o),
(101,37,qs),
(50,90,o),
(50,179,qs),
(50,255,o),
(90,307,qs),
(136,367,o),
(213,367,qs),
(258,367,o),
(333,321,o),
(348,284,q),
(348,332,ls)
);
},
{
closed = 1;
nodes = (
(309,51,qs),
(349,94,o),
(349,179,qs),
(349,253,o),
(318,296,qs),
(283,345,o),
(213,345,qs),
(155,345,o),
(118,305,qs),
(76,260,o),
(76,179,qs),
(76,109,o),
(109,64,qs),
(147,13,o),
(214,13,qs),
(274,13,o)
);
}
);
userData = {
assembly = "NPUSHB[ ]	/* 71 values pushed */
37 1 8 6 30 16 2 7 8 34 31 2 5 7 3 76 3 1 1 2 1 0 4 1 0 105 0 6 6 42 77 0 8 8 4 97 0 4 4 48 77 9 1 7 7 5 97 0 5 5 49 5 78 44 43 52 50 43 58 44 58 28 38 35 34 34 34 33 10 9 29 
CALL[ ]	/* CallFunction */";
};
width = 441;
}
);
note = adieresis;
unicode = 228;
},
{
glyphname = aring;
kernLeft = a;
layers = (
{
layerId = m01;
shapes = (
{
closed = 1;
nodes = (
(195,519,o),
(217,519,qs),
(239,519,o),
(272,486,o),
(272,463,qs),
(272,442,o),
(239,409,o),
(217,409,qs),
(195,409,o),
(162,442,o),
(162,463,qs),
(162,486,o)
);
},
{
closed = 1;
nodes = (
(251,448,o),
(251,463,qs),
(251,479,o),
(232,499,o),
(217,499,qs),
(202,499,o),
(183,479,o),
(183,463,qs),
(183,448,o),
(202,428,o),
(217,428,qs),
(231,428,o)
);
},
{
closed = 1;
nodes = (
(348,360,o),
(369,360,qs),
(371,360,ls),
(374,360,o),
(374,357,qs),
(374,3,ls),
(374,0,o),
(371,0,qs),
(351,0,ls),
(348,0,o),
(348,3,qs),
(348,74,l),
(332,35,o),
(261,-9,o),
(214,-9,qs),
(146,-9,o),
(101,37,qs),
(50,90,o),
(50,179,qs),
(50,255,o),
(90,307,qs),
(136,367,o),
(213,367,qs),
(258,367,o),
(333,321,o),
(348,284,q),
(348,332,ls)
);
},
{
closed = 1;
nodes = (
(309,51,qs),
(349,94,o),
(349,179,qs),
(349,253,o),
(318,296,qs),
(283,345,o),
(213,345,qs),
(155,345,o),
(118,305,qs),
(76,260,o),
(76,179,qs),
(76,109,o),
(109,64,qs),
(147,13,o),
(214,13,qs),
(274,13,o)
);
}
);
userData = {
assembly = "NPUSHB[ ]	/* 87 values pushed */
45 1 8 6 38 24 2 7 8 42 39 2 5 7 3 76 0 1 0 3 2 1 3 105 9 1 2 0 0 4 2 0 105 0 6 6 42 77 0 8 8 4 97 0 4 4 48 77 10 1 7 7 5 97 0 5 5 49 5 78 52 51 13 12 60 58 51 66 52 66 49 48 36 34 28 26 19 17 12 23 13 23 36 34 11 9 24 
CALL[ ]	/* CallFunction */";
};
width = 441;
}
);
note = aring;
unicode = 229;
},
{
glyphname = ae;
kernLeft = a;
kernRight = e;
layers = (
{
layerId = m01;
shapes = (
{
closed = 1;
nodes = (
(373,0,o),
(370,0,qs),
(350,0,ls),
(347,0,o),
(347,3,qs),
(347,74,l),
(332,35,o),
(261,-9,o),
(213,-9,qs),
(145,-9,o),
(100,37,qs),
(49,90,o),
(49,179,qs),
(49,255,o),
(89,307,qs),
(136,367,o),
(212,367,qs),
(258,367,o),
(332,321,o),
(347,284,q),
(347,332,ls),
(347,360,o),
(368,360,qs),
(370,360,ls),
(373,360,o),
(373,357,qs),
(373,284,l),
(412,367,o),
(501,367,qs),
(560,367,o),
(598,326,qs),
(642,279,o),
(642,203,qs),
(642,192,o),
(642,183,q),
(640,172,o),
(628,172,qs),
(373,172,l),
(375,101,o),
(405,60,qs),
(440,13,o),
(506,13,qs),
(595,13,o),
(623,81,q),
(628,89,o),
(633,89,qs),
(640,89,o),
(640,78,qs),
(640,55,o),
(614,30,qs),
(575,-9,o),
(506,-9,qs),
(412,-9,o),
(373,71,q),
(373,3,ls)
);
},
{
closed = 1;
nodes = (
(309,51,qs),
(348,94,o),
(348,179,qs),
(348,253,o),
(318,296,qs),
(282,345,o),
(212,345,qs),
(154,345,o),
(117,305,qs),
(75,260,o),
(75,179,qs),
(75,109,o),
(108,64,qs),
(146,13,o),
(213,13,qs),
(274,13,o)
);
},
{
closed = 1;
nodes = (
(619,257,o),
(590,298,qs),
(558,345,o),
(501,345,qs),
(448,345,o),
(415,310,qs),
(378,271,o),
(373,194,q),
(617,194,l)
);
}
);
userData = {
assembly = "NPUSHB[ ]	/* 100 values pushed */
28 1 9 5 34 27 2 11 9 19 1 3 11 48 0 2 2 1 52 49 2 0 2 5 76 0 1 3 2 3 1 2 128 13 1 11 0 3 1 11 3 103 0 5 5 42 77 10 1 9 9 4 97 6 1 4 4 48 77 12 8 2 2 2 0 97 7 1 0 0 49 0 78 71 71 56 55 71 79 71 79 76 74 64 62 55 70 56 70 38 36 21 38 35 35 20 33 14 9 30 
CALL[ ]	/* CallFunction */";
};
width = 689;
}
);
note = ae;
unicode = 230;
},
{
glyphname = ccedilla;
kernLeft = c;
kernRight = c;
layers = (
{
layerId = m01;
shapes = (
{
closed = 1;
nodes = (
(185,-88,o),
(168,-88,qs),
(151,-88,ls),
(144,-88,o),
(148,-82,qs),
(195,-9,l),
(132,-4,o),
(93,40,qs),
(49,90,o),
(49,178,qs),
(49,259,o),
(89,309,qs),
(134,367,o),
(214,367,qs),
(261,367,o),
(305,347,qs),
(329,335,o),
(325,323,qs),
(323,319,l),
(323,318,l),
(321,314,o),
(318,314,qs),
(315,314,o),
(311,316,qs),
(309,317,o),
(308,318,qs),
(268,345,o),
(214,345,qs),
(154,345,o),
(117,307,qs),
(75,262,o),
(75,178,qs),
(75,106,o),
(107,62,qs),
(143,13,o),
(211,13,qs),
(288,13,o),
(318,82,q),
(324,91,o),
(327,91,qs),
(333,91,o),
(333,81,qs),
(333,58,o),
(312,33,qs),
(280,-3,o),
(225,-8,q),
(190,-79,ls)
);
}
);
userData = {
assembly = "NPUSHB[ ]	/* 40 values pushed */
40 1 4 1 1 76 0 0 2 1 2 0 1 128 0 1 0 4 1 4 101 0 2 2 3 97 0 3 3 48 2 78 57 44 38 34 37 5 9 27 
CALL[ ]	/* CallFunction */";
};
width = 359;
}
);
note = ccedilla;
unicode = 231;
},
{
glyphname = egrave;
kernLeft = e;
kernRight = e;
layers = (
{
layerId = m01;
shapes = (
{
closed = 1;
nodes = (
(141,498,o),
(143,502,o),
(146,502,qs),
(169,502,ls),
(180,502,o),
(190,493,qs),
(248,436,ls),
(253,431,o),
(244,431,qs),
(236,431,ls),
(222,431,o),
(211,440,qs),
(143,496,ls)
);
},
{
closed = 1;
nodes = (
(77,101,o),
(107,60,qs),
(142,13,o),
(209,13,qs),
(298,13,o),
(326,81,qs),
(330,89,o),
(335,89,qs),
(342,89,o),
(342,78,qs),
(342,55,o),
(316,30,qs),
(277,-9,o),
(208,-9,qs),
(140,-9,o),
(98,35,qs),
(50,86,o),
(50,178,qs),
(50,256,o),
(87,307,qs),
(130,367,o),
(204,367,qs),
(262,367,o),
(301,326,qs),
(345,279,o),
(345,203,qs),
(345,192,o),
(344,183,qs),
(343,172,o),
(331,172,qs),
(76,172,l)
);
},
{
closed = 1;
nodes = (
(321,257,o),
(293,298,qs),
(261,345,o),
(203,345,qs),
(151,345,o),
(118,310,qs),
(80,271,o),
(76,194,q),
(319,194,l)
);
}
);
userData = {
assembly = "NPUSHB[ ]	/* 76 values pushed */
0 1 0 1 133 0 0 3 0 133 0 5 2 6 2 5 6 128 10 1 8 9 1 2 5 8 2 103 0 7 7 3 97 0 3 3 48 77 0 6 6 4 97 0 4 4 49 4 78 44 44 14 13 44 52 44 52 49 47 40 38 35 34 30 28 22 20 13 43 14 43 35 49 11 9 24 
CALL[ ]	/* CallFunction */";
};
width = 391;
}
);
note = egrave;
unicode = 232;
},
{
glyphname = eacute;
kernLeft = e;
kernRight = e;
layers = (
{
layerId = m01;
shapes = (
{
closed = 1;
nodes = (
(174,431,o),
(161,431,qs),
(152,431,ls),
(143,431,o),
(149,436,qs),
(207,493,ls),
(216,502,o),
(228,502,qs),
(251,502,ls),
(253,502,o),
(255,498,o),
(253,496,qs),
(186,440,ls)
);
},
{
closed = 1;
nodes = (
(77,101,o),
(107,60,qs),
(142,13,o),
(209,13,qs),
(298,13,o),
(326,81,qs),
(330,89,o),
(335,89,qs),
(342,89,o),
(342,78,qs),
(342,55,o),
(316,30,qs),
(277,-9,o),
(208,-9,qs),
(140,-9,o),
(98,35,qs),
(50,86,o),
(50,178,qs),
(50,256,o),
(87,307,qs),
(130,367,o),
(204,367,qs),
(262,367,o),
(301,326,qs),
(345,279,o),
(345,203,qs),
(345,192,o),
(344,183,qs),
(343,172,o),
(331,172,qs),
(76,172,l)
);
},
{
closed = 1;
nodes = (
(321,257,o),
(293,298,qs),
(261,345,o),
(203,345,qs),
(151,345,o),
(118,310,qs),
(80,271,o),
(76,194,q),
(319,194,l)
);
}
);
userData = {
assembly = "NPUSHB[ ]	/* 76 values pushed */
0 0 1 0 133 0 1 3 1 133 0 5 2 6 2 5 6 128 10 1 8 9 1 2 5 8 2 103 0 7 7 3 97 0 3 3 48 77 0 6 6 4 97 0 4 4 49 4 78 44 44 14 13 44 52 44 52 49 47 40 38 35 34 30 28 22 20 13 43 14 43 51 35 11 9 24 
CALL[ ]	/* CallFunction */";
};
width = 391;
}
);
note = eacute;
unicode = 233;
},
{
glyphname = ecircumflex;
kernLeft = e;
kernRight = e;
layers = (
{
layerId = m01;
shapes = (
{
closed = 1;
nodes = (
(140,431,o),
(127,431,qs),
(119,431,ls),
(110,431,o),
(117,436,q),
(174,493,ls),
(183,502,o),
(195,502,qs),
(212,502,ls),
(224,502,o),
(233,493,qs),
(291,436,ls),
(296,431,o),
(287,431,qs),
(279,431,ls),
(265,431,o),
(254,440,qs),
(204,486,l),
(152,440,l)
);
},
{
closed = 1;
nodes = (
(77,101,o),
(107,60,qs),
(142,13,o),
(209,13,qs),
(298,13,o),
(326,81,qs),
(330,89,o),
(335,89,qs),
(342,89,o),
(342,78,qs),
(342,55,o),
(316,30,qs),
(277,-9,o),
(208,-9,qs),
(140,-9,o),
(98,35,qs),
(50,86,o),
(50,178,qs),
(50,256,o),
(87,307,qs),
(130,367,o),
(204,367,qs),
(262,367,o),
(301,326,qs),
(345,279,o),
(345,203,qs),
(345,192,o),
(344,183,qs),
(343,172,o),
(331,172,qs),
(76,172,l)
);
},
{
closed = 1;
nodes = (
(321,257,o),
(293,298,qs),
(261,345,o),
(203,345,qs),
(151,345,o),
(118,310,qs),
(80,271,o),
(76,194,q),
(319,194,l)
);
}
);
userData = {
assembly = "NPUSHB[ ]	/* 78 values pushed */
0 1 0 1 133 2 1 0 4 0 133 0 6 3 7 3 6 7 128 11 1 9 10 1 3 6 9 3 103 0 8 8 4 97 0 4 4 48 77 0 7 7 5 97 0 5 5 49 5 78 50 50 20 19 50 58 50 58 55 53 46 44 41 40 36 34 28 26 19 49 20 49 51 51 50 12 9 25 
CALL[ ]	/* CallFunction */";
};
width = 391;
}
);
note = ecircumflex;
unicode = 234;
},
{
glyphname = edieresis;
kernLeft = e;
kernRight = e;
layers = (
{
layerId = m01;
shapes = (
{
closed = 1;
nodes = (
(156,464,qs),
(175,464,o),
(175,445,qs),
(175,426,o),
(156,426,qs),
(137,426,o),
(137,445,qs),
(137,464,o)
);
},
{
closed = 1;
nodes = (
(247,464,qs),
(266,464,o),
(266,445,qs),
(266,426,o),
(247,426,qs),
(228,426,o),
(228,445,qs),
(228,464,o)
);
},
{
closed = 1;
nodes = (
(77,101,o),
(107,60,qs),
(142,13,o),
(209,13,qs),
(298,13,o),
(326,81,qs),
(330,89,o),
(335,89,qs),
(342,89,o),
(342,78,qs),
(342,55,o),
(316,30,qs),
(277,-9,o),
(208,-9,qs),
(140,-9,o),
(98,35,qs),
(50,86,o),
(50,178,qs),
(50,256,o),
(87,307,qs),
(130,367,o),
(204,367,qs),
(262,367,o),
(301,326,qs),
(345,279,o),
(345,203,qs),
(345,192,o),
(344,183,qs),
(343,172,o),
(331,172,qs),
(76,172,l)
);
},
{
closed = 1;
nodes = (
(321,257,o),
(293,298,qs),
(261,345,o),
(203,345,qs),
(151,345,o),
(118,310,qs),
(80,271,o),
(76,194,q),
(319,194,l)
);
}
);
userData = {
assembly = "NPUSHB[ ]	/* 78 values pushed */
0 7 4 8 4 7 8 128 3 1 1 2 1 0 5 1 0 105 12 1 10 11 1 4 7 10 4 103 0 9 9 5 97 0 5 5 48 77 0 8 8 6 97 0 6 6 49 6 78 47 47 17 16 47 55 47 55 52 50 43 41 38 37 33 31 25 23 16 46 17 46 34 34 34 33 13 9 26 
CALL[ ]	/* CallFunction */";
};
width = 391;
}
);
note = edieresis;
unicode = 235;
},
{
glyphname = igrave;
kernLeft = i;
layers = (
{
layerId = m01;
shapes = (
{
closed = 1;
nodes = (
(27,498,o),
(29,502,o),
(32,502,qs),
(55,502,ls),
(65,502,o),
(76,493,q),
(134,436,ls),
(139,431,o),
(130,431,qs),
(121,431,ls),
(108,431,o),
(96,440,qs),
(29,496,ls)
);
},
{
closed = 1;
nodes = (
(69,360,o),
(72,360,qs),
(74,360,ls),
(95,360,o),
(95,332,qs),
(95,3,ls),
(95,0,o),
(92,0,qs),
(72,0,ls),
(69,0,o),
(69,3,qs),
(69,357,ls)
);
}
);
userData = {
assembly = "NPUSHB[ ]	/* 28 values pushed */
24 16 13 3 2 73 0 1 0 1 133 0 0 2 0 133 0 2 2 42 2 78 27 35 49 3 9 25 
CALL[ ]	/* CallFunction */";
};
width = 161;
}
);
note = igrave;
unicode = 236;
},
{
glyphname = iacute;
kernLeft = i;
layers = (
{
layerId = m01;
shapes = (
{
closed = 1;
nodes = (
(58,431,o),
(45,431,qs),
(36,431,ls),
(27,431,o),
(33,436,qs),
(91,493,ls),
(99,502,o),
(112,502,qs),
(134,502,ls),
(137,502,o),
(139,498,o),
(137,496,qs),
(70,440,ls)
);
},
{
closed = 1;
nodes = (
(72,360,o),
(75,360,qs),
(77,360,ls),
(98,360,o),
(98,332,qs),
(98,3,ls),
(98,0,o),
(95,0,qs),
(75,0,ls),
(72,0,o),
(72,3,qs),
(72,357,ls)
);
}
);
userData = {
assembly = "NPUSHB[ ]	/* 28 values pushed */
24 16 13 3 2 73 0 0 1 0 133 0 1 2 1 133 0 2 2 42 2 78 25 51 35 3 9 25 
CALL[ ]	/* CallFunction */";
};
width = 161;
}
);
note = iacute;
unicode = 237;
},
{
glyphname = icircumflex;
kernLeft = i;
layers = (
{
layerId = m01;
shapes = (
{
closed = 1;
nodes = (
(22,431,o),
(9,431,qs),
(1,431,ls),
(-8,431,o),
(-2,436,qs),
(56,493,ls),
(64,502,o),
(77,502,qs),
(93,502,ls),
(106,502,o),
(114,493,qs),
(172,436,ls),
(178,431,o),
(169,431,qs),
(161,431,ls),
(147,431,o),
(136,440,qs),
(86,486,l),
(34,440,l)
);
},
{
closed = 1;
nodes = (
(73,360,o),
(76,360,qs),
(78,360,ls),
(98,360,o),
(98,332,qs),
(98,3,ls),
(98,0,o),
(96,0,qs),
(76,0,ls),
(73,0,o),
(73,3,qs),
(73,357,ls)
);
}
);
userData = {
assembly = "NPUSHB[ ]	/* 30 values pushed */
30 22 19 3 3 73 0 1 0 1 133 2 1 0 3 0 133 0 3 3 42 3 78 25 51 51 50 4 9 26 
CALL[ ]	/* CallFunction */";
};
width = 161;
}
);
note = icircumflex;
unicode = 238;
},
{
glyphname = idieresis;
kernLeft = i;
layers = (
{
layerId = m01;
shapes = (
{
closed = 1;
nodes = (
(36,464,qs),
(55,464,o),
(55,445,qs),
(55,426,o),
(36,426,qs),
(17,426,o),
(17,445,qs),
(17,464,o)
);
},
{
closed = 1;
nodes = (
(126,464,qs),
(145,464,o),
(145,445,qs),
(145,426,o),
(126,426,qs),
(108,426,o),
(108,445,qs),
(108,464,o)
);
},
{
closed = 1;
nodes = (
(68,360,o),
(71,360,qs),
(73,360,ls),
(94,360,o),
(94,332,qs),
(94,3,ls),
(94,0,o),
(91,0,qs),
(71,0,ls),
(68,0,o),
(68,3,qs),
(68,357,ls)
);
}
);
userData = {
assembly = "NPUSHB[ ]	/* 30 values pushed */
27 19 16 3 4 73 3 1 1 2 1 0 4 1 0 105 0 4 4 42 4 78 24 34 34 34 33 5 9 27 
CALL[ ]	/* CallFunction */";
};
width = 161;
}
);
note = idieresis;
unicode = 239;
},
{
glyphname = eth;
layers = (
{
layerId = m01;
shapes = (
{
closed = 1;
nodes = (
(120,419,ls),
(116,417,o),
(115,421,q),
(107,433,ls),
(105,437,o),
(107,438,qs),
(186,480,l),
(135,551,ls),
(131,556,o),
(137,556,qs),
(141,556,ls),
(154,556,o),
(168,545,o),
(185,523,qs),
(206,492,l),
(270,526,ls),
(273,528,o),
(276,524,qs),
(285,511,l),
(286,508,o),
(284,507,qs),
(220,473,l),
(340,306,ls),
(377,254,o),
(377,179,qs),
(377,100,o),
(340,50,qs),
(295,-9,o),
(212,-9,qs),
(143,-9,o),
(99,35,qs),
(49,86,o),
(49,178,qs),
(49,256,o),
(87,305,qs),
(131,361,o),
(211,361,qs),
(249,361,o),
(280,348,q),
(198,461,l)
);
},
{
closed = 1;
nodes = (
(310,51,qs),
(352,96,o),
(352,178,qs),
(352,242,o),
(324,284,qs),
(286,339,o),
(212,339,qs),
(153,339,o),
(117,302,qs),
(76,260,o),
(76,179,qs),
(76,108,o),
(108,63,qs),
(145,13,o),
(212,13,qs),
(273,13,o)
);
}
);
userData = {
assembly = "NPUSHB[ ]	/* 54 values pushed */
39 38 33 32 24 18 17 7 0 2 1 76 0 2 2 39 77 0 4 4 0 97 0 0 0 42 77 5 1 3 3 1 97 0 1 1 49 1 78 41 40 49 47 40 55 41 55 30 27 38 33 6 9 24 
CALL[ ]	/* CallFunction */";
};
width = 427;
}
);
note = eth;
unicode = 240;
},
{
glyphname = ntilde;
kernLeft = n;
kernRight = n;
layers = (
{
layerId = m01;
shapes = (
{
closed = 1;
nodes = (
(127,427,o),
(127,432,qs),
(130,475,o),
(169,475,qs),
(181,475,o),
(209,463,qs),
(243,448,o),
(252,448,qs),
(269,448,o),
(272,465,qs),
(274,473,o),
(280,473,qs),
(295,473,ls),
(300,473,o),
(299,467,qs),
(292,426,o),
(252,426,qs),
(238,426,o),
(205,440,qs),
(179,452,o),
(169,452,qs),
(157,452,o),
(154,436,qs),
(153,427,o),
(147,427,qs),
(131,427,ls)
);
},
{
closed = 1;
nodes = (
(135,367,o),
(224,367,qs),
(283,367,o),
(320,333,qs),
(362,295,o),
(362,227,qs),
(362,3,ls),
(362,0,o),
(359,0,qs),
(339,0,ls),
(336,0,o),
(336,3,qs),
(336,224,ls),
(336,277,o),
(310,309,qs),
(280,345,o),
(222,345,qs),
(169,345,o),
(135,316,qs),
(94,281,o),
(94,217,qs),
(94,3,ls),
(94,0,o),
(91,0,qs),
(71,0,ls),
(68,0,o),
(68,3,qs),
(68,357,ls),
(68,360,o),
(71,360,qs),
(73,360,ls),
(94,360,o),
(94,332,qs),
(94,299,l)
);
}
);
userData = {
assembly = "NPUSHB[ ]	/* 73 values pushed */
23 1 1 3 31 1 7 6 2 76 59 50 47 35 32 5 7 73 4 1 2 0 0 3 2 0 105 0 3 9 5 2 1 8 3 1 106 0 6 6 42 77 0 7 7 8 97 0 8 8 48 7 78 0 0 58 56 43 41 28 27 0 25 0 25 34 35 34 34 35 10 9 27 
CALL[ ]	/* CallFunction */";
};
width = 427;
}
);
note = ntilde;
unicode = 241;
},
{
glyphname = ograve;
kernLeft = o;
kernRight = o;
layers = (
{
layerId = m01;
shapes = (
{
closed = 1;
nodes = (
(159,498,o),
(161,502,o),
(163,502,qs),
(186,502,ls),
(197,502,o),
(207,493,qs),
(265,436,ls),
(271,431,o),
(262,431,qs),
(253,431,ls),
(240,431,o),
(228,440,qs),
(161,496,ls)
);
},
{
closed = 1;
nodes = (
(99,35,qs),
(49,86,o),
(49,178,qs),
(49,258,o),
(88,309,qs),
(132,367,o),
(211,367,qs),
(282,367,o),
(326,322,qs),
(377,271,o),
(377,179,qs),
(377,100,o),
(338,49,qs),
(293,-9,o),
(212,-9,qs),
(143,-9,o)
);
},
{
closed = 1;
nodes = (
(308,52,qs),
(351,97,o),
(351,178,qs),
(351,249,o),
(318,294,qs),
(280,345,o),
(211,345,qs),
(153,345,o),
(117,306,qs),
(75,261,o),
(75,179,qs),
(75,108,o),
(107,63,qs),
(144,13,o),
(211,13,qs),
(271,13,o)
);
}
);
userData = {
assembly = "NPUSHB[ ]	/* 54 values pushed */
0 1 0 1 133 0 0 3 0 133 0 5 5 3 97 0 3 3 48 77 7 1 4 4 2 97 6 1 2 2 49 2 78 30 29 14 13 38 36 29 44 30 44 22 20 13 28 14 28 35 49 8 9 24 
CALL[ ]	/* CallFunction */";
};
width = 427;
}
);
note = ograve;
unicode = 242;
},
{
glyphname = oacute;
kernLeft = o;
kernRight = o;
layers = (
{
layerId = m01;
shapes = (
{
closed = 1;
nodes = (
(187,431,o),
(173,431,qs),
(165,431,ls),
(155,431,o),
(162,436,q),
(219,493,ls),
(228,502,o),
(240,502,qs),
(263,502,ls),
(266,502,o),
(268,498,o),
(266,496,qs),
(198,440,ls)
);
},
{
closed = 1;
nodes = (
(99,35,qs),
(49,86,o),
(49,178,qs),
(49,258,o),
(88,309,qs),
(132,367,o),
(211,367,qs),
(282,367,o),
(326,322,qs),
(377,271,o),
(377,179,qs),
(377,100,o),
(338,49,qs),
(293,-9,o),
(212,-9,qs),
(143,-9,o)
);
},
{
closed = 1;
nodes = (
(308,52,qs),
(351,97,o),
(351,178,qs),
(351,249,o),
(318,294,qs),
(280,345,o),
(211,345,qs),
(153,345,o),
(117,306,qs),
(75,261,o),
(75,179,qs),
(75,108,o),
(107,63,qs),
(144,13,o),
(211,13,qs),
(271,13,o)
);
}
);
userData = {
assembly = "NPUSHB[ ]	/* 54 values pushed */
0 0 1 0 133 0 1 3 1 133 0 5 5 3 97 0 3 3 48 77 7 1 4 4 2 97 6 1 2 2 49 2 78 30 29 14 13 38 36 29 44 30 44 22 20 13 28 14 28 51 35 8 9 24 
CALL[ ]	/* CallFunction */";
};
width = 427;
}
);
note = oacute;
unicode = 243;
},
{
glyphname = ocircumflex;
kernLeft = o;
kernRight = o;
layers = (
{
layerId = m01;
shapes = (
{
closed = 1;
nodes = (
(151,431,o),
(137,431,qs),
(130,431,ls),
(120,431,o),
(127,436,q),
(184,493,ls),
(193,502,o),
(205,502,qs),
(222,502,ls),
(234,502,o),
(243,493,qs),
(301,436,ls),
(306,431,o),
(297,431,qs),
(290,431,ls),
(275,431,o),
(265,440,qs),
(214,486,l),
(162,440,ls)
);
},
{
closed = 1;
nodes = (
(99,35,qs),
(49,86,o),
(49,178,qs),
(49,258,o),
(88,309,qs),
(132,367,o),
(211,367,qs),
(282,367,o),
(326,322,qs),
(377,271,o),
(377,179,qs),
(377,100,o),
(338,49,qs),
(293,-9,o),
(212,-9,qs),
(143,-9,o)
);
},
{
closed = 1;
nodes = (
(308,52,qs),
(351,97,o),
(351,178,qs),
(351,249,o),
(318,294,qs),
(280,345,o),
(211,345,qs),
(153,345,o),
(117,306,qs),
(75,261,o),
(75,179,qs),
(75,108,o),
(107,63,qs),
(144,13,o),
(211,13,qs),
(271,13,o)
);
}
);
userData = {
assembly = "NPUSHB[ ]	/* 56 values pushed */
0 1 0 1 133 2 1 0 4 0 133 0 6 6 4 97 0 4 4 48 77 8 1 5 5 3 97 7 1 3 3 49 3 78 36 35 20 19 44 42 35 50 36 50 28 26 19 34 20 34 51 51 50 9 9 25 
CALL[ ]	/* CallFunction */";
};
width = 427;
}
);
note = ocircumflex;
unicode = 244;
},
{
glyphname = otilde;
kernLeft = o;
kernRight = o;
layers = (
{
layerId = m01;
shapes = (
{
closed = 1;
nodes = (
(127,427,o),
(127,432,qs),
(129,475,o),
(168,475,qs),
(181,475,o),
(208,463,qs),
(242,448,o),
(252,448,qs),
(269,448,o),
(272,465,qs),
(273,473,o),
(279,473,qs),
(295,473,ls),
(300,473,o),
(298,467,q),
(291,426,o),
(252,426,qs),
(237,426,o),
(205,440,qs),
(178,452,o),
(168,452,qs),
(157,452,o),
(153,436,q),
(152,427,o),
(147,427,qs),
(131,427,ls)
);
},
{
closed = 1;
nodes = (
(99,35,qs),
(49,86,o),
(49,178,qs),
(49,258,o),
(88,309,qs),
(132,367,o),
(211,367,qs),
(282,367,o),
(326,322,qs),
(377,271,o),
(377,179,qs),
(377,100,o),
(338,49,qs),
(293,-9,o),
(212,-9,qs),
(143,-9,o)
);
},
{
closed = 1;
nodes = (
(308,52,qs),
(351,97,o),
(351,178,qs),
(351,249,o),
(318,294,qs),
(280,345,o),
(211,345,qs),
(153,345,o),
(117,306,qs),
(75,261,o),
(75,179,qs),
(75,108,o),
(107,63,qs),
(144,13,o),
(211,13,qs),
(271,13,o)
);
}
);
userData = {
assembly = "NPUSHB[ ]	/* 78 values pushed */
23 1 1 3 1 76 4 1 2 0 0 3 2 0 105 0 3 10 5 2 1 7 3 1 106 0 9 9 7 97 0 7 7 48 77 12 1 8 8 6 97 11 1 6 6 49 6 78 43 42 27 26 0 0 51 49 42 57 43 57 35 33 26 41 27 41 0 25 0 25 34 35 34 34 35 13 9 27 
CALL[ ]	/* CallFunction */";
};
width = 427;
}
);
note = otilde;
unicode = 245;
},
{
glyphname = odieresis;
kernLeft = o;
kernRight = o;
layers = (
{
layerId = m01;
shapes = (
{
closed = 1;
nodes = (
(168,464,qs),
(187,464,o),
(187,445,qs),
(187,426,o),
(168,426,qs),
(150,426,o),
(150,445,qs),
(150,464,o)
);
},
{
closed = 1;
nodes = (
(259,464,qs),
(278,464,o),
(278,445,qs),
(278,426,o),
(259,426,qs),
(240,426,o),
(240,445,qs),
(240,464,o)
);
},
{
closed = 1;
nodes = (
(99,35,qs),
(49,86,o),
(49,178,qs),
(49,258,o),
(88,309,qs),
(132,367,o),
(211,367,qs),
(282,367,o),
(326,322,qs),
(377,271,o),
(377,179,qs),
(377,100,o),
(338,49,qs),
(293,-9,o),
(212,-9,qs),
(143,-9,o)
);
},
{
closed = 1;
nodes = (
(308,52,qs),
(351,97,o),
(351,178,qs),
(351,249,o),
(318,294,qs),
(280,345,o),
(211,345,qs),
(153,345,o),
(117,306,qs),
(75,261,o),
(75,179,qs),
(75,108,o),
(107,63,qs),
(144,13,o),
(211,13,qs),
(271,13,o)
);
}
);
userData = {
assembly = "NPUSHB[ ]	/* 56 values pushed */
3 1 1 2 1 0 5 1 0 105 0 7 7 5 97 0 5 5 48 77 9 1 6 6 4 97 8 1 4 4 49 4 78 33 32 17 16 41 39 32 47 33 47 25 23 16 31 17 31 34 34 34 33 10 9 26 
CALL[ ]	/* CallFunction */";
};
width = 427;
}
);
note = odieresis;
unicode = 246;
},
{
glyphname = divide;
layers = (
{
layerId = m01;
shapes = (
{
closed = 1;
nodes = (
(181,433,o),
(193,433,qs),
(206,433,o),
(224,414,o),
(224,402,qs),
(224,389,o),
(206,371,o),
(193,371,qs),
(181,371,o),
(163,389,o),
(163,402,qs),
(163,414,o)
);
},
{
closed = 1;
nodes = (
(46,262,o),
(46,266,qs),
(46,282,ls),
(46,285,o),
(49,285,qs),
(328,285,ls),
(342,285,o),
(342,271,qs),
(342,268,ls),
(342,262,o),
(335,262,qs),
(49,262,ls)
);
},
{
closed = 1;
nodes = (
(181,177,o),
(193,177,qs),
(206,177,o),
(224,158,o),
(224,145,qs),
(224,133,o),
(206,114,o),
(193,114,qs),
(181,114,o),
(163,132,o),
(163,145,qs),
(163,158,o)
);
}
);
userData = {
assembly = "NPUSHB[ ]	/* 56 values pushed */
21 1 2 3 1 76 0 1 0 0 3 1 0 105 0 3 6 1 2 5 3 2 103 0 5 4 4 5 89 0 5 5 4 97 0 4 5 4 81 13 12 34 32 28 26 18 16 12 23 13 23 36 34 7 9 24 
CALL[ ]	/* CallFunction */";
};
width = 388;
}
);
note = divide;
unicode = 247;
},
{
glyphname = oslash;
kernLeft = o;
kernRight = o;
layers = (
{
layerId = m01;
shapes = (
{
closed = 1;
nodes = (
(99,35,qs),
(49,86,o),
(49,178,qs),
(49,258,o),
(88,309,qs),
(132,367,o),
(211,367,qs),
(282,367,o),
(326,322,qs),
(377,271,o),
(377,179,qs),
(377,100,o),
(338,49,qs),
(293,-9,o),
(212,-9,qs),
(143,-9,o)
);
},
{
closed = 1;
nodes = (
(254,345,o),
(211,345,qs),
(153,345,o),
(117,306,qs),
(75,261,o),
(75,179,qs),
(75,99,o),
(116,53,q),
(289,322,l)
);
},
{
closed = 1;
nodes = (
(166,13,o),
(211,13,qs),
(271,13,o),
(308,52,qs),
(351,97,o),
(351,178,qs),
(351,263,o),
(307,307,q),
(134,37,l)
);
}
);
userData = {
assembly = "NPUSHB[ ]	/* 44 values pushed */
33 24 2 3 2 1 76 0 2 2 1 97 0 1 1 48 77 0 3 3 0 97 4 1 0 0 49 0 78 1 0 32 30 23 21 9 7 0 15 1 15 5 9 22 
CALL[ ]	/* CallFunction */";
};
width = 427;
}
);
note = oslash;
unicode = 248;
},
{
glyphname = ugrave;
kernLeft = u;
kernRight = u;
layers = (
{
layerId = m01;
shapes = (
{
closed = 1;
nodes = (
(153,498,o),
(155,502,o),
(158,502,qs),
(181,502,ls),
(192,502,o),
(202,493,qs),
(260,436,ls),
(265,431,o),
(256,431,qs),
(248,431,ls),
(234,431,o),
(223,440,qs),
(155,496,ls)
);
},
{
closed = 1;
nodes = (
(67,159,qs),
(67,357,ls),
(67,360,o),
(70,360,qs),
(72,360,ls),
(93,360,o),
(93,332,qs),
(93,156,ls),
(93,13,o),
(208,13,qs),
(323,13,o),
(323,156,qs),
(323,357,ls),
(323,360,o),
(326,360,qs),
(328,360,ls),
(349,360,o),
(349,332,qs),
(349,159,ls),
(349,-9,o),
(208,-9,qs),
(67,-9,o)
);
}
);
userData = {
assembly = "NPUSHB[ ]	/* 52 values pushed */
32 21 2 4 3 1 76 0 1 0 1 133 0 0 3 0 133 5 1 3 3 42 77 0 4 4 2 97 6 1 2 2 49 2 78 14 13 29 28 25 23 18 17 13 34 14 34 35 49 7 9 24 
CALL[ ]	/* CallFunction */";
};
width = 416;
}
);
note = ugrave;
unicode = 249;
},
{
glyphname = uacute;
kernLeft = u;
kernRight = u;
layers = (
{
layerId = m01;
shapes = (
{
closed = 1;
nodes = (
(181,431,o),
(168,431,qs),
(159,431,ls),
(150,431,o),
(156,436,qs),
(214,493,ls),
(223,502,o),
(235,502,qs),
(258,502,ls),
(260,502,o),
(262,498,o),
(260,496,qs),
(193,440,ls)
);
},
{
closed = 1;
nodes = (
(67,159,qs),
(67,357,ls),
(67,360,o),
(70,360,qs),
(72,360,ls),
(93,360,o),
(93,332,qs),
(93,156,ls),
(93,13,o),
(208,13,qs),
(323,13,o),
(323,156,qs),
(323,357,ls),
(323,360,o),
(326,360,qs),
(328,360,ls),
(349,360,o),
(349,332,qs),
(349,159,ls),
(349,-9,o),
(208,-9,qs),
(67,-9,o)
);
}
);
userData = {
assembly = "NPUSHB[ ]	/* 52 values pushed */
32 21 2 4 3 1 76 0 0 1 0 133 0 1 3 1 133 5 1 3 3 42 77 0 4 4 2 97 6 1 2 2 49 2 78 14 13 29 28 25 23 18 17 13 34 14 34 51 35 7 9 24 
CALL[ ]	/* CallFunction */";
};
width = 416;
}
);
note = uacute;
unicode = 250;
},
{
glyphname = ucircumflex;
kernLeft = u;
kernRight = u;
layers = (
{
layerId = m01;
shapes = (
{
closed = 1;
nodes = (
(146,431,o),
(133,431,qs),
(125,431,ls),
(115,431,o),
(122,436,q),
(179,493,ls),
(188,502,o),
(200,502,qs),
(217,502,ls),
(229,502,o),
(238,493,qs),
(296,436,ls),
(301,431,o),
(293,431,qs),
(285,431,ls),
(270,431,o),
(260,440,qs),
(209,486,l),
(158,440,l)
);
},
{
closed = 1;
nodes = (
(67,159,qs),
(67,357,ls),
(67,360,o),
(70,360,qs),
(72,360,ls),
(93,360,o),
(93,332,qs),
(93,156,ls),
(93,13,o),
(208,13,qs),
(323,13,o),
(323,156,qs),
(323,357,ls),
(323,360,o),
(326,360,qs),
(328,360,ls),
(349,360,o),
(349,332,qs),
(349,159,ls),
(349,-9,o),
(208,-9,qs),
(67,-9,o)
);
}
);
userData = {
assembly = "NPUSHB[ ]	/* 54 values pushed */
38 27 2 5 4 1 76 0 1 0 1 133 2 1 0 4 0 133 6 1 4 4 42 77 0 5 5 3 97 7 1 3 3 49 3 78 20 19 35 34 31 29 24 23 19 40 20 40 51 51 50 8 9 25 
CALL[ ]	/* CallFunction */";
};
width = 416;
}
);
note = ucircumflex;
unicode = 251;
},
{
glyphname = udieresis;
kernLeft = u;
kernRight = u;
layers = (
{
layerId = m01;
shapes = (
{
closed = 1;
nodes = (
(163,464,qs),
(182,464,o),
(182,445,qs),
(182,426,o),
(163,426,qs),
(144,426,o),
(144,445,qs),
(144,464,o)
);
},
{
closed = 1;
nodes = (
(254,464,qs),
(273,464,o),
(273,445,qs),
(273,426,o),
(254,426,qs),
(235,426,o),
(235,445,qs),
(235,464,o)
);
},
{
closed = 1;
nodes = (
(67,159,qs),
(67,357,ls),
(67,360,o),
(70,360,qs),
(72,360,ls),
(93,360,o),
(93,332,qs),
(93,156,ls),
(93,13,o),
(208,13,qs),
(323,13,o),
(323,156,qs),
(323,357,ls),
(323,360,o),
(326,360,qs),
(328,360,ls),
(349,360,o),
(349,332,qs),
(349,159,ls),
(349,-9,o),
(208,-9,qs),
(67,-9,o)
);
}
);
userData = {
assembly = "NPUSHB[ ]	/* 54 values pushed */
35 24 2 6 5 1 76 3 1 1 2 1 0 5 1 0 105 7 1 5 5 42 77 0 6 6 4 97 8 1 4 4 49 4 78 17 16 32 31 28 26 21 20 16 37 17 37 34 34 34 33 9 9 26 
CALL[ ]	/* CallFunction */";
};
width = 416;
}
);
note = udieresis;
unicode = 252;
},
{
glyphname = yacute;
kernLeft = y;
kernRight = y;
layers = (
{
layerId = m01;
shapes = (
{
closed = 1;
nodes = (
(122,431,o),
(109,431,qs),
(100,431,ls),
(96,431,o),
(95,434,o),
(97,436,qs),
(154,493,ls),
(163,502,o),
(175,502,qs),
(198,502,ls),
(201,502,o),
(203,498,o),
(201,496,qs),
(134,440,ls)
);
},
{
closed = 1;
nodes = (
(17,360,o),
(23,360,qs),
(27,360,ls),
(45,360,o),
(53,338,qs),
(153,35,l),
(260,351,ls),
(263,360,o),
(271,360,qs),
(284,360,ls),
(288,360,o),
(287,355,q),
(162,-11,ls),
(128,-112,o),
(87,-170,o),
(51,-170,qs),
(28,-170,o),
(-7,-143,o),
(-7,-125,qs),
(-7,-116,o),
(-1,-116,qs),
(4,-116,o),
(7,-123,qs),
(21,-148,o),
(48,-148,qs),
(75,-148,o),
(108,-96,o),
(141,-2,q),
(19,355,ls)
);
}
);
userData = {
assembly = "NPUSHB[ ]	/* 51 values pushed */
36 1 3 5 1 76 0 0 1 0 133 0 1 5 1 133 0 3 5 2 5 3 2 128 6 1 5 5 42 77 0 2 2 4 97 0 4 4 50 4 78 52 37 35 34 36 37 35 7 9 29 
CALL[ ]	/* CallFunction */";
};
width = 308;
}
);
note = yacute;
unicode = 253;
},
{
glyphname = thorn;
layers = (
{
layerId = m01;
shapes = (
{
closed = 1;
nodes = (
(94,-160,o),
(91,-160,qs),
(71,-160,ls),
(68,-160,o),
(68,-157,qs),
(68,553,ls),
(68,556,o),
(71,556,qs),
(73,556,ls),
(94,556,o),
(94,528,qs),
(94,284,l),
(109,322,o),
(183,367,o),
(229,367,qs),
(295,367,o),
(340,320,qs),
(392,267,o),
(392,179,qs),
(392,101,o),
(352,50,qs),
(306,-9,o),
(228,-9,qs),
(180,-9,o),
(109,35,o),
(94,74,q),
(94,-157,ls)
);
},
{
closed = 1;
nodes = (
(323,53,qs),
(366,98,o),
(366,179,qs),
(366,250,o),
(333,294,qs),
(296,345,o),
(229,345,qs),
(168,345,o),
(133,307,qs),
(92,264,o),
(92,179,qs),
(92,105,o),
(123,62,qs),
(159,13,o),
(228,13,qs),
(286,13,o)
);
}
);
userData = {
assembly = "NPUSHB[ ]	/* 57 values pushed */
20 1 1 2 14 0 2 3 4 2 76 24 21 2 0 73 0 2 2 39 77 0 4 4 1 97 0 1 1 48 77 5 1 3 3 0 97 0 0 0 49 0 78 28 27 36 34 27 42 28 42 20 38 34 6 9 25 
CALL[ ]	/* CallFunction */";
};
width = 441;
}
);
note = thorn;
unicode = 254;
},
{
glyphname = ydieresis;
kernLeft = y;
kernRight = y;
layers = (
{
layerId = m01;
shapes = (
{
closed = 1;
nodes = (
(104,464,qs),
(122,464,o),
(122,445,qs),
(122,426,o),
(104,426,qs),
(85,426,o),
(85,445,qs),
(85,464,o)
);
},
{
closed = 1;
nodes = (
(194,464,qs),
(213,464,o),
(213,445,qs),
(213,426,o),
(194,426,qs),
(175,426,o),
(175,445,qs),
(175,464,o)
);
},
{
closed = 1;
nodes = (
(17,360,o),
(23,360,qs),
(27,360,ls),
(45,360,o),
(53,338,qs),
(153,35,l),
(260,351,ls),
(263,360,o),
(271,360,qs),
(284,360,ls),
(288,360,o),
(287,355,q),
(162,-11,ls),
(128,-112,o),
(87,-170,o),
(51,-170,qs),
(28,-170,o),
(-7,-143,o),
(-7,-125,qs),
(-7,-116,o),
(-1,-116,qs),
(4,-116,o),
(7,-123,qs),
(21,-148,o),
(48,-148,qs),
(75,-148,o),
(108,-96,o),
(141,-2,q),
(19,355,ls)
);
}
);
userData = {
assembly = "NPUSHB[ ]	/* 53 values pushed */
38 1 5 7 1 76 0 5 7 4 7 5 4 128 3 1 1 2 1 0 7 1 0 105 8 1 7 7 42 77 0 4 4 6 97 0 6 6 50 6 78 52 37 35 34 35 34 34 34 33 9 9 31 
CALL[ ]	/* CallFunction */";
};
width = 308;
}
);
note = ydieresis;
unicode = 255;
},
{
glyphname = dotlessi;
kernLeft = r;
layers = (
{
layerId = m01;
shapes = (
{
closed = 1;
nodes = (
(68,360,o),
(71,360,qs),
(73,360,ls),
(94,360,o),
(94,332,qs),
(94,3,ls),
(94,0,o),
(91,0,qs),
(71,0,ls),
(68,0,o),
(68,3,qs),
(68,357,ls)
);
}
);
userData = {
assembly = "NPUSHB[ ]	/* 16 values pushed */
11 3 0 3 0 73 0 0 0 42 0 78 23 1 9 23 
CALL[ ]	/* CallFunction */";
};
width = 161;
}
);
note = dotlessi;
unicode = 305;
},
{
glyphname = Lslash;
layers = (
{
layerId = m01;
shapes = (
{
closed = 1;
nodes = (
(326,23,o),
(326,9,qs),
(326,6,ls),
(326,0,o),
(319,0,qs),
(81,0,ls),
(78,0,o),
(78,3,qs),
(78,233,l),
(25,206,l),
(22,205,o),
(22,208,qs),
(22,227,ls),
(22,230,o),
(25,232,qs),
(78,259,l),
(78,553,ls),
(78,556,o),
(81,556,qs),
(83,556,ls),
(104,556,o),
(104,528,qs),
(104,273,l),
(257,356,l),
(260,357,o),
(260,354,qs),
(260,335,ls),
(260,332,o),
(257,330,qs),
(104,247,l),
(104,23,l),
(313,23,ls)
);
}
);
userData = {
assembly = "NPUSHB[ ]	/* 42 values pushed */
22 19 18 15 14 8 5 4 1 9 2 0 1 76 0 0 0 39 77 3 1 2 2 1 95 0 1 1 40 1 78 0 0 0 31 0 30 76 26 4 9 24 
CALL[ ]	/* CallFunction */";
};
width = 349;
}
);
note = Lslash;
unicode = 321;
},
{
glyphname = lslash;
layers = (
{
layerId = m01;
shapes = (
{
closed = 1;
nodes = (
(22,205,o),
(22,208,qs),
(22,227,ls),
(22,230,o),
(25,232,qs),
(73,257,l),
(73,553,ls),
(73,556,o),
(76,556,qs),
(78,556,ls),
(99,556,o),
(99,528,qs),
(99,271,l),
(166,307,ls),
(169,309,o),
(169,305,qs),
(169,286,ls),
(169,283,o),
(166,281,qs),
(99,246,l),
(99,69,ls),
(99,16,o),
(143,16,qs),
(174,16,o),
(190,51,qs),
(193,59,o),
(197,59,qs),
(204,59,o),
(204,46,qs),
(204,24,o),
(167,-9,o),
(141,-9,qs),
(109,-9,o),
(73,32,o),
(73,68,qs),
(73,232,l),
(25,206,l)
);
}
);
userData = {
assembly = "NPUSHB[ ]	/* 45 values pushed */
34 33 30 29 23 20 19 16 0 9 1 3 1 76 0 1 3 2 3 1 2 128 0 3 3 39 77 0 2 2 0 97 0 0 0 49 0 78 27 35 19 35 4 9 26 
CALL[ ]	/* CallFunction */";
};
width = 206;
}
);
note = lslash;
unicode = 322;
},
{
glyphname = OE;
kernLeft = O;
kernRight = E;
layers = (
{
layerId = m01;
shapes = (
{
closed = 1;
nodes = (
(786,23,o),
(786,9,qs),
(786,6,ls),
(786,0,o),
(779,0,qs),
(500,0,ls),
(496,0,o),
(496,3,qs),
(496,126,l),
(444,-10,o),
(293,-10,qs),
(188,-10,o),
(128,58,qs),
(63,132,o),
(63,277,qs),
(63,403,o),
(114,478,qs),
(174,567,o),
(293,567,qs),
(444,567,o),
(496,426,q),
(496,553,ls),
(496,556,o),
(500,556,qs),
(762,556,ls),
(776,556,o),
(776,542,qs),
(776,539,ls),
(776,533,o),
(769,533,qs),
(522,533,l),
(522,285,l),
(742,285,ls),
(756,285,o),
(756,271,qs),
(756,268,ls),
(756,262,o),
(749,262,qs),
(522,262,l),
(522,23,l),
(772,23,ls)
);
},
{
closed = 1;
nodes = (
(431,67,qs),
(496,135,o),
(496,277,qs),
(496,402,o),
(445,471,qs),
(392,544,o),
(293,544,qs),
(207,544,o),
(155,488,qs),
(89,419,o),
(89,277,qs),
(89,152,o),
(140,84,qs),
(194,13,o),
(293,13,qs),
(379,13,o)
);
}
);
userData = {
assembly = "NPUSHB[ ]	/* 18 values pushed */
18 1 9 3 19 1 1 2 31 1 7 0 32 1 6 8 4 76 
MPPEM[ ]	/* MeasurePixelPerEm */
PUSHB[ ]	/* 1 value pushed */
36 
LT[ ]	/* LessThan */
IF[ ]	/* If */
NPUSHB[ ]	/* 51 values pushed */
0 1 0 0 7 1 0 103 0 9 9 4 97 0 4 4 39 77 0 2 2 3 95 0 3 3 39 77 10 1 7 7 6 95 0 6 6 40 77 11 1 8 8 5 97 0 5 5 46 5 78 
ELSE[ ]	/* Else */
NPUSHB[ ]	/* 49 values pushed */
0 4 0 9 2 4 9 105 0 1 0 0 7 1 0 103 0 2 2 3 95 0 3 3 39 77 10 1 7 7 6 95 0 6 6 40 77 11 1 8 8 5 97 0 5 5 46 5 78 
EIF[ ]	/* EndIf */
NPUSHB[ ]	/* 24 values pushed */
42 41 0 0 50 48 41 56 42 56 0 40 0 39 36 38 36 35 33 35 33 12 9 29 
CALL[ ]	/* CallFunction */";
};
width = 823;
}
);
note = OE;
unicode = 338;
},
{
glyphname = oe;
kernLeft = o;
kernRight = e;
layers = (
{
layerId = m01;
shapes = (
{
closed = 1;
nodes = (
(268,-9,o),
(212,-9,qs),
(143,-9,o),
(99,35,qs),
(49,86,o),
(49,178,qs),
(49,258,o),
(88,309,qs),
(132,367,o),
(211,367,qs),
(328,367,o),
(363,256,q),
(379,308,o),
(454,367,o),
(503,367,qs),
(562,367,o),
(601,326,qs),
(645,279,o),
(645,203,qs),
(645,192,o),
(643,183,qs),
(642,172,o),
(631,172,qs),
(375,172,l),
(377,101,o),
(407,60,qs),
(442,13,o),
(508,13,qs),
(597,13,o),
(626,81,qs),
(629,89,o),
(635,89,qs),
(642,89,o),
(642,78,qs),
(642,55,o),
(616,30,qs),
(577,-9,o),
(507,-9,qs),
(395,-9,o),
(362,101,q),
(346,48,o)
);
},
{
closed = 1;
nodes = (
(308,52,qs),
(351,97,o),
(351,178,qs),
(351,249,o),
(318,294,qs),
(280,345,o),
(211,345,qs),
(153,345,o),
(117,306,qs),
(75,261,o),
(75,179,qs),
(75,108,o),
(107,63,qs),
(144,13,o),
(211,13,qs),
(271,13,o)
);
},
{
closed = 1;
nodes = (
(621,257,o),
(592,298,qs),
(560,345,o),
(502,345,qs),
(450,345,o),
(418,310,qs),
(380,271,o),
(375,194,q),
(618,194,l)
);
}
);
userData = {
assembly = "NPUSHB[ ]	/* 75 values pushed */
28 1 10 8 1 76 0 1 3 2 3 1 2 128 12 1 10 0 3 1 10 3 103 9 1 8 8 4 97 5 1 4 4 48 77 11 7 2 2 2 0 97 6 1 0 0 49 0 78 57 57 42 41 57 65 57 65 62 60 50 48 41 56 42 56 38 35 38 35 35 20 33 13 9 29 
CALL[ ]	/* CallFunction */";
};
width = 691;
}
);
note = oe;
unicode = 339;
},
{
glyphname = Scaron;
kernLeft = S;
kernRight = S;
layers = (
{
layerId = m01;
shapes = (
{
closed = 1;
nodes = (
(278,691,o),
(291,691,qs),
(299,691,ls),
(308,691,o),
(303,685,q),
(245,628,ls),
(236,619,o),
(224,619,qs),
(207,619,ls),
(195,619,o),
(186,628,qs),
(129,685,l),
(126,687,o),
(128,691,o),
(131,691,qs),
(139,691,ls),
(154,691,o),
(164,681,qs),
(216,635,l),
(266,681,ls)
);
},
{
closed = 1;
nodes = (
(36,119,qs),
(43,119,o),
(46,109,qs),
(59,68,o),
(99,42,qs),
(144,12,o),
(207,12,qs),
(274,12,o),
(315,44,qs),
(360,80,o),
(360,149,qs),
(360,190,o),
(328,219,qs),
(299,245,o),
(219,275,qs),
(130,307,o),
(101,328,qs),
(45,365,o),
(45,424,qs),
(45,483,o),
(88,522,qs),
(136,567,o),
(214,567,qs),
(287,567,o),
(355,527,qs),
(371,517,o),
(379,506,o),
(376,498,qs),
(375,495,ls),
(372,488,o),
(369,488,qs),
(366,488,o),
(362,491,qs),
(360,492,o),
(359,493,qs),
(288,544,o),
(214,544,qs),
(155,544,o),
(116,516,qs),
(71,483,o),
(71,426,qs),
(71,384,o),
(104,356,qs),
(132,331,o),
(213,301,qs),
(300,270,o),
(331,249,qs),
(386,211,o),
(386,150,qs),
(386,82,o),
(344,39,qs),
(296,-11,o),
(209,-11,qs),
(129,-11,o),
(76,29,qs),
(27,66,o),
(27,103,qs),
(27,119,o)
);
}
);
userData = {
assembly = "MPPEM[ ]	/* MeasurePixelPerEm */
PUSHB[ ]	/* 1 value pushed */
36 
LT[ ]	/* LessThan */
IF[ ]	/* If */
NPUSHB[ ]	/* 40 values pushed */
2 1 0 1 0 133 0 1 5 1 133 0 7 4 6 4 7 6 128 0 4 4 5 97 0 5 5 39 77 0 6 6 3 97 0 3 3 46 3 78 
ELSE[ ]	/* Else */
NPUSHB[ ]	/* 38 values pushed */
2 1 0 1 0 133 0 1 5 1 133 0 7 4 6 4 7 6 128 0 5 0 4 7 5 4 106 0 6 6 3 97 0 3 3 46 3 78 
EIF[ ]	/* EndIf */
NPUSHB[ ]	/* 11 values pushed */
36 46 44 46 37 51 53 34 8 9 30 
CALL[ ]	/* CallFunction */";
};
width = 422;
}
);
note = Scaron;
unicode = 352;
},
{
glyphname = scaron;
kernLeft = s;
layers = (
{
layerId = m01;
shapes = (
{
closed = 1;
nodes = (
(213,502,o),
(226,502,qs),
(234,502,ls),
(242,502,o),
(237,496,q),
(179,439,ls),
(170,431,o),
(158,431,qs),
(141,431,ls),
(129,431,o),
(120,439,qs),
(63,496,ls),
(56,502,o),
(66,502,qs),
(74,502,ls),
(88,502,o),
(99,492,qs),
(150,446,l),
(201,492,ls)
);
},
{
closed = 1;
nodes = (
(252,313,o),
(250,313,qs),
(247,313,o),
(241,317,q),
(240,317,o),
(240,318,q),
(203,344,o),
(150,344,qs),
(110,344,o),
(62,307,o),
(62,276,qs),
(62,251,o),
(84,234,qs),
(102,218,o),
(156,198,qs),
(213,177,o),
(234,161,qs),
(271,135,o),
(271,96,qs),
(271,52,o),
(240,23,qs),
(205,-11,o),
(149,-11,qs),
(103,-11,o),
(28,42,o),
(28,74,qs),
(28,87,o),
(35,87,qs),
(39,87,o),
(44,78,q),
(73,12,o),
(149,12,qs),
(192,12,o),
(245,55,o),
(245,92,qs),
(245,118,o),
(223,137,qs),
(204,153,o),
(151,173,qs),
(93,195,o),
(72,209,qs),
(36,234,o),
(36,273,qs),
(36,311,o),
(64,337,qs),
(97,367,o),
(150,367,qs),
(199,367,o),
(236,349,qs),
(258,338,o),
(256,324,qs),
(255,319,l)
);
}
);
userData = {
assembly = "NPUSHB[ ]	/* 51 values pushed */
2 1 0 1 0 133 0 1 3 1 133 0 5 7 4 7 5 4 128 0 7 7 3 97 0 3 3 48 77 0 4 4 6 97 0 6 6 46 6 78 45 35 34 45 37 51 51 50 8 9 30 
CALL[ ]	/* CallFunction */";
};
width = 299;
}
);
note = scaron;
unicode = 353;
},
{
glyphname = Ydieresis;
kernLeft = Y;
kernRight = Y;
layers = (
{
layerId = m01;
shapes = (
{
closed = 1;
nodes = (
(157,653,qs),
(176,653,o),
(176,634,qs),
(176,615,o),
(157,615,qs),
(138,615,o),
(138,634,qs),
(138,653,o)
);
},
{
closed = 1;
nodes = (
(248,653,qs),
(267,653,o),
(267,634,qs),
(267,615,o),
(248,615,qs),
(229,615,o),
(229,634,qs),
(229,653,o)
);
},
{
closed = 1;
nodes = (
(14,556,o),
(19,556,qs),
(23,556,ls),
(41,556,o),
(54,533,qs),
(210,247,l),
(378,547,ls),
(383,556,o),
(392,556,qs),
(404,556,ls),
(410,556,o),
(408,552,qs),
(223,223,l),
(223,3,ls),
(223,0,o),
(220,0,qs),
(200,0,ls),
(197,0,o),
(197,3,qs),
(197,223,l),
(16,552,ls)
);
}
);
userData = {
assembly = "NPUSHB[ ]	/* 34 values pushed */
30 23 20 17 16 5 4 73 3 1 1 2 1 0 4 1 0 105 5 1 4 4 39 4 78 52 43 34 34 34 33 6 9 28 
CALL[ ]	/* CallFunction */";
};
width = 421;
}
);
note = Ydieresis;
unicode = 376;
},
{
glyphname = Zcaron;
kernLeft = Z;
kernRight = Z;
layers = (
{
layerId = m01;
shapes = (
{
closed = 1;
nodes = (
(286,691,o),
(299,691,qs),
(307,691,ls),
(316,691,o),
(311,685,q),
(253,628,ls),
(244,619,o),
(232,619,qs),
(215,619,ls),
(203,619,o),
(194,628,qs),
(137,685,ls),
(130,691,o),
(139,691,qs),
(147,691,ls),
(162,691,o),
(172,681,qs),
(224,635,l),
(274,681,ls)
);
},
{
closed = 1;
nodes = (
(387,23,o),
(387,9,qs),
(387,6,ls),
(387,0,o),
(382,0,qs),
(43,0,ls),
(40,0,o),
(40,3,qs),
(40,16,ls),
(40,27,o),
(47,38,qs),
(367,533,l),
(64,533,ls),
(62,533,o),
(62,536,qs),
(62,553,ls),
(62,556,o),
(64,556,qs),
(365,556,ls),
(389,556,o),
(389,536,qs),
(389,532,ls),
(389,524,o),
(377,505,qs),
(64,23,l),
(373,23,ls)
);
}
);
userData = {
assembly = "NPUSHB[ ]	/* 54 values pushed */
41 1 5 6 1 76 2 1 0 1 0 133 0 1 3 1 133 0 4 4 3 95 0 3 3 39 77 7 1 6 6 5 95 0 5 5 40 5 78 19 19 19 44 19 43 52 51 39 51 51 50 8 9 28 
CALL[ ]	/* CallFunction */";
};
width = 437;
}
);
note = Zcaron;
unicode = 381;
},
{
glyphname = zcaron;
kernLeft = z;
kernRight = z;
layers = (
{
layerId = m01;
shapes = (
{
closed = 1;
nodes = (
(230,502,o),
(243,502,qs),
(251,502,ls),
(260,502,o),
(255,496,q),
(197,439,ls),
(188,431,o),
(176,431,qs),
(159,431,ls),
(147,431,o),
(138,439,qs),
(81,496,l),
(78,498,o),
(80,502,o),
(83,502,qs),
(91,502,ls),
(106,502,o),
(116,492,qs),
(168,446,l),
(218,492,ls)
);
},
{
closed = 1;
nodes = (
(293,23,o),
(293,20,qs),
(293,3,ls),
(293,0,o),
(290,0,qs),
(42,0,ls),
(39,0,o),
(39,3,qs),
(39,21,ls),
(39,28,o),
(45,37,qs),
(262,337,l),
(53,337,ls),
(50,337,o),
(50,340,qs),
(50,357,ls),
(50,360,o),
(53,360,qs),
(262,360,ls),
(288,360,o),
(288,338,qs),
(288,329,o),
(272,308,qs),
(66,23,l),
(290,23,ls)
);
}
);
userData = {
assembly = "NPUSHB[ ]	/* 48 values pushed */
2 1 0 1 0 133 0 1 3 1 133 0 4 4 3 95 0 3 3 42 77 7 1 6 6 5 95 0 5 5 40 5 78 20 20 20 44 20 42 52 51 38 51 53 34 8 9 28 
CALL[ ]	/* CallFunction */";
};
width = 334;
}
);
note = zcaron;
unicode = 382;
},
{
glyphname = florin;
layers = (
{
layerId = m01;
shapes = (
{
closed = 1;
nodes = (
(50,360,o),
(54,360,qs),
(118,360,l),
(139,477,ls),
(153,556,o),
(221,556,qs),
(245,556,o),
(276,529,o),
(276,509,qs),
(276,490,o),
(266,490,qs),
(261,490,o),
(260,496,qs),
(255,517,o),
(237,533,o),
(219,533,qs),
(174,533,o),
(165,478,qs),
(144,360,l),
(233,360,ls),
(236,360,o),
(236,357,q),
(233,340,l),
(233,337,o),
(229,337,qs),
(140,337,l),
(64,-93,ls),
(51,-171,o),
(-18,-171,qs),
(-41,-171,o),
(-73,-144,o),
(-73,-124,qs),
(-73,-106,o),
(-63,-106,qs),
(-59,-106,o),
(-57,-111,q),
(-48,-148,o),
(-15,-148,qs),
(30,-148,o),
(39,-93,qs),
(114,337,l),
(49,337,ls),
(48,337,o),
(48,340,qs),
(50,357,ls)
);
}
);
userData = {
assembly = "NPUSHB[ ]	/* 63 values pushed */
0 7 6 5 6 7 5 128 0 2 0 1 0 2 1 128 0 6 6 8 97 0 8 8 39 77 4 1 0 0 5 95 9 1 5 5 42 77 0 1 1 3 97 0 3 3 50 3 78 42 41 35 35 34 51 18 35 34 34 48 10 9 31 
CALL[ ]	/* CallFunction */";
};
width = 310;
}
);
note = florin;
unicode = 402;
},
{
glyphname = circumflex;
layers = (
{
layerId = m01;
shapes = (
{
closed = 1;
nodes = (
(27,431,o),
(14,431,qs),
(6,431,ls),
(3,431,o),
(1,434,o),
(3,436,qs),
(61,493,ls),
(69,502,o),
(82,502,qs),
(98,502,ls),
(111,502,o),
(119,493,qs),
(177,436,ls),
(183,431,o),
(174,431,qs),
(166,431,ls),
(152,431,o),
(141,440,qs),
(91,486,l),
(39,440,l)
);
}
);
userData = {
assembly = "PUSHB[ ]	/* 2 values pushed */
6 100 
WCVTP[ ]	/* WriteCVTInPixels */
NPUSHB[ ]	/* 16 values pushed */
0 1 0 1 133 2 1 0 0 118 37 51 50 3 9 25 
CALL[ ]	/* CallFunction */
PUSHB[ ]	/* 2 values pushed */
6 0 
WCVTP[ ]	/* WriteCVTInPixels */";
};
width = 178;
}
);
note = circumflex;
unicode = 710;
},
{
glyphname = caron;
layers = (
{
layerId = m01;
shapes = (
{
closed = 1;
nodes = (
(157,502,o),
(170,502,qs),
(178,502,ls),
(187,502,o),
(181,496,qs),
(123,439,ls),
(115,431,o),
(102,431,qs),
(86,431,ls),
(73,431,o),
(65,439,qs),
(7,496,ls),
(1,502,o),
(10,502,qs),
(18,502,ls),
(32,502,o),
(43,492,qs),
(95,446,l),
(145,492,ls)
);
}
);
userData = {
assembly = "PUSHB[ ]	/* 2 values pushed */
6 100 
WCVTP[ ]	/* WriteCVTInPixels */
NPUSHB[ ]	/* 16 values pushed */
2 1 0 1 0 133 0 1 1 118 51 51 50 3 9 25 
CALL[ ]	/* CallFunction */
PUSHB[ ]	/* 2 values pushed */
6 0 
WCVTP[ ]	/* WriteCVTInPixels */";
};
width = 178;
}
);
note = caron;
unicode = 711;
},
{
glyphname = breve;
layers = (
{
layerId = m01;
shapes = (
{
closed = 1;
nodes = (
(7,497,qs),
(19,497,ls),
(25,497,o),
(27,490,qs),
(37,452,o),
(83,452,qs),
(130,452,o),
(140,490,qs),
(142,497,o),
(148,497,qs),
(160,497,ls),
(166,497,o),
(165,489,qs),
(160,463,o),
(115,431,o),
(83,431,qs),
(52,431,o),
(7,463,o),
(2,489,qs),
(1,497,o)
);
}
);
userData = {
assembly = "PUSHB[ ]	/* 2 values pushed */
6 100 
WCVTP[ ]	/* WriteCVTInPixels */
NPUSHB[ ]	/* 35 values pushed */
0 1 2 1 1 76 3 1 1 2 1 133 0 2 0 0 2 89 0 2 2 0 97 0 0 2 0 81 34 35 35 34 4 9 26 
CALL[ ]	/* CallFunction */
PUSHB[ ]	/* 2 values pushed */
6 0 
WCVTP[ ]	/* WriteCVTInPixels */";
};
width = 165;
}
);
note = breve;
unicode = 728;
},
{
glyphname = dotaccent;
layers = (
{
layerId = m01;
shapes = (
{
closed = 1;
nodes = (
(19,464,qs),
(38,464,o),
(38,445,qs),
(38,426,o),
(19,426,qs),
(0,426,o),
(0,445,qs),
(0,464,o)
);
}
);
userData = {
assembly = "PUSHB[ ]	/* 2 values pushed */
6 100 
WCVTP[ ]	/* WriteCVTInPixels */
NPUSHB[ ]	/* 21 values pushed */
0 1 0 0 1 89 0 1 1 0 97 0 0 1 0 81 34 33 2 9 24 
CALL[ ]	/* CallFunction */
PUSHB[ ]	/* 2 values pushed */
6 0 
WCVTP[ ]	/* WriteCVTInPixels */";
};
width = 38;
}
);
note = dotaccent;
unicode = 729;
},
{
glyphname = ring;
layers = (
{
layerId = m01;
shapes = (
{
closed = 1;
nodes = (
(32,519,o),
(54,519,qs),
(77,519,o),
(109,486,o),
(109,463,qs),
(109,442,o),
(76,409,o),
(54,409,qs),
(33,409,o),
(0,442,o),
(0,463,qs),
(0,486,o)
);
},
{
closed = 1;
nodes = (
(88,448,o),
(88,463,qs),
(88,479,o),
(69,499,o),
(54,499,qs),
(40,499,o),
(21,479,o),
(21,463,qs),
(21,448,o),
(40,428,o),
(54,428,qs),
(69,428,o)
);
}
);
userData = {
assembly = "PUSHB[ ]	/* 2 values pushed */
6 100 
WCVTP[ ]	/* WriteCVTInPixels */
NPUSHB[ ]	/* 39 values pushed */
0 1 0 3 2 1 3 105 4 1 2 0 0 2 89 4 1 2 2 0 97 0 0 2 0 81 13 12 19 17 12 23 13 23 36 34 5 9 24 
CALL[ ]	/* CallFunction */
PUSHB[ ]	/* 2 values pushed */
6 0 
WCVTP[ ]	/* WriteCVTInPixels */";
};
width = 109;
}
);
note = ring;
unicode = 730;
},
{
glyphname = ogonek;
layers = (
{
layerId = m01;
shapes = (
{
closed = 1;
nodes = (
(56,0,qs),
(59,2,o),
(67,2,qs),
(78,2,ls),
(80,2,o),
(81,-2,o),
(79,-3,qs),
(26,-32,o),
(26,-77,qs),
(26,-111,o),
(63,-111,qs),
(78,-111,o),
(94,-104,q),
(101,-102,o),
(101,-108,qs),
(101,-119,ls),
(101,-125,o),
(94,-127,qs),
(75,-133,o),
(58,-133,qs),
(32,-133,o),
(0,-103,o),
(0,-78,qs),
(0,-33,o)
);
}
);
userData = {
assembly = "PUSHB[ ]	/* 2 values pushed */
6 100 
WCVTP[ ]	/* WriteCVTInPixels */
PUSHB[ ]	/* 8 values pushed */
16 10 8 3 1 2 1 76 
MPPEM[ ]	/* MeasurePixelPerEm */
PUSHB[ ]	/* 1 value pushed */
10 
LT[ ]	/* LessThan */
IF[ ]	/* If */
NPUSHB[ ]	/* 22 values pushed */
0 2 1 1 2 112 0 1 0 0 1 89 0 1 1 0 98 0 0 1 0 82 
ELSE[ ]	/* Else */
NPUSHB[ ]	/* 21 values pushed */
0 2 1 2 133 0 1 0 0 1 89 0 1 1 0 98 0 0 1 0 82 
EIF[ ]	/* EndIf */
PUSHB[ ]	/* 6 values pushed */
23 39 34 3 9 25 
CALL[ ]	/* CallFunction */
PUSHB[ ]	/* 2 values pushed */
6 0 
WCVTP[ ]	/* WriteCVTInPixels */";
};
width = 101;
}
);
note = ogonek;
unicode = 731;
},
{
glyphname = tilde;
layers = (
{
layerId = m01;
shapes = (
{
closed = 1;
nodes = (
(0,427,o),
(0,432,qs),
(3,475,o),
(42,475,qs),
(54,475,o),
(82,463,qs),
(115,448,o),
(125,448,qs),
(142,448,o),
(145,465,qs),
(147,473,o),
(152,473,qs),
(168,473,ls),
(173,473,o),
(172,467,qs),
(164,426,o),
(125,426,qs),
(110,426,o),
(78,440,qs),
(52,452,o),
(42,452,qs),
(30,452,o),
(27,436,qs),
(25,427,o),
(20,427,qs),
(4,427,ls)
);
}
);
userData = {
assembly = "PUSHB[ ]	/* 2 values pushed */
6 100 
WCVTP[ ]	/* WriteCVTInPixels */
NPUSHB[ ]	/* 47 values pushed */
23 1 1 3 1 76 4 1 2 0 0 3 2 0 105 0 3 1 1 3 89 0 3 3 1 98 6 5 2 1 3 1 82 0 0 0 25 0 25 34 35 34 34 35 7 9 27 
CALL[ ]	/* CallFunction */
PUSHB[ ]	/* 2 values pushed */
6 0 
WCVTP[ ]	/* WriteCVTInPixels */";
};
width = 173;
}
);
note = tilde;
unicode = 732;
},
{
glyphname = hungarumlaut;
layers = (
{
layerId = m01;
shapes = (
{
closed = 1;
nodes = (
(57,502,o),
(71,502,qs),
(88,502,ls),
(90,502,o),
(92,497,o),
(91,496,qs),
(38,440,ls),
(28,431,o),
(13,431,qs),
(6,431,ls),
(3,431,o),
(1,434,o),
(3,436,qs),
(50,493,ls)
);
},
{
closed = 1;
nodes = (
(153,502,o),
(166,502,qs),
(183,502,ls),
(185,502,o),
(188,498,o),
(186,496,qs),
(133,440,ls),
(123,431,o),
(108,431,qs),
(102,431,ls),
(93,431,o),
(98,436,qs),
(145,493,ls)
);
}
);
userData = {
assembly = "PUSHB[ ]	/* 2 values pushed */
6 100 
WCVTP[ ]	/* WriteCVTInPixels */
NPUSHB[ ]	/* 18 values pushed */
3 1 1 0 1 133 2 1 0 0 118 52 51 52 35 4 9 26 
CALL[ ]	/* CallFunction */
PUSHB[ ]	/* 2 values pushed */
6 0 
WCVTP[ ]	/* WriteCVTInPixels */";
};
width = 186;
}
);
note = hungarumlaut;
unicode = 733;
},
{
glyphname = uni03BC;
layers = (
{
layerId = m01;
shapes = (
{
closed = 1;
nodes = (
(94,-160,o),
(91,-160,qs),
(71,-160,ls),
(68,-160,o),
(68,-157,qs),
(68,357,ls),
(68,360,o),
(71,360,qs),
(73,360,ls),
(94,360,o),
(94,332,qs),
(94,156,ls),
(94,13,o),
(209,13,qs),
(324,13,o),
(324,156,qs),
(324,357,ls),
(324,360,o),
(327,360,qs),
(329,360,ls),
(350,360,o),
(350,332,qs),
(350,159,ls),
(350,-9,o),
(209,-9,qs),
(129,-9,o),
(94,51,q),
(94,-157,ls)
);
}
);
userData = {
assembly = "NPUSHB[ ]	/* 42 values pushed */
21 10 0 3 2 1 1 76 25 22 2 0 73 3 1 1 2 1 133 0 2 0 0 2 89 0 2 2 0 97 0 0 2 0 81 19 37 19 33 4 8 26 
CALL[ ]	/* CallFunction */";
};
width = 417;
}
);
note = uni03BC;
unicode = 956;
},
{
glyphname = uni060C;
layers = (
{
layerId = m01;
shapes = (
{
closed = 1;
nodes = (
(111,11,qs),
(111,-2,o),
(94,-18,o),
(81,-18,qs),
(50,-18,o),
(50,14,qs),
(50,40,o),
(81,100,o),
(106,121,q),
(107,123,o),
(111,119,qs),
(121,110,o),
(109,91,qs),
(107,87,o),
(106,86,qs),
(105,85,o),
(103,82,qs),
(89,59,o),
(84,41,q),
(111,36,o)
);
}
);
userData = {
assembly = "MPPEM[ ]	/* MeasurePixelPerEm */
PUSHB[ ]	/* 1 value pushed */
22 
LT[ ]	/* LessThan */
IF[ ]	/* If */
PUSHB[ ]	/* 6 values pushed */
0 0 0 24 0 78 
ELSE[ ]	/* Else */
PUSHB[ ]	/* 4 values pushed */
0 0 0 118 
EIF[ ]	/* EndIf */
PUSHB[ ]	/* 4 values pushed */
46 1 7 23 
CALL[ ]	/* CallFunction */";
};
width = 161;
}
);
note = uni060C;
unicode = 1548;
},
